<?xml version="1.0" encoding="utf-8"?>
<!-- Generator: Adobe Illustrator 22.1.0, SVG Export Plug-In . SVG Version: 6.00 Build 0)  -->
<svg version="1.1" xmlns="http://www.w3.org/2000/svg" xmlns:xlink="http://www.w3.org/1999/xlink" x="0px" y="0px"
	 viewBox="0 0 1400 980" style="enable-background:new 0 0 1400 980;" xml:space="preserve">
<style type="text/css">
	.st0{fill:#202B35;}
	.st1{fill:#11171C;}
	.st2{fill:#FEC83D;}
	.st3{fill:#D85E38;}
	.st4{fill:#4DA8BB;}
	.st5{fill:#6BE8F9;}
	.st6{fill:#FE8ACB;}
	.st7{fill:#5194FC;}
	.st8{fill:#A4D38F;}
	.st9{fill:#EF7C2E;}
</style>
<g id="Background">
	<rect x="0" class="st0" width="1400" height="980"/>
</g>
<g id="object">
	<g>
		<g>
			<path class="st1" d="M1257.7,678.6c0.3-0.5,0.6-1,0.9-1.5c0.1-0.2,0.3-0.4,0.4-0.6c0.3-0.6,0.7-1.2,1-1.8
				c0.1-0.1,0.1-0.2,0.2-0.4c0.4-0.8,0.8-1.5,1.2-2.3c0.1-0.1,0.1-0.2,0.2-0.3c0.3-0.7,0.6-1.4,1-2.1c0.1-0.2,0.2-0.4,0.2-0.5
				c0.3-0.7,0.6-1.4,0.9-2.2c0-0.1,0.1-0.2,0.1-0.3c0.7-1.8,1.3-3.6,1.8-5.5c0-0.1,0-0.1,0.1-0.2c0.2-0.9,0.5-1.8,0.7-2.7
				c0-0.1,0-0.1,0-0.2c0.7-3,1.2-6.2,1.5-9.4c0,0,0,0,0-0.1c0.4-4.4,0.4-9,0-13.9c0,0,0,0,0,0v0c-1-10.7-4.2-22.2-10.5-34.2
				c-1.4-2.7-2.9-5.2-4.3-7.6c-3.4-5.9-7.7-13.3-7.1-16.5c0.3-1.5,2-4.6,3.5-7.4c1.4-2.4,2.9-5.2,4.3-8.3
				c7.9-17.3,8.5-37.6,2.3-57.8c0,0,0,0,0,0c-0.4-1.3-0.8-2.5-1.3-3.8c0,0,0,0,0,0c-0.4-1.2-0.9-2.4-1.4-3.6
				c-0.1-0.2-0.1-0.4-0.2-0.5c-0.5-1.1-0.9-2.3-1.4-3.4c0-0.1-0.1-0.1-0.1-0.2c-0.5-1.1-1-2.3-1.6-3.4c-0.1-0.3-0.3-0.5-0.4-0.8
				c-0.6-1.1-1.1-2.3-1.7-3.4c-6.6-12.2-16.3-25.9-29-40.9c-4.2-4.9-6.3-11.3-5.9-18c0.1-1,0.1-2,0.1-3c0-0.1,0-0.2,0-0.3
				c0.8-20-0.2-45-12.7-67.7c-8.2-15-20.1-26.4-32.2-36.2c-0.3-0.3-0.7-0.5-1-0.8c-2.9-2.3-5.8-4.5-8.6-6.7
				c-0.4-0.3-0.7-0.6-1.1-0.8c-1.3-1-2.7-2-4-3c-1.7-1.3-3.5-2.6-5.2-3.9c-5.4-4.1-7.2-6.2-7.8-7.1c0.1-1.1,0.5-3.1,0.8-4.6
				c0.3-1.4,0.6-2.8,0.8-4.2c0.2-1.2,0.4-2.3,0.5-3.5c0-0.3,0.1-0.6,0.1-0.9c0.1-1.2,0.3-2.3,0.4-3.5c0,0,0,0,0,0
				c0.1-1.2,0.1-2.4,0.2-3.5c0-0.3,0-0.6,0-0.8c0-1.2,0-2.3,0-3.5c0,0,0,0,0,0c0-1.2-0.1-2.4-0.2-3.6c0-0.3,0-0.5-0.1-0.8
				c-0.2-2.4-0.5-4.7-0.8-7.1c0-0.2-0.1-0.5-0.1-0.7c-0.2-1.2-0.4-2.3-0.7-3.5c0,0,0,0,0,0v0c-3.7-17.3-12.8-33.4-26.2-45.1
				c-13.6-11.9-29.7-18-44-23.5c-5.2-2-10.2-3.9-14.9-6c-1.3-0.6-2.3-1.1-3.1-1.5l0,0c-0.5-0.3-0.9-0.5-1.3-0.7c0,0,0,0,0,0
				c-0.1-0.1-0.3-0.2-0.4-0.3c0,0,0,0,0,0c-0.1-0.1-0.2-0.2-0.3-0.2c-0.3-0.9-0.6-2.5-0.9-3.8c-0.4-1.9-0.9-4-1.5-6.2
				c-9.2-32.1-41.1-47.5-66.2-54.8c-1.4-0.4-2.9-0.8-4.3-1.2c-0.4-0.1-0.8-0.2-1.2-0.3c-1.1-0.3-2.2-0.6-3.4-0.9
				c-0.4-0.1-0.7-0.2-1.1-0.3c-1.3-0.3-2.5-0.6-3.8-0.9c-0.2,0-0.4-0.1-0.6-0.1c-15.9-3.7-32.1-6-48.4-6.9c0,0,0,0,0-0.1
				c-0.4-0.6-0.9-1.3-1.3-1.9c-16.1-23.1-44.5-36-72.5-33c-9.8,1.1-18.7,3.9-26.5,6.5c-6,1.9-11.6,3.7-16.7,4.5c-0.1,0-0.3,0-0.4,0
				c-3.1,0.4-6.6,0.6-10,0.5c-0.1,0-0.1,0-0.2,0c-0.8,0-1.6,0-2.3-0.1c-0.2,0-0.4,0-0.6,0c-0.6,0-1.3-0.1-1.9-0.1
				c-0.4,0-0.8-0.1-1.1-0.1c-0.5-0.1-0.9-0.1-1.3-0.2c-0.8-0.1-1.6-0.2-2.4-0.4c-1-0.2-1.9-0.3-2.9-0.5c-0.3,0-0.7-0.1-1-0.1
				c-0.6-0.1-1.3-0.2-1.9-0.2c-0.4,0-0.8-0.1-1.2-0.1c-0.6-0.1-1.1-0.1-1.7-0.1c-0.4,0-0.9-0.1-1.3-0.1c-0.5,0-1-0.1-1.6-0.1
				c-0.5,0-0.9,0-1.4,0c-0.5,0-1,0-1.5,0c-0.5,0-1,0-1.5,0c-0.4,0-0.9,0-1.3,0c-0.5,0-1.1,0-1.6,0.1c-0.4,0-0.8,0.1-1.1,0.1
				c-0.6,0-1.2,0.1-1.8,0.1c-0.1,0-0.3,0-0.4,0c-2.5,0.2-4.9,0.6-7.3,1c-0.1,0-0.2,0-0.4,0.1c-0.7,0.1-1.5,0.3-2.2,0.5
				c-0.2,0-0.4,0.1-0.5,0.1c-0.7,0.2-1.4,0.3-2.1,0.5c-0.2,0-0.4,0.1-0.5,0.1c-0.7,0.2-1.4,0.4-2.1,0.6c-0.2,0-0.3,0.1-0.5,0.1
				c-0.7,0.2-1.5,0.4-2.2,0.7c-0.1,0-0.2,0.1-0.3,0.1c-17.5,5.9-32.7,17.6-42.5,33.8c-0.2-0.3-0.4-0.6-0.6-0.9
				c-0.2-0.3-0.3-0.5-0.5-0.8c-0.4-0.7-0.9-1.3-1.3-2c-0.2-0.3-0.4-0.5-0.6-0.8c-0.5-0.6-0.9-1.3-1.4-1.9c-0.2-0.2-0.4-0.5-0.6-0.7
				c-0.5-0.6-1-1.3-1.5-1.9c-0.2-0.2-0.4-0.4-0.5-0.6c-0.6-0.6-1.1-1.3-1.7-1.9c-0.1-0.2-0.3-0.3-0.4-0.5c-0.6-0.7-1.2-1.3-1.9-2
				c-0.1-0.1-0.2-0.2-0.3-0.3c-0.7-0.7-1.4-1.4-2.1-2c-0.1-0.1-0.1-0.1-0.2-0.2c-0.8-0.7-1.6-1.4-2.4-2.1c0,0,0,0,0,0l0,0
				c-18.1-15.3-42.7-22.4-67.2-18.1c-6.3,1.1-13.8,1.2-20,0.3c-5.1-0.7-10.7-2.5-16.7-4.5c-7.8-2.5-16.7-5.4-26.5-6.5
				c-28-3.1-56.4,9.9-72.5,33c-0.4,0.6-0.9,1.3-1.3,1.9c0,0,0,0,0,0.1c-21.2,1.1-42.3,4.7-62.7,10.6c-25.1,7.3-57,22.7-66.2,54.8
				c-0.6,2.3-1.1,4.4-1.5,6.2c-0.3,1.2-0.6,2.9-0.9,3.8c-0.6,0.4-2,1.3-5.1,2.7c-4.7,2.1-9.6,4-14.9,6c-14.2,5.4-30.3,11.6-44,23.5
				c-21.3,18.6-31.9,48.6-26.8,76.5c0.3,1.4,0.5,2.8,0.8,4.2c0.3,1.5,0.7,3.5,0.8,4.6c-0.6,1-2.4,3.1-7.8,7.1
				c-1.7,1.3-3.4,2.6-5.2,3.9c-16.5,12.4-35.3,26.5-46.9,47.6c-14.5,26.5-13.8,56.9-11.8,81.3c-15.9,18-27.9,34.3-35.6,48.6
				c-14.1,26.2-16.2,54.2-5.8,77c1.4,3.1,2.9,5.9,4.3,8.3c1.5,2.8,3.3,5.9,3.5,7.4c0.6,3.2-3.7,10.6-7.1,16.5
				c-1.4,2.5-2.9,5-4.3,7.6c-17.9,33.8-11,63.9,1.3,80.8c3.1,4.2,6.5,7.7,9.4,10.8c2.2,2.2,5.4,5.6,6.2,7.1c0,1.4-0.9,4.7-1.5,7
				c-0.7,2.6-1.5,5.6-2.1,8.8c-5.9,32.3,14.9,66,46.4,75.2c7.2,2.1,15.5,14.5,22.7,25.4c11.3,17,24.1,36.3,46.5,43
				c13.3,4,26.5,3.1,38.1,2.3c0.8-0.1,1.5-0.1,2.3-0.2c0.1,0,0.3,0,0.4,0c0.7,0,1.4-0.1,2-0.1c0.1,0,0.2,0,0.3,0
				c4.8-0.3,9.3-0.4,12.8,0.1c2.6,0.4,4.7,1,6.1,2.2c1.5,1.3,3.5,4.1,5.5,7.1c1.6,2.4,3.5,5.1,5.7,7.8c17.9,22.1,48.3,32,75.8,24.8
				c3.6-0.9,6.9-2.1,9.9-3.1c3.2-1.1,8-2.8,9.7-2.7c0.8,0.3,2.8,1.4,4.3,2.2c0.9,0.5,1.8,1,2.7,1.4c14.2,7.4,30.2,11.1,46.3,11.1
				c21,0,42.1-6.3,59.2-18.6c30.2-21.7,46.5-60.9,40.6-97.6c-0.1-0.5-0.2-1.1-0.3-1.6c0.3,0.1,0.6,0.3,0.8,0.4
				c1.3,0.6,2.7,1.2,3.9,1.8c24.9,11.2,54.7,8.9,77.7-5.9c2.9-1.9,5.7-4,8.4-6.4l0,0c0,0,0,0,0,0c2.6-2.3,5.1-4.9,7.5-7.6
				c0.1-0.1,0.1-0.2,0.2-0.2c0.4-0.5,0.8-1,1.2-1.5c0.1-0.1,0.2-0.2,0.2-0.3c0.4-0.5,0.8-1,1.2-1.5c0.1-0.1,0.1-0.2,0.2-0.2
				c1.7-2.3,3.3-4.6,4.8-7.1c0,0,0-0.1,0.1-0.1c0.3-0.4,0.5-0.9,0.8-1.3c6.2,10.7,14.6,19.8,24.5,26.2c23,14.8,52.7,17.1,77.7,5.9
				c1.3-0.6,2.6-1.2,3.9-1.8c0.3-0.1,0.5-0.3,0.8-0.4c-0.1,0.5-0.2,1.1-0.3,1.6c-5.9,36.7,10.5,75.9,40.6,97.6
				c17.1,12.3,38.2,18.6,59.2,18.6c16,0,32-3.7,46.3-11.1c0.9-0.5,1.8-1,2.7-1.4c1.5-0.8,3.5-1.9,4.3-2.2c1.6-0.1,6.5,1.6,9.7,2.7
				c1.9,0.7,4,1.4,6.2,2.1c0.2,0.1,0.4,0.1,0.6,0.2c1,0.3,2,0.6,3.1,0.9c27.5,7.3,57.9-2.7,75.8-24.8c2.2-2.7,4.1-5.4,5.7-7.8
				c2.1-3,4-5.8,5.5-7.1c4-3.3,13.7-2.7,24-2c11.6,0.8,24.8,1.7,38.1-2.3c22.3-6.7,35.1-26,46.5-43c7.3-10.9,15.5-23.3,22.7-25.4
				c31.5-9.2,52.4-42.9,46.4-75.2c-0.6-3.2-1.4-6.2-2.1-8.8c-0.6-2.3-1.5-5.6-1.5-7c0.7-1.5,4-4.9,6.2-7.1c3-3.1,6.4-6.6,9.4-10.8
				c0.5-0.6,0.9-1.3,1.3-1.9C1257.5,679,1257.6,678.8,1257.7,678.6z M668.4,462.7h-92.3v-75.6h-53.8h-54.4h-31.5v43.6h31.5h54.4
				h10.2v32v21.8v47.6h-34H422v43.6h76.5h77.6v-69.4h92.3v212.9c-0.1,13.7-6.9,27.6-16.6,33.8c-6.8,4.4-15.2,6.4-23.4,5.9V639.4
				h-43.6v106.7c-8-0.3-16.4,1.7-24.2,8.4c-16,13.8-12.7,34.3-10.8,45.3l0.3,2.1c3.3,20.5-6.2,43.2-23,55.3
				c-16.8,12.1-41.4,13.9-59.8,4.3c-0.2-0.1-0.4-0.2-0.6-0.3v-86.5H515V731h-91.7v124.7c-2.5,0.8-4.9,1.6-7.1,2.3
				c-2.4,0.8-4.7,1.6-6.6,2.2c-10.8,2.9-23.7-1.4-30.7-10c-1.1-1.4-2.4-3.2-3.7-5.1c-3.3-4.8-7.4-10.8-13.6-15.9
				c-13.3-11-28.5-12.8-42.3-12.5c0,0-0.1,0-0.1,0c-0.6,0-1.1,0-1.7,0c-0.1,0-0.1,0-0.2,0c-0.5,0-1.1,0-1.6,0.1c-0.1,0-0.1,0-0.2,0
				c-0.5,0-1,0-1.5,0.1c-0.1,0-0.2,0-0.3,0c-0.5,0-1,0.1-1.5,0.1c-0.1,0-0.2,0-0.3,0c-0.5,0-1,0.1-1.5,0.1c-0.1,0-0.2,0-0.3,0
				c-0.5,0-1,0.1-1.6,0.1c0,0-0.1,0-0.1,0c-0.6,0-1.1,0.1-1.7,0.1c-0.9,0.1-1.8,0.1-2.8,0.2c0,0-0.1,0-0.1,0
				c-0.9,0.1-1.8,0.1-2.7,0.2c0,0,0,0-0.1,0c-5.6,0.3-10.7,0.4-14.9-0.4c0,0,0,0,0,0c-0.7-0.1-1.4-0.3-2.1-0.5
				c-7.2-2.2-15.4-14.5-22.7-25.4c-11.4-17.1-24.3-36.5-46.8-43.1c-10-2.9-17.6-15.3-15.7-25.5c0.3-1.5,0.8-3.4,1.3-5.5
				c1.8-6.7,4.2-15.8,2.3-26.2c-2.6-13.8-11.3-22.8-17.7-29.5c-2.2-2.3-4.3-4.4-5.6-6.2c-6.5-8.8-3.5-24.2,2.1-34.6
				c1-2,2.3-4.1,3.5-6.3c3.3-5.7,7.2-12.6,9.9-20.3h24.7v133.5h43.6V550.5h-72.7c-0.5-1-1.1-2-1.6-2.9c-1.1-1.9-2.1-3.7-2.8-5.2
				c-4.6-10.1-2.9-24.4,4.6-38.2c6-11.1,16.1-24.7,29.4-39.9h72.7v218.7h156v-43.6H336.1V420.6H230.4c-0.8-17.8,0.4-33.5,7.2-46
				c7.1-12.9,20.5-23,34.8-33.7c1.8-1.3,3.6-2.7,5.4-4c7.2-5.5,22.3-16.9,24.8-36c1-7.7-0.4-14.5-1.5-19.5c-0.2-1-0.4-2-0.6-3
				c-2.3-12.9,2.7-27.3,12.6-35.8c7.8-6.8,19-11.1,30.9-15.6c5.6-2.1,11.3-4.3,17.1-6.9c8.1-3.6,18.3-9.2,24.7-19.9
				c3.7-6.2,5.1-12.5,6.1-17.1c0.3-1.3,0.6-2.6,0.8-3.5c3.9-13.6,24.5-21.4,36.4-24.9c17.3-5,35.1-8,53-9l0.2,0
				c4.5-0.2,11.2-0.6,18.2-4.3c4.1-2.2,7.3-4.9,9.8-7.7V224H388.8v91.3h43.6v-47.7H554V111.4c4,0.9,8.2,2.3,12.6,3.7
				c7.1,2.3,15.1,4.9,23.9,6.1c10.9,1.6,22.8,1.4,33.7-0.5c16-2.8,31.4,4.1,39.2,17.6c2.3,3.9,3.9,7.4,5,9.8V462.7z M1158.3,399.9
				c3-1.4,7.6-3.5,10.6-4.4c1,7.5,1.2,16.2,0.7,26.8c-0.7,13.7,2.5,27.1,9.3,38.7c-0.4,1.4-0.7,2.7-0.9,4.1
				c-16.7,15.8-38.7,25.6-61.1,27.1c-24.2,1.7-49.2-6.7-66.9-22.3c-7-6.1-11.8-12.4-14.5-18.7c-6.4-15.2-2.4-34.6,3.8-55.3
				c8.9-2,20.5,0.9,37.1,5.6c9.7,2.8,20.1,5.7,30.8,7.1l0,0c0,0,0,0,0,0c0.7,0.1,1.4,0.2,2.1,0.3c0,0,0.1,0,0.1,0
				c0.7,0.1,1.4,0.2,2,0.2c0,0,0.1,0,0.1,0c0.7,0.1,1.3,0.1,2,0.2c0.1,0,0.1,0,0.2,0c0.6,0,1.3,0.1,1.9,0.1c0.1,0,0.2,0,0.3,0
				c0.6,0,1.2,0.1,1.8,0.1c0.1,0,0.2,0,0.4,0c0.6,0,1.2,0,1.8,0c0.1,0,0.3,0,0.4,0c0.6,0,1.1,0,1.7,0c0.2,0,0.3,0,0.5,0
				c0.5,0,1.1,0,1.6-0.1c0.2,0,0.4,0,0.6,0c0.5,0,1.1-0.1,1.6-0.1c0.2,0,0.4,0,0.6,0c0.5,0,1-0.1,1.5-0.1c0.2,0,0.5,0,0.7-0.1
				c0.5-0.1,1-0.1,1.5-0.2c0.2,0,0.5-0.1,0.7-0.1c0.5-0.1,1-0.1,1.5-0.2c0.3,0,0.5-0.1,0.8-0.1c0.5-0.1,1-0.2,1.4-0.3
				c0.3,0,0.5-0.1,0.8-0.1c0.5-0.1,1-0.2,1.4-0.3c0.3-0.1,0.5-0.1,0.8-0.2c0.5-0.1,1-0.3,1.5-0.4c0.2-0.1,0.5-0.1,0.7-0.2
				c0.7-0.2,1.5-0.4,2.2-0.6C1148.2,404.6,1153.5,402.1,1158.3,399.9z M731.6,225.9c21.4,2.9,41.9,16.6,51.4,35.8
				c3.8,7.7,11.5,12.1,19.5,12.1c3.3,0,6.6-0.7,9.7-2.3c10.8-5.4,15.2-18.4,9.8-29.2c-16.9-34-52.8-57.1-90.4-60.2v-33.9
				c1.2-2.6,3-6.6,5.6-10.9c7.6-12.6,22.7-19.3,37.7-16.6l0,0c0.1,0,0.1,0,0.2,0c10.9,2,23.4,2.2,34.4,0.7c1-0.1,2-0.3,3-0.5
				c7.6-1.4,14.6-3.6,20.9-5.7c6.4-2.1,12.5-4,17.8-4.6c5.1-0.6,10.5,0.2,15.5,2.1c0.1,0.1,0.1,0.1,0.1,0.2
				c25.3,25.6,37.9,63.6,33,99.2c-1.7,11.9,6.7,22.9,18.6,24.6c1,0.1,2,0.2,3,0.2c10.7,0,20.1-7.9,21.6-18.8
				c3.3-23.5,0.9-47.8-6.3-70.5c11.5,1.5,23,3.9,34.1,7.2c1.8,0.5,3.9,1.2,6.1,1.9c0.1,0,0.3,0.1,0.4,0.1c0.3,0.1,0.6,0.2,0.8,0.3
				c0.2,0.1,0.3,0.1,0.5,0.2c0.2,0.1,0.5,0.2,0.7,0.3c0.2,0.1,0.4,0.1,0.6,0.2c0.2,0.1,0.5,0.2,0.7,0.3c0.2,0.1,0.4,0.1,0.6,0.2
				c0.3,0.1,0.5,0.2,0.8,0.3c0.2,0.1,0.3,0.1,0.5,0.2c0.3,0.1,0.6,0.3,1,0.4c0.1,0,0.2,0.1,0.3,0.1c0.4,0.2,0.8,0.4,1.3,0.6
				c0.1,0.1,0.3,0.1,0.4,0.2c0.3,0.1,0.6,0.3,0.9,0.4c0.2,0.1,0.3,0.2,0.5,0.2c0.3,0.1,0.5,0.3,0.8,0.4c0.2,0.1,0.3,0.2,0.5,0.3
				c0.3,0.1,0.5,0.3,0.8,0.4c0.2,0.1,0.3,0.2,0.5,0.3c0.3,0.2,0.6,0.3,0.9,0.5c0.1,0.1,0.3,0.1,0.4,0.2c0.4,0.2,0.8,0.5,1.2,0.7
				c0.1,0.1,0.2,0.1,0.3,0.2c0.3,0.2,0.6,0.4,1,0.6c0.1,0.1,0.3,0.2,0.4,0.3c0.3,0.2,0.5,0.3,0.8,0.5c0.2,0.1,0.3,0.2,0.5,0.3
				c0.2,0.2,0.5,0.3,0.7,0.5c0.1,0.1,0.3,0.2,0.4,0.3c0.3,0.2,0.5,0.4,0.8,0.5c0.1,0.1,0.3,0.2,0.4,0.3c0.3,0.3,0.7,0.5,1,0.8
				c0,0,0.1,0,0.1,0.1c0.4,0.3,0.7,0.6,1.1,0.9c0.1,0.1,0.2,0.2,0.3,0.3c0.2,0.2,0.5,0.4,0.7,0.6c0.1,0.1,0.2,0.2,0.4,0.3
				c0.2,0.2,0.4,0.4,0.6,0.6c0.1,0.1,0.2,0.2,0.4,0.4c0.2,0.2,0.4,0.4,0.6,0.6c0.1,0.1,0.2,0.2,0.3,0.3c0.2,0.2,0.4,0.5,0.6,0.7
				c0.1,0.1,0.1,0.2,0.2,0.3c0.3,0.3,0.5,0.7,0.8,1c0.1,0.1,0.1,0.2,0.2,0.2c0.2,0.3,0.4,0.5,0.5,0.8c0.1,0.1,0.2,0.3,0.2,0.4
				c0.1,0.2,0.3,0.5,0.4,0.7c0.1,0.1,0.2,0.3,0.2,0.4c0.1,0.2,0.2,0.5,0.4,0.7c0.1,0.1,0.1,0.3,0.2,0.4c0.1,0.3,0.2,0.5,0.3,0.8
				c0,0.1,0.1,0.2,0.1,0.4c0.1,0.4,0.3,0.8,0.4,1.2c0.3,0.9,0.5,2.2,0.8,3.5c1,4.6,2.4,10.8,6.1,17.1c0.5,0.8,0.9,1.5,1.4,2.2
				c0.2,0.2,0.3,0.4,0.5,0.6c0.3,0.5,0.7,1,1.1,1.4c0.2,0.2,0.4,0.4,0.5,0.7c0.4,0.4,0.7,0.9,1.1,1.3c0.2,0.2,0.3,0.4,0.5,0.6
				c0.5,0.5,0.9,1,1.4,1.5c0.1,0.1,0.2,0.2,0.3,0.3c1.2,1.2,2.4,2.2,3.7,3.2c0.1,0.1,0.1,0.1,0.2,0.2c0.6,0.4,1.1,0.9,1.7,1.3
				c0.1,0.1,0.1,0.1,0.2,0.2c4.1,2.8,8.3,5,12,6.6c5.8,2.6,11.5,4.8,17.1,6.9c1,0.4,1.9,0.7,2.9,1.1c-8,6-15.6,13.2-21.7,22.1
				c-3.7,5.4-6.5,10.9-9,15.7c-2.1,4.1-4.1,8-6.2,11c-4.4,6.3-11.4,12-20.8,16.9c-7.2,3.7-10.1,3.6-10.8,3.5
				c-4.5-0.8-11.6-12.2-13.9-16c-6.4-10.2-19.8-13.4-30-7c-10.2,6.4-13.4,19.8-7,30c6.9,11.1,19.8,31.9,43.6,36
				c2.7,0.5,5.4,0.7,8,0.7c12.3,0,22.9-4.7,30.2-8.5c15.7-8.1,28-18.4,36.5-30.6c3.8-5.5,6.7-11.1,9.3-16.1c2.1-4,4-7.9,6.1-10.9
				c5.3-7.7,14.1-14,23.3-19.5c3.3,7.2,4.5,15.3,3.1,22.9c-0.2,1-0.4,2-0.6,3c-0.3,1.4-0.6,3-0.9,4.7c0,0.1,0,0.1,0,0.2
				c-0.1,0.6-0.2,1.3-0.3,1.9c0,0.1,0,0.2,0,0.3c-0.1,0.6-0.2,1.3-0.2,2c0,0.1,0,0.2,0,0.3c-0.1,0.7-0.1,1.4-0.2,2.1
				c0,0.1,0,0.2,0,0.3c0,0.7-0.1,1.5-0.1,2.2c0,0.1,0,0.2,0,0.3c0,0.8,0,1.6,0.1,2.4c0,0.1,0,0.1,0,0.2c0.1,0.8,0.1,1.7,0.2,2.6
				c2.5,19.1,17.5,30.5,24.8,36c1.8,1.3,3.6,2.7,5.4,4c7.1,5.3,14.1,10.5,20.1,16c-2.7,1.1-5.3,2.3-7.7,3.5
				c-3.8,1.8-7.4,3.4-10.3,4.3c-0.6,0.2-1.3,0.4-1.9,0.5c-0.2,0-0.4,0.1-0.6,0.1c-0.5,0.1-1,0.2-1.5,0.3c-0.2,0-0.4,0.1-0.6,0.1
				c-0.7,0.1-1.3,0.2-2,0.2c-0.1,0-0.2,0-0.3,0c-0.6,0-1.2,0.1-1.8,0.1c-0.2,0-0.5,0-0.7,0c-0.5,0-1,0-1.5,0c-0.2,0-0.5,0-0.7,0
				c-0.7,0-1.4-0.1-2.1-0.2c-0.2,0-0.4,0-0.7-0.1c-0.5-0.1-1.1-0.1-1.6-0.2c-0.3,0-0.6-0.1-0.9-0.1c-0.5-0.1-1-0.1-1.5-0.2
				c-0.3,0-0.6-0.1-0.9-0.1c-0.7-0.1-1.4-0.2-2.1-0.4c-0.4-0.1-0.7-0.1-1.1-0.2c-0.4-0.1-0.8-0.2-1.2-0.3c-0.4-0.1-0.8-0.2-1.3-0.3
				c-0.4-0.1-0.7-0.2-1.1-0.3c-1.1-0.3-2.2-0.5-3.2-0.8c-3.9-1-7.9-2.1-12-3.3c-23.2-6.6-49.5-14-75.3,0.1
				c-20.5,11.2-29.9,30.7-38.2,47.9c-2.6,5.5-5.1,10.6-7.8,15.2c-3.9,6.7-8.9,12.7-14.6,18l0,0c-2.6,2.4-5.3,4.6-8.2,6.6
				c0,0,0,0,0,0c-1.9,1.3-3.8,2.6-5.8,3.8c-0.1,0-0.1,0.1-0.2,0.1c-2,1.2-4,2.2-6,3.2c-0.1,0-0.2,0.1-0.2,0.1
				c-0.9,0.5-1.9,0.9-2.8,1.3c-0.1,0-0.2,0.1-0.3,0.1c-1,0.4-2.1,0.9-3.1,1.3c0,0,0,0-0.1,0c-1,0.4-2,0.7-2.9,1.1
				c-0.2,0.1-0.4,0.1-0.6,0.2c-1,0.3-2,0.7-3,1c0,0,0,0-0.1,0c-1,0.3-2.1,0.6-3.1,0.8c-0.2,0.1-0.5,0.1-0.7,0.2
				c-0.8,0.2-1.7,0.4-2.5,0.6c-0.2,0-0.4,0.1-0.6,0.1c-1,0.2-2,0.4-3.1,0.5c-0.2,0-0.4,0.1-0.6,0.1c-0.8,0.1-1.7,0.2-2.5,0.3
				c-0.3,0-0.6,0.1-0.8,0.1c-1,0.1-2.1,0.2-3.1,0.3c-26.2,1.6-53.5-11-69.4-31.9c-0.7-1-1.5-2-2.2-3c0,0-0.1-0.1-0.1-0.1
				c-0.7-1-1.4-2-2-3v0c-4-6.2-7.6-13-11.3-20.2c-6-11.4-12.2-23.3-21-34.3c-8.2-10.4-14.7-18.6-26.9-23.1c-9.2-3.5-19-4-37.4-4.6
				V225.9z M1093.2,817.2c-16.6-1.1-37.3-2.5-54.7,11.9c-0.7,0.6-1.4,1.2-2.1,1.8c-0.2,0.2-0.4,0.4-0.6,0.6
				c-0.4,0.4-0.9,0.8-1.3,1.3c-0.2,0.2-0.5,0.5-0.7,0.7c-0.4,0.4-0.7,0.8-1.1,1.2c-0.2,0.2-0.4,0.5-0.7,0.7c-0.3,0.4-0.7,0.8-1,1.2
				c-0.2,0.2-0.4,0.5-0.6,0.7c-0.5,0.6-0.9,1.1-1.3,1.7c-0.3,0.4-0.7,0.9-1,1.3c-0.1,0.1-0.2,0.3-0.3,0.4c-0.4,0.5-0.7,1-1.1,1.5
				c0,0,0,0,0,0l0,0c-0.7,0.9-1.3,1.9-1.9,2.7c-1.3,1.9-2.6,3.7-3.7,5.1c-6.5,8-18.1,12.2-28.3,10.5l0,0c-0.3,0-0.5-0.1-0.8-0.1
				c-0.5-0.1-1.1-0.2-1.6-0.4c-1.9-0.5-4.2-1.3-6.6-2.2c-0.6-0.2-1.3-0.4-1.9-0.7c0,0,0,0-0.1,0c-0.6-0.2-1.3-0.4-2-0.7c0,0,0,0,0,0
				c-0.7-0.2-1.4-0.5-2.1-0.7c0,0,0,0,0,0c-0.7-0.2-1.5-0.4-2.2-0.7c0,0,0,0,0,0l0,0c-7.3-2.1-16-3.5-25.5-1.3
				c-6.4,1.5-11.4,4.2-15.5,6.4c-0.7,0.4-1.4,0.7-2,1.1c-18.4,9.6-43,7.9-59.8-4.3c-16.8-12.1-26.3-34.9-23-55.3l0.3-2.1
				c1.6-9.6,4.4-26.6-5.8-39.9c1.5-2.2,3.2-4.1,4.9-5.4c3-2.1,7.8-3.6,12.1-4.7c6.2-1.6,15.3-3.6,22.8-2.3c4.8,0.8,9,3.2,10.4,5.9
				c5.7,10.6,18.9,14.7,29.5,9c10.6-5.7,14.7-18.9,9-29.5c-7.8-14.7-23.4-25.4-41.6-28.5c-15.8-2.7-31,0.4-41.1,3.1
				c-8.2,2.1-17.7,5.1-26.5,11.4c-11.6,8.3-18.5,19.8-23.4,29.9c-4.9,1.6-9.3,3.7-12.8,5.3c-1.1,0.5-2.3,1-3.3,1.5
				c-11.5,5.1-25.7,4.1-36.2-2.7c-9.7-6.2-16.5-20.1-16.6-33.8V385.9c10.6,0.3,19.8,0.8,22,1.7c1.3,0.8,4.9,5.4,8.1,9.4
				c6.2,7.9,11.2,17.4,16.6,27.5c5.7,10.8,11.5,21.9,19.5,32.5c2.8,3.7,5.8,7.2,9,10.5c0.2,0.2,0.4,0.5,0.6,0.7
				c0.5,0.6,1.1,1.1,1.6,1.6c0.3,0.3,0.5,0.5,0.8,0.7c0.6,0.5,1.1,1.1,1.7,1.6c0.2,0.2,0.4,0.3,0.5,0.5c2,1.8,4,3.6,6.1,5.3
				c0.2,0.1,0.4,0.3,0.5,0.4c0.7,0.5,1.3,1.1,2,1.6c0.2,0.1,0.3,0.2,0.5,0.4c3.1,2.3,6.3,4.5,9.6,6.6c0.1,0.1,0.2,0.1,0.3,0.2
				c4.9,3.1,10,5.8,15.3,8.1c6.6,15,10.2,33.1,11,54.2c0.5,16.3-1.1,27.2-5.5,35.3c-7.3,13.7-25.5,22.3-43.3,20.4
				c-9.5-1-17.4-5-20.1-10.1c-0.9-1.7-0.5-4.9,0.3-6.1c11.1-3.7,17.3-15.6,13.9-26.9c-3.4-11.5-15.6-18.1-27.1-14.7
				c-12.1,3.6-22,12.8-27.3,25.2c-5.8,13.9-5.2,29.9,1.6,42.9c9.6,18.1,29.8,30.5,54,33.1c3.2,0.3,6.3,0.5,9.5,0.5
				c32.1,0,62.9-17.2,77-43.9c10.3-19.5,11-40.8,10.5-57.2c-0.5-14.9-2.3-28.9-5.3-41.8c0.6,0,1.1,0,1.7,0c2.1,0,4.2-0.1,6.3-0.2
				l0,0c0.3,0,0.6,0,0.8,0c1.2-0.1,2.3-0.2,3.5-0.3c0.4,0,0.7-0.1,1.1-0.1c0.8-0.1,1.6-0.2,2.4-0.3c0.4-0.1,0.8-0.1,1.3-0.2
				c0.8-0.1,1.5-0.2,2.3-0.3c0.4-0.1,0.8-0.1,1.3-0.2c0.8-0.1,1.6-0.3,2.3-0.4c0.4-0.1,0.8-0.1,1.1-0.2c0.9-0.2,1.8-0.4,2.7-0.5
				c0.2-0.1,0.5-0.1,0.7-0.1c2.3-0.5,4.7-1.1,7-1.7c0.2-0.1,0.4-0.1,0.6-0.2c1-0.3,1.9-0.6,2.9-0.8c0.2-0.1,0.5-0.2,0.7-0.2
				c0.9-0.3,1.8-0.6,2.7-0.9c0.2-0.1,0.5-0.2,0.7-0.2c1-0.3,1.9-0.7,2.9-1c0.1-0.1,0.3-0.1,0.4-0.2c4.6-1.7,9-3.7,13.3-6
				c0.1,0,0.2-0.1,0.2-0.1c1-0.5,2-1.1,3-1.6c0.1,0,0.2-0.1,0.2-0.1c1-0.6,2.1-1.2,3.1-1.8c0,0,0,0,0,0l0,0
				c12.1-7.2,22.9-16.4,32-27.2c0.7,2.3,1.6,4.5,2.5,6.8c5.3,12.4,14,24,25.9,34.5c24.4,21.4,56.6,33.3,89.4,33.3
				c3.1,0,6.2-0.1,9.3-0.3c31.6-2.2,62.6-15.7,86.3-37.4c1.2,2,2.4,4,3.4,5.8c7.5,13.8,9.2,28.1,4.6,38.2c-0.7,1.5-1.7,3.3-2.8,5.2
				c-3,5.4-6.8,12.2-8.3,20.8c0,0.2,0,0.3-0.1,0.5c-0.1,0.2-0.2,0.5-0.3,0.7c-3.8,10.8-16.9,30.3-62.1,40.2
				c-17.2,3.8-34.7,5.9-53.2,8.2c-4.9,0.6-9.8,1.2-14.7,1.8c-31.7,4.1-66.9,12.2-86.8,41c-13.1,19-16.3,44.2-8.4,65.8
				c7.9,21.6,26.7,38.8,49,44.8c1.9,0.5,3.8,0.8,5.7,0.8c9.6,0,18.4-6.4,21-16.1c3.1-11.6-3.8-23.6-15.4-26.7
				c-8.7-2.3-16.3-9.3-19.4-17.7c-3.1-8.4-1.8-18.7,3.3-26c5.7-8.3,16.9-17.5,56.5-22.6c4.8-0.6,9.6-1.2,14.4-1.8
				c18.7-2.3,38-4.6,57.2-8.8c28.6-6.3,52-17.2,68.7-31.9c0,0.1,0.1,0.2,0.1,0.2c7.9,14.9,6.6,28.4,2.1,34.6
				c-1.3,1.8-3.4,3.9-5.6,6.2c-2.9,3-6.3,6.5-9.4,10.8c-0.1,0.1-0.2,0.3-0.3,0.4c-0.4,0.6-0.8,1.1-1.2,1.7c-0.1,0.2-0.2,0.3-0.3,0.5
				c-0.4,0.6-0.8,1.2-1.2,1.9c-0.1,0.1-0.1,0.2-0.2,0.4c-0.4,0.8-0.9,1.6-1.3,2.4c0,0.1-0.1,0.2-0.1,0.2c-0.3,0.7-0.7,1.4-1,2.2
				c-0.1,0.3-0.2,0.5-0.3,0.8c-0.2,0.6-0.5,1.2-0.7,1.8c-0.1,0.3-0.2,0.6-0.3,0.9c-0.2,0.6-0.4,1.3-0.6,1.9
				c-0.1,0.3-0.2,0.6-0.2,0.9c-0.2,0.9-0.5,1.9-0.6,2.9c-1.9,10.4,0.5,19.5,2.3,26.2c0.4,1.7,0.9,3.3,1.2,4.6
				c0.1,0.3,0.1,0.6,0.2,0.8c1.9,10.2-5.8,22.6-15.7,25.5c-22.5,6.6-35.4,26-46.8,43.1c-1.8,2.8-3.8,5.6-5.7,8.4c0,0,0,0,0,0
				c-1.1,1.5-2.1,3-3.2,4.4c0,0,0,0-0.1,0.1c-0.7,0.9-1.4,1.8-2.1,2.7c0,0-0.1,0.1-0.1,0.1c-0.7,0.8-1.3,1.6-2,2.4
				c-0.1,0.1-0.1,0.1-0.2,0.2c-0.3,0.4-0.7,0.7-1,1.1c0,0,0,0,0,0c-0.3,0.3-0.6,0.7-0.9,1c-0.1,0.1-0.1,0.1-0.2,0.2
				c-0.3,0.3-0.6,0.6-1,0.9c0,0,0,0,0,0c-0.3,0.3-0.6,0.5-0.9,0.8c-0.1,0.1-0.1,0.1-0.2,0.2c-0.3,0.3-0.6,0.5-0.9,0.7c0,0,0,0,0,0
				c-0.3,0.2-0.6,0.4-0.9,0.6c-0.1,0-0.2,0.1-0.2,0.1c-0.3,0.2-0.6,0.4-0.9,0.5c0,0,0,0,0,0c-0.3,0.2-0.6,0.3-0.9,0.4
				c-0.1,0-0.2,0.1-0.2,0.1c-0.3,0.1-0.6,0.2-0.9,0.3C1110.1,818.3,1101.9,817.8,1093.2,817.2z"/>
			<path class="st1" d="M514.3,292.3c-21.5,0-38.9,17.4-38.9,38.9c0,21.5,17.4,38.9,38.9,38.9c13.6,0,25.6-7,32.6-17.7l-32.6-21.2
				c0,0,24-11.7,34.8-17.3C542.7,301,529.6,292.3,514.3,292.3z"/>
			<circle class="st1" cx="624" cy="179.8" r="17.2"/>
			<circle class="st1" cx="624" cy="256.9" r="17.2"/>
			<circle class="st1" cx="624" cy="408.9" r="17.2"/>
			<circle class="st1" cx="624" cy="319.2" r="17.2"/>
			
				<ellipse transform="matrix(0.9871 -0.1602 0.1602 0.9871 -109.3856 63.638)" class="st1" cx="340" cy="710.3" rx="17.2" ry="17.2"/>
			<circle class="st1" cx="410.6" cy="710.3" r="17.2"/>
			<circle class="st1" cx="475.5" cy="710.3" r="17.2"/>
			<circle class="st1" cx="374.5" cy="589.5" r="17.2"/>
			
				<ellipse transform="matrix(0.5257 -0.8507 0.8507 0.5257 -176.3797 787.1711)" class="st1" cx="617.7" cy="551.8" rx="17.2" ry="17.2"/>
			<circle class="st1" cx="312.1" cy="374.4" r="17.2"/>
			<path class="st1" d="M837.1,381c10.6,3.9,22.6,4.2,33.4,1.1c-1,0.8-2,1.5-3.1,2.2c-12.9,8.2-29,9.9-43.5,5.5
				c-3.5-1.1-4.8,4.2-1.5,5.4c16.2,5.8,34,4.7,48.9-4.2c8.3-4.9,16.9-13.2,21.5-22.7c1.8-2.1,3.3-4.3,4.6-6.8
				c5.8-11,6.2-24.2,4.2-36.5c-1.4-8.8-4.1-17.7-9.8-24.6c-5.6-6.9-14.7-11.6-23.5-10.1c-3.1,0.5-6.2,1.9-8.4,4.2
				c-7.6,8.1-0.7,22-5,32.2c-3.9,9.2-16.3,12.4-25.6,8.9c-9.4-3.5-16.1-11.7-21.4-20.2s-9.6-17.7-16.5-25
				c-9.8-10.5-24.6-16.1-38.9-14.8c4.3,2.7,30.5,38.2,38,55.1c-14.7-11.2-28.3-23.9-43.6-34.4c-2.5-1.7-4.7,2.3-2.3,4
				c17.7,12.6,33.1,28.3,50.8,41C804.6,358.8,818.6,374.2,837.1,381z"/>
			<path class="st1" d="M804.4,148c-10-7.2-31.8-18.9-41-5c-2.5,3.8-4.5,8.4-3.8,12.9c0.8,4.9,4.5,8.8,8.7,11.5
				c4.1,2.7,8.8,4.6,12.9,7.4c2.9,2,5.6,4.6,8.3,7.1c-5.2-1.5-10.2-3.5-15.3-6.6c-8.4-5.1-16.5-10.4-26.6-10.6
				c-3.5-0.1-3.4,5.2,0,5.4c12,0.6,20.5,9.8,30.5,15.3c7.4,4.1,16.1,6.9,24.6,6.8c1.5,0.7,3.1,1.2,4.8,1.4c2.1,0.3,4.5,0.2,6.2-1.1
				c1.6-1.2,2.3-3.3,2.9-5.2c2.1-6.9,3.2-14.3,1.4-21.2C816,158.7,810.7,152.5,804.4,148z"/>
			<path class="st1" d="M839.5,244.2c1.7,3.8,4.3,7.4,8,9.1c6.1,2.8,13.6,0,18-5s6.1-11.9,7.1-18.5c0.6-4.4,0.9-9.1-0.9-13.1
				c-1.5-3.3-4.3-5.8-6.4-8.7c-4.1-5.4-3.6-13.5-7.6-18.1c-6.7,5.7-12.3,14-16.1,22c-1.2,2.6-2.3,5.3-3,8.1
				c-1.6-9-0.1-18.7,2.5-27.1c0.2-0.6-0.7-0.9-1-0.4c-6.2,10.5-9.8,28.4-3.1,39.9C837.1,236.4,837.9,240.4,839.5,244.2z"/>
			<path class="st1" d="M776.1,485.3c2.3,8,0.3,16.4-0.2,24.7c-0.5,7.9,0.9,16.8,7.1,21.8c7.7,6.3,19.2,3.9,28.7,0.8
				c4.3-1.4,9.1-3.2,11.2-7.2c1.8-3.4,1.3-7.5,0.4-11.2c-3.5-15.6-12.2-29.9-24.3-40.3c-9.5-8.1-20.8-13.7-30.4-21.7
				c-7.5-6.3-10.8-14.6-16.3-21.6c-7.6,5.2,0.4,21.6,4.3,27.4C762.9,467.3,773,474.4,776.1,485.3z"/>
			<path class="st1" d="M963.7,672.6c3.8-9-1.2-19.9-9.2-25.5s-18.3-6.9-28.1-7c-20.3-0.1-40.6,4.4-58.8,13.3
				c-31.2,15.1-52.4,33.4-88.7,32.2c-11.5-0.4-21.9,1.8-6.2,10.2c15.1,8,33.6,5.7,49.1,0.3c14.3-5,27.4-12.8,41.1-19.2
				c9-4.2,18.5-7.8,28.4-7.3c13.3,0.7,24.9,8.8,37.6,13C941.4,686.6,958.5,684.8,963.7,672.6z"/>
			<path class="st1" d="M937,593c5.3,7,13.8,11.9,22.6,11.3c19-1.1,31.5-25.6,50.4-24c7,0.6,13,4.8,19.2,8.2
				c9.5,5.3,19.9,9,30.7,10.9c14.4,2.5,30.9,1,41-9.6c5.1-5.4,7.7-14.7,2.5-20c-2.1-2.2-5.2-3.3-8.1-4.1
				c-20.2-6.1-41.7-7.7-62.6-4.7c-17.6,2.5-34.8,8.3-52.6,8.4c-5.8,0.1-12.3-0.8-16.2-5.1c-5.8-6.4-2.9-16.9,2.9-23.2
				c7.6-8.2,39.8-22.4,21.6-35.7c-14.7-10.8-36.5,2.9-46.1,14.3c-11.1,13.3-15.6,31.5-13.9,48.7C929.2,577.2,931.7,586,937,593z"/>
			<path class="st1" d="M1008.2,782.8c-12.8,2.4-18.4,19.2-31,22.6c-10.9,2.9-20.3-6-30.2-9c-11.5-3.5-23.7-6.4-35.5-8.8
				c-3.9-0.8-8-1.4-11.7-0.1c-8,2.8-10.3,12.9-10.8,21.4c-0.2,2.9-0.2,6,1.1,8.7c2.8,5.4,10,6.5,16.1,6.1
				c13.8-0.8,27.4-5.5,41.2-4.7c12.6,0.8,24.4,6.1,36.8,8.3c9.9,1.8,20.5,1.5,29.5-3.1c8.9-4.6,15.7-14.2,15-24.2
				S1018.1,780.9,1008.2,782.8z"/>
			<path class="st1" d="M1124.3,680c9.6-1.8,29.1-1.7,35.1-10.4c-5.4-7.3-44.3-0.1-53.6,1.2c-19.9,2.8-40.8,11.5-49.9,29.4
				c-2.5,4.8-4,10.3-3.3,15.7c1.6,12.4,13.9,20.4,25.6,24.9c4.1,1.6,8.9,2.8,12.6,0.4c2.1-1.4,3.4-3.8,4.1-6.3
				c3.2-11.3-3.2-23.7,0.3-35C1098.9,688.2,1112.2,682.3,1124.3,680z"/>
			<path class="st1" d="M917.9,434.7c12.6-1,24.4-7.4,33-16.6c8.6-9.2,14-21.1,16.5-33.4c1-5.1,3.4-10.9,3.8-15.9
				c0.6-6.5-1.3-5.3-6.8-1.1c-8.3,6.4-14.8,15.1-18.4,25c-2,5.7-3.3,12-7.7,16.1c-8,7.5-22.8,4.6-29.4,13.4c-2,2.8-2.8,6.8-0.7,9.6
				C910.4,434.6,914.4,435,917.9,434.7z"/>
			<path class="st1" d="M1116.2,455.8c-8.2-1-16.7-2.3-24.7-4.8c-4.8-2.1-7.9-6.1-10.8-11.1c-2.7-4.5-5.1-10.3-9.9-13
				c-9.2-5.1-17.1,5.1-13.5,13.7c3.7,9.1,16.5,15,25.1,18.3c0.7,0.3,1.5,0.6,2.3,0.8c3,1.7,6.4,2.7,10,2.7c0.3,0,0.6,0,0.9-0.1
				c7.1,1,14.4,0.5,21.3-1.9C1119.5,459.6,1118.8,456.2,1116.2,455.8z"/>
			<path class="st1" d="M1117.3,447c-6.4-3.3-13.1-5.6-19.9-8.1c-3.4-1.3-4.7,4-1.5,5.4c6.4,2.6,12.7,5.4,19.5,7.3
				C1118,452.3,1119.9,448.3,1117.3,447z"/>
			<path class="st1" d="M926.9,604.3c15.1,8.9,33.3,11,50.1,6.2c4.1-1.2,2.4-7.5-1.8-6.4c-16,4.2-31.7,3.1-47-3
				C926.4,600.4,925.2,603.4,926.9,604.3z"/>
			<path class="st1" d="M1004.7,596.9c-3.2,1.2-6.3,2.4-9.4,4c-2.8,1.4-0.3,5.7,2.5,4.2c2.9-1.5,5.6-3,8.3-4.8
				C1007.8,599.2,1006.8,596.2,1004.7,596.9z"/>
			<path class="st1" d="M798.2,672.5c3.4-1,1.9-5.7-1.4-5.2c-13.6,1.9-26.3,0.4-38-7.1c-2.5-1.6-4.7,2.3-2.3,4
				C768.4,672.7,783.9,676.8,798.2,672.5z"/>
			<path class="st1" d="M799.3,663.7c6.1-1.1,12.2-2.2,18.3-3.2c3.7-0.7,2.2-6.4-1.6-5.7c-6.1,1.2-12.2,2.3-18.2,3.5
				C794.1,658.9,795.7,664.3,799.3,663.7z"/>
			<path class="st1" d="M1127.5,691.5c10.2-3.4,21.4-2,31.4-5.8c2.9-1.1,2.8-6.3-0.8-5.9c-12.4,1.3-27.6,1.2-38.5,8
				c-11.1,6.9-14.6,20.2-15.7,32.5c-0.3,2.9,4.5,3.5,5.1,0.7C1111.4,708.7,1114,696,1127.5,691.5z"/>
			<path class="st1" d="M1152.6,699.1c6.4-1.7,12.8-2.5,19.5-3c5-0.3,5.1-7.9,0-7.8c-7.2,0.2-14.5,1.7-21.4,3.7
				C1146.2,693.4,1148,700.3,1152.6,699.1z"/>
			<path class="st1" d="M903.5,835.1c2-0.7,2.5-4.1,0-4.6c-7.3-1.2-14.1-2.2-19.5-7.8c-6.8-7-7.2-17.6-2.5-25.8
				c1.3-2.3-2.2-4.4-3.6-2.1c-5.4,9.2-5.9,20.9,0.2,29.9C883.5,832.6,894.2,838.3,903.5,835.1z"/>
			<path class="st1" d="M921.2,837.7c-8.9,0.8-17.8,2.1-26.7,3.3c-3.5,0.5-2.7,6.5,0.8,6.1c8.9-1,17.8-1.9,26.7-3.3
				C925.5,843.3,924.8,837.4,921.2,837.7z"/>
			<path class="st1" d="M836.4,237c-5.9-7.5-9.8-15.8-11.2-25.2c-0.3-2-3.8-1.6-3.6,0.5c1.2,10.3,5,19.8,12,27.5
				C835.4,241.6,837.9,238.9,836.4,237z"/>
			<path class="st1" d="M826.6,165.7c-1.9-5.8-4.5-11.3-7.2-16.7c-1.9-3.7-7.4-0.4-5.6,3.3c2.5,5,4.5,10,6.5,15.2
				C821.8,171.3,828,169.8,826.6,165.7z"/>
			<path class="st1" d="M971.6,264.4c8.1,4.4,19.8,4.8,27.2-0.9c7.9-6,12.6-18,14.2-27.4c1.6-9.7-0.4-19.9-7.5-27
				c-4.6-4.6-17.3-11.4-22.2-3.6c-3.9,6,1.9,12.5,5.7,18.4c0,0.4,0,0.8-0.1,1.2c-0.3,3.7-2.4,9.6-6,12.3c-7.6-1.5-16.3-1.9-19.8,6.5
				C959.7,251.9,964.5,260.5,971.6,264.4z"/>
			<path class="st1" d="M980.5,214.7c-0.2-4.6-1-9-1.8-13.6c-0.3-1.8-3.4-1.4-3.2,0.4c0.4,4.6,0.8,9.1,1.8,13.6
				C977.7,216.9,980.6,216.5,980.5,214.7z"/>
			<path class="st1" d="M1022.3,249.5c2.5-4.3,4-8.8,5.2-13.6c0.6-2.4-3.1-3.5-3.8-1c-1.1,4.4-2.9,8.6-4.7,12.7
				C1018,249.7,1021.1,251.6,1022.3,249.5z"/>
			<path class="st1" d="M884.9,439.5c10.5,1.1,20.8,5.3,31.4,4.5c8.7-0.6,14.6-5.1,20.7-11c1.4-1.4-0.4-3.7-2.1-2.8
				c-8.1,4.4-14.5,9-24.2,8.8c-8.7-0.2-17.1-2.6-25.8-3C882.7,435.9,882.8,439.2,884.9,439.5z"/>
			<path class="st1" d="M760.2,497.3c0.4,1.8,3.1,1.3,3.1-0.4c0.6-13-7.1-24.7-17-32.4c-1.8-1.4-4.4,1.1-2.6,2.6
				C753.3,474.9,757.4,485.5,760.2,497.3z"/>
		</g>
		<g>
			<g>
				<path class="st2" d="M1257.3,583.1c-1.4-2.7-2.9-5.2-4.3-7.6c-3.4-5.9-7.7-13.3-7.1-16.5c0.3-1.5,2-4.6,3.5-7.4
					c1.4-2.4,2.9-5.2,4.3-8.3c10.4-22.8,8.3-50.8-5.9-77c-6.6-12.2-16.3-25.9-29-40.9c-4.2-4.9-6.3-11.3-5.9-18
					c1.1-20.5,0.6-47-12.5-70.9c-11.6-21.1-30.3-35.2-46.9-47.6c-1.7-1.3-3.5-2.6-5.2-3.9c-5.4-4.1-7.2-6.2-7.8-7.1
					c0.1-1.1,0.5-3.1,0.8-4.6c0.3-1.4,0.6-2.8,0.8-4.2c5-27.9-5.5-57.9-26.8-76.5c-13.6-11.9-29.7-18-44-23.5
					c-5.2-2-10.2-3.9-14.9-6c-3.1-1.4-4.5-2.3-5.1-2.7c-0.3-0.9-0.6-2.5-0.9-3.8c-0.4-1.9-0.9-4-1.5-6.2
					c-9.2-32.1-41.1-47.5-66.2-54.8c-20.4-5.9-41.5-9.5-62.7-10.6c0,0,0,0,0-0.1c-0.4-0.6-0.9-1.3-1.3-1.9
					c-16.1-23.1-44.5-36-72.5-33c-9.8,1.1-18.7,3.9-26.5,6.5c-6,1.9-11.6,3.7-16.7,4.5c-6.4,0.9-14,0.8-20.4-0.4
					c-32.9-6-66.3,8.9-83.1,37.1c-6.7,11.2-10.2,20.5-10.5,21.6l-1.3,3.6v579.4c0.1,28.5,14.5,56.1,36.5,70.3
					c23,14.8,52.7,17.1,77.7,5.9c1.3-0.6,2.6-1.2,3.9-1.8c0.3-0.1,0.5-0.3,0.8-0.4c-0.1,0.5-0.2,1.1-0.3,1.6
					c-5.9,36.7,10.5,75.9,40.6,97.6c17.1,12.3,38.2,18.6,59.2,18.6c16,0,32-3.7,46.3-11.1c0.9-0.5,1.8-1,2.7-1.4
					c1.5-0.8,3.5-1.9,4.3-2.2c1.6-0.1,6.5,1.6,9.7,2.7c2.9,1,6.3,2.2,9.9,3.1c27.5,7.3,57.9-2.7,75.8-24.8c2.2-2.7,4.1-5.4,5.7-7.8
					c2.1-3,4-5.8,5.5-7.1c4-3.3,13.7-2.7,24-2c11.6,0.8,24.8,1.7,38.1-2.3c22.3-6.7,35.1-26,46.5-43c7.3-10.9,15.5-23.3,22.7-25.4
					c31.5-9.2,52.4-42.9,46.4-75.2c-0.6-3.2-1.4-6.2-2.1-8.8c-0.6-2.3-1.5-5.6-1.5-7c0.7-1.5,4-4.9,6.2-7.1c3-3.1,6.4-6.6,9.4-10.8
					C1268.4,647,1275.2,616.9,1257.3,583.1z M1039.2,378.7c8.9-2,20.5,0.9,37.1,5.6c20,5.7,42.7,12.1,66.1,4.9
					c5.8-1.8,11.2-4.3,15.9-6.5c3-1.4,7.6-3.5,10.6-4.4c1,7.5,1.2,16.2,0.7,26.8c-0.7,13.7,2.5,27.1,9.3,38.7
					c-0.4,1.4-0.7,2.7-0.9,4.1c-16.7,15.8-38.7,25.6-61.1,27.1c-24.2,1.7-49.2-6.7-66.9-22.3c-7-6.1-11.8-12.4-14.5-18.7
					C1029,418.8,1033,399.3,1039.2,378.7z M737.2,120c7.6-12.7,22.8-19.4,37.9-16.6c10.9,2,23.4,2.2,34.4,0.7
					c8.8-1.3,16.8-3.9,23.9-6.1c6.4-2.1,12.5-4,17.8-4.6c5.1-0.6,10.5,0.2,15.5,2.1c0.1,0.1,0.1,0.1,0.1,0.2
					c25.3,25.6,37.9,63.6,33,99.2c-1.7,11.9,6.7,22.9,18.6,24.6c1,0.1,2,0.2,3,0.2c10.7,0,20.1-7.9,21.6-18.8
					c3.3-23.5,0.9-47.8-6.3-70.5c11.5,1.5,23,3.9,34.1,7.2c11.9,3.4,32.5,11.3,36.4,24.9c0.3,0.9,0.5,2.2,0.8,3.5
					c1,4.6,2.4,10.8,6.1,17.1c6.4,10.7,16.5,16.3,24.7,19.9c5.8,2.6,11.5,4.8,17.1,6.9c1,0.4,1.9,0.7,2.9,1.1
					c-8,6-15.6,13.2-21.7,22.1c-3.7,5.4-6.5,10.9-9,15.7c-2.1,4.1-4.1,8-6.2,11c-4.4,6.3-11.4,12-20.8,16.9
					c-7.2,3.7-10.1,3.6-10.8,3.5c-4.5-0.8-11.6-12.2-13.9-16c-6.4-10.2-19.8-13.4-30-7c-10.2,6.4-13.4,19.8-7,30
					c6.9,11.1,19.8,31.9,43.6,36c2.7,0.5,5.4,0.7,8,0.7c12.3,0,22.9-4.7,30.2-8.5c15.7-8.1,28-18.4,36.5-30.6
					c3.8-5.5,6.7-11.1,9.3-16.1c2.1-4,4-7.9,6.1-10.9c5.3-7.7,14.1-14,23.3-19.5c3.3,7.2,4.5,15.3,3.1,22.9c-0.2,1-0.4,2-0.6,3
					c-1,4.9-2.5,11.7-1.5,19.5c2.5,19.1,17.5,30.5,24.8,36c1.8,1.3,3.6,2.7,5.4,4c7.1,5.3,14.1,10.5,20.1,16
					c-2.7,1.1-5.3,2.3-7.7,3.5c-3.8,1.8-7.4,3.4-10.3,4.3c-11.1,3.4-25.8-0.8-41.4-5.2c-23.2-6.6-49.5-14-75.3,0.1
					c-20.5,11.2-29.9,30.7-38.2,47.9c-2.6,5.5-5.1,10.6-7.8,15.2c-13.3,22.7-38.9,38.3-65.1,39.9c-26.2,1.6-53.5-11-69.4-31.9
					c-5.8-7.7-10.6-16.7-15.6-26.4c-6-11.4-12.2-23.3-21-34.3c-8.2-10.4-14.7-18.6-26.9-23.1c-9.2-3.5-19-4-37.4-4.6V208.7
					c21.4,2.9,41.9,16.6,51.4,35.8c3.8,7.7,11.5,12.1,19.5,12.1c3.3,0,6.6-0.7,9.7-2.3c10.8-5.4,15.2-18.4,9.8-29.2
					c-16.9-34-52.8-57.1-90.4-60.2v-33.9C732.7,128.3,734.6,124.4,737.2,120z M1220.8,638.1c-1.3,1.8-3.4,3.9-5.6,6.2
					c-6.4,6.6-15.2,15.7-17.7,29.5c-1.9,10.4,0.5,19.5,2.3,26.2c0.5,2,1,3.9,1.3,5.5c1.9,10.2-5.8,22.6-15.7,25.5
					c-22.5,6.6-35.4,26-46.8,43.1c-7.2,10.9-15.4,23.2-22.7,25.4c-5.7,1.7-13.9,1.2-22.6,0.6c-16.6-1.1-37.3-2.5-54.7,11.9
					c-6.2,5.1-10.3,11.1-13.6,15.9c-1.3,1.9-2.6,3.7-3.7,5.1c-7,8.7-20,12.9-30.7,10c-1.9-0.5-4.2-1.3-6.6-2.2
					c-8.6-3-20.3-7.1-33.7-4c-6.4,1.5-11.4,4.2-15.5,6.4c-0.7,0.4-1.4,0.7-2,1.1c-18.4,9.6-43,7.9-59.8-4.3
					c-16.8-12.1-26.3-34.9-23-55.3l0.3-2.1c1.6-9.6,4.4-26.6-5.8-39.9c1.5-2.2,3.2-4.1,4.9-5.4c3-2.1,7.8-3.6,12.1-4.7
					c6.2-1.6,15.3-3.6,22.8-2.3c4.8,0.8,9,3.2,10.4,5.9c5.7,10.6,18.9,14.7,29.5,9c10.6-5.7,14.7-18.9,9-29.5
					c-7.8-14.7-23.4-25.4-41.6-28.5c-15.8-2.7-31,0.4-41.1,3.1c-8.2,2.1-17.7,5.1-26.5,11.4c-11.6,8.3-18.5,19.8-23.4,29.9
					c-4.9,1.6-9.3,3.7-12.8,5.3c-1.1,0.5-2.3,1-3.3,1.5c-11.5,5.1-25.7,4.1-36.2-2.7c-9.7-6.2-16.5-20.1-16.6-33.8V368.7
					c10.6,0.3,19.8,0.8,22,1.7c1.3,0.8,4.9,5.4,8.1,9.4c6.2,7.9,11.2,17.4,16.6,27.5c5.7,10.8,11.5,21.9,19.5,32.5
					c12.7,16.7,29.7,29.8,48.7,38.3c6.6,15,10.2,33.1,11,54.2c0.5,16.3-1.1,27.2-5.5,35.3c-7.3,13.7-25.5,22.3-43.3,20.4
					c-9.5-1-17.4-5-20.1-10.1c-0.9-1.7-0.5-4.9,0.3-6.1c11.1-3.7,17.3-15.6,13.9-26.9c-3.4-11.5-15.6-18.1-27.1-14.7
					c-12.1,3.6-22,12.8-27.3,25.2c-5.8,13.9-5.2,29.9,1.6,42.9c9.6,18.1,29.8,30.5,54,33.1c3.2,0.3,6.3,0.5,9.5,0.5
					c32.1,0,62.9-17.2,77-43.9c10.3-19.5,11-40.8,10.5-57.2c-0.5-14.9-2.3-28.9-5.3-41.8c0.6,0,1.1,0,1.7,0c2.4,0,4.7-0.1,7.1-0.2
					c34.2-2,66.5-18.7,88.4-44.7c0.7,2.3,1.6,4.5,2.5,6.8c5.3,12.4,14,24,25.9,34.5c24.4,21.4,56.6,33.3,89.4,33.3
					c3.1,0,6.2-0.1,9.3-0.3c31.6-2.2,62.6-15.7,86.3-37.4c1.2,2,2.4,4,3.4,5.8c7.5,13.8,9.2,28.1,4.6,38.2c-0.7,1.5-1.7,3.3-2.8,5.2
					c-3,5.4-6.8,12.2-8.3,20.8c0,0.2,0,0.3-0.1,0.5c-0.1,0.2-0.2,0.5-0.3,0.7c-3.8,10.8-16.9,30.3-62.1,40.2
					c-17.2,3.8-34.7,5.9-53.2,8.2c-4.9,0.6-9.8,1.2-14.7,1.8c-31.7,4.1-66.9,12.2-86.8,41c-13.1,19-16.3,44.2-8.4,65.8
					c7.9,21.6,26.7,38.8,49,44.8c1.9,0.5,3.8,0.8,5.7,0.8c9.6,0,18.4-6.4,21-16.1c3.1-11.6-3.8-23.6-15.4-26.7
					c-8.7-2.3-16.3-9.3-19.4-17.7c-3.1-8.4-1.8-18.7,3.3-26c5.7-8.3,16.9-17.5,56.5-22.6c4.8-0.6,9.6-1.2,14.4-1.8
					c18.7-2.3,38-4.6,57.2-8.8c28.6-6.3,52-17.2,68.7-31.9c0,0.1,0.1,0.2,0.1,0.2C1226.7,618.4,1225.4,631.9,1220.8,638.1z"/>
				<path class="st3" d="M841.5,475.9c10-10.5,20.5-23.9,34.7-22.2c11.6,1.5,19.1,12.8,23.2,23.7c1.4,3.8,2.7,7.7,4.1,11.5
					c0.3,0,0.6,0,0.8,0c20-1.2,39.4-7.4,56.4-17.6c-0.8-2.5-1.6-5.1-2.4-7.6c-4-13-6-26.6-6.1-40.3c-13.8,12.7-32,20.8-50.5,21.9
					c-26.2,1.6-53.5-11-69.4-31.9c-1.5-2-2.9-4-4.3-6.2c-7.9,4.1-14.7,10.3-19.1,18c-3.7,6.4-5.7,13.8-5.9,21.2
					C813.8,458.7,827,468.7,841.5,475.9z"/>
				<path class="st3" d="M1233.3,647.2c-8.4,3-17.4,3.7-26,5.9c-4.3,5.4-8.2,12.1-9.8,20.6c-1.9,10.4,0.5,19.5,2.3,26.2
					c0.4,1.7,0.9,3.3,1.2,4.6c1.4,1.5,2.7,3,3.8,4.5c14,18.6,8,47.7-9.8,62.6c-16.8,14.1-41,16.7-62.1,10.7
					c-5.7,8.1-11.6,15.4-17,17c-5.7,1.7-13.9,1.2-22.6,0.6c-16.6-1.1-37.3-2.5-54.7,11.9c-5.1,4.2-8.7,8.9-11.7,13.2
					c-1.3,7.3-1.7,14.7-1.2,22c0.7,9.9,0.7,23.2-8.9,25.6c-8.8,2.2-15.5-8-18.3-16.6c-1.4-4.2-3.1-8.9-5.5-12.6
					c-0.8-0.1-1.6-0.3-2.4-0.5c-1.9-0.5-4.2-1.3-6.6-2.2c-2.5-0.9-5.3-1.8-8.3-2.7c-3.9,2.5-6.7,7.3-7.5,12
					c-1.1,7.2,1.2,14.4,2.9,21.4c0.9,3.8,1.6,7.7,2,11.7c2,0.7,4.1,1.3,6.3,1.9c27.5,7.3,57.9-2.7,75.8-24.8
					c2.2-2.7,4.1-5.4,5.7-7.8c2.1-3,4-5.8,5.5-7.1c4-3.3,13.7-2.7,24-2c11.6,0.8,24.8,1.7,38.1-2.3c22.3-6.7,35.1-26,46.5-43
					c7.3-10.9,15.5-23.3,22.7-25.4c31.5-9.2,52.4-42.9,46.4-75.2c-0.6-3.2-1.4-6.2-2.1-8.8c-0.6-2.3-1.5-5.6-1.5-7
					c0.7-1.5,4-4.9,6.2-7.1c3-3.1,6.4-6.6,9.4-10.8c8-10.9,13.6-27.2,11.9-46.5C1258.7,630.3,1247.9,641.9,1233.3,647.2z"/>
				<path class="st3" d="M1216.1,450c8.1,3,18.4,3.9,22.2,11.6c3.7,7.4-1.1,16-4.7,23.4c-6.3,13-7.4,31.7,5.1,39
					c6,3.6,13.1,3.1,20.3,2.7c3.6-19.1-0.1-40.4-11-60.6c-6.6-12.2-16.3-25.9-29-40.9c-4.2-4.9-6.3-11.3-5.9-18
					c0.4-8.3,0.6-17.7-0.2-27.4c-8.2,9.1-16.2,18.1-18.8,29.9C1190.6,426,1200.5,444.2,1216.1,450z"/>
				<path class="st3" d="M774.9,103.1c0,0.1,0,0.2,0.1,0.3c0.1,0,0.1,0,0.2,0c10.9,2,23.4,2.2,34.4,0.7c2-0.3,4-0.7,5.9-1.1
					c-9.2-13.3-16.1-26.9-12.5-42.1c-6.3,0.9-13.7,0.7-20-0.4c-14.6-2.7-29.3-1.2-42.7,3.8C757.1,71,771.1,85.3,774.9,103.1z"/>
				<path class="st3" d="M1098.7,265c-1,4.9-2.3,11.3-1.3,18.6c2.5,19.1,17.5,30.5,24.8,36c1.8,1.3,3.6,2.7,5.4,4
					c7.1,5.3,14.1,10.5,20.1,16c-2.7,1.1-5.3,2.3-7.7,3.5c-3.8,1.8-7.4,3.4-10.3,4.3c-8.2,2.5-18.4,0.9-29.5-1.9
					c-0.2,0.7-0.5,1.3-0.7,2c-4.7,14.5,1.2,29.9,7.7,43.8c11.4,1.6,23.3,1.5,35.3-2.2c5.8-1.8,11.2-4.3,15.9-6.5
					c0.1,0,0.1-0.1,0.2-0.1c0.7-8.2-0.2-16.7-1.1-25c-1.6-13.5-3-27.8,2.9-40c2.8-5.8,7.1-10.5,12.4-13.9
					c-6.3-5.4-12.8-10.3-19-14.9c-1.7-1.3-3.5-2.6-5.2-3.9c-5.4-4.1-7.2-6.2-7.8-7.1c0.1-1.1,0.5-3.1,0.8-4.6
					c0.3-1.4,0.6-2.8,0.8-4.2c1.9-10.4,1.6-21.1-0.6-31.4c-4.7,4.8-10.4,8.8-16.1,12.2C1116.8,254.9,1107.2,259.3,1098.7,265z"/>
				<path class="st3" d="M977,139.3c11.8,4.1,27,11.5,30.3,23c0.3,0.9,0.5,2.2,0.8,3.5c1,4.6,2.4,10.8,6.1,17.1
					c3.9,6.5,9.2,11.1,14.5,14.5c7.9-7.1,14.4-15.9,18.7-25.6c1.6-3.7,3.2-7.8,6.2-10.3c-1-0.6-1.7-1-2-1.2
					c-0.3-0.9-0.6-2.5-0.9-3.8c-0.4-1.9-0.9-4-1.5-6.2c-9.2-32.1-41.1-47.5-66.2-54.8c-12.4-3.6-25.1-6.3-37.8-8.1
					c3.1,1,6.5,1.8,9.4,2.9C972.8,96.9,978.1,119.8,977,139.3z"/>
			</g>
			<g>
				<path class="st4" d="M710.7,119.2c-0.3-0.9-3.5-9.5-9.6-20c-16.8-29-50.8-44.5-84.4-38.6c-6.3,1.1-13.8,1.2-20,0.3
					c-5.1-0.7-10.7-2.5-16.7-4.5c-7.8-2.5-16.7-5.4-26.5-6.5c-28-3.1-56.4,9.9-72.5,33c-0.4,0.6-0.9,1.3-1.3,1.9c0,0,0,0,0,0.1
					c-21.2,1.1-42.3,4.7-62.7,10.6c-25.1,7.3-57,22.7-66.2,54.8c-0.6,2.3-1.1,4.4-1.5,6.2c-0.3,1.2-0.6,2.9-0.9,3.8
					c-0.6,0.4-2,1.3-5.1,2.7c-4.7,2.1-9.6,4-14.9,6c-14.2,5.4-30.3,11.6-44,23.5c-21.3,18.6-31.9,48.6-26.8,76.5
					c0.3,1.4,0.5,2.8,0.8,4.2c0.3,1.5,0.7,3.5,0.8,4.6c-0.6,1-2.4,3.1-7.8,7.1c-1.7,1.3-3.4,2.6-5.2,3.9
					c-16.5,12.4-35.3,26.5-46.9,47.6c-14.5,26.5-13.8,56.9-11.8,81.3c-15.9,18-27.9,34.3-35.6,48.6c-14.1,26.2-16.2,54.2-5.8,77
					c1.4,3.1,2.9,5.9,4.3,8.3c1.5,2.8,3.3,5.9,3.5,7.4c0.6,3.2-3.7,10.6-7.1,16.5c-1.4,2.5-2.9,5-4.3,7.6
					c-17.9,33.8-11,63.9,1.3,80.8c3.1,4.2,6.5,7.7,9.4,10.8c2.2,2.2,5.4,5.6,6.2,7.1c0,1.4-0.9,4.7-1.5,7c-0.7,2.6-1.5,5.6-2.1,8.8
					c-5.9,32.3,14.9,66,46.4,75.2c7.2,2.1,15.5,14.5,22.7,25.4c11.3,17,24.1,36.3,46.5,43c13.3,4,26.5,3.1,38.1,2.3
					c10.2-0.7,19.9-1.4,24,2c1.5,1.3,3.5,4.1,5.5,7.1c1.6,2.4,3.5,5.1,5.7,7.8c17.9,22.1,48.3,32,75.8,24.8c3.6-0.9,6.9-2.1,9.9-3.1
					c3.2-1.1,8-2.8,9.7-2.7c0.8,0.3,2.8,1.4,4.3,2.2c0.9,0.5,1.8,1,2.7,1.4c14.2,7.4,30.2,11.1,46.3,11.1c21,0,42.1-6.3,59.2-18.6
					c30.2-21.7,46.5-60.9,40.6-97.6c-0.1-0.5-0.2-1.1-0.3-1.6c0.3,0.1,0.6,0.3,0.8,0.4c1.3,0.6,2.7,1.2,3.9,1.8
					c24.9,11.2,54.7,8.9,77.7-5.9c22.1-14.2,36.4-41.8,36.5-70.3V122.8L710.7,119.2z M651.9,735.8c-6.8,4.4-15.2,6.4-23.4,5.9V622.2
					h-43.6v106.7c-8-0.3-16.4,1.7-24.2,8.4c-16,13.8-12.7,34.3-10.8,45.3l0.3,2.1c3.3,20.5-6.2,43.2-23,55.3
					c-16.8,12.1-41.4,13.9-59.8,4.3c-0.2-0.1-0.4-0.2-0.6-0.3v-86.5H515v-43.6h-91.7v124.7c-2.5,0.8-4.9,1.6-7.1,2.3
					c-2.4,0.8-4.7,1.6-6.6,2.2c-10.8,2.9-23.7-1.4-30.7-10c-1.1-1.4-2.4-3.2-3.7-5.1c-3.3-4.8-7.4-10.8-13.6-15.9
					c-17.4-14.5-38.1-13-54.7-11.9c-8.7,0.6-16.9,1.1-22.6-0.6c-7.2-2.2-15.4-14.5-22.7-25.4c-11.4-17.1-24.3-36.5-46.8-43.1
					c-10-2.9-17.6-15.3-15.7-25.5c0.3-1.5,0.8-3.4,1.3-5.5c1.8-6.7,4.2-15.8,2.3-26.2c-2.6-13.8-11.3-22.8-17.7-29.5
					c-2.2-2.3-4.3-4.4-5.6-6.2c-6.5-8.8-3.5-24.2,2.1-34.6c1-2,2.3-4.1,3.5-6.3c3.3-5.7,7.2-12.6,9.9-20.3h24.7v133.5h43.6V533.2
					h-72.7c-0.5-1-1.1-2-1.6-2.9c-1.1-1.9-2.1-3.7-2.8-5.2c-4.6-10.1-2.9-24.4,4.6-38.2c6-11.1,16.1-24.7,29.4-39.9h72.7v218.7h156
					v-43.6H336.1V403.4H230.4c-0.8-17.8,0.4-33.5,7.2-46c7.1-12.9,20.5-23,34.8-33.7c1.8-1.3,3.6-2.7,5.4-4
					c7.2-5.5,22.3-16.9,24.8-36c1-7.7-0.4-14.5-1.5-19.5c-0.2-1-0.4-2-0.6-3c-2.3-12.9,2.7-27.3,12.6-35.8
					c7.8-6.8,19-11.1,30.9-15.6c5.6-2.1,11.3-4.3,17.1-6.9c8.1-3.6,18.3-9.2,24.7-19.9c3.7-6.2,5.1-12.5,6.1-17.1
					c0.3-1.3,0.6-2.6,0.8-3.5c3.9-13.6,24.5-21.4,36.4-24.9c17.3-5,35.1-8,53-9l0.2,0c4.5-0.2,11.2-0.6,18.2-4.3
					c4.1-2.2,7.3-4.9,9.8-7.7v90.3H388.8v91.3h43.6v-47.7H554V94.2c4,0.9,8.2,2.3,12.6,3.7c7.1,2.3,15.1,4.9,23.9,6.1
					c10.9,1.6,22.8,1.4,33.7-0.5c16-2.8,31.4,4.1,39.2,17.6c2.3,3.9,3.9,7.4,5,9.8v314.6h-92.3v-75.6H436.3v43.6h96.2v32v21.8V515
					H422v43.6h154.2v-69.4h92.3V702C668.4,715.7,661.6,729.6,651.9,735.8z"/>
				<path class="st5" d="M710.7,119.2c-0.3-0.9-3.5-9.5-9.6-20c-4.6-7.9-10.5-14.8-17.2-20.5v687.4c17.2-15.2,28-39.2,28.1-63.9
					V122.8L710.7,119.2z"/>
				<rect x="467.9" y="369.9" class="st5" width="54.4" height="43.6"/>
				<rect x="422" y="515" class="st5" width="76.5" height="43.6"/>
				<path class="st5" d="M336.2,800.4c-10.2-1.8-20.4-1.1-29.4-0.5c-7.7,0.5-15,1-20.6-0.1c-7.9,12.4-13.7,26.2-16.8,40.5
					c0.7,0.3,1.5,0.5,2.2,0.8c13.3,4,26.5,3.1,38.1,2.3c6.6-0.5,13-0.9,17.8-0.2c1.5-11.3,2.9-22.7,5.8-33.8
					C334.1,806.5,335.1,803.4,336.2,800.4z"/>
				<g>
					<g>
						<path class="st2" d="M549.1,296.6c-6.4-12.8-19.5-21.5-34.8-21.5c-21.5,0-38.9,17.4-38.9,38.9c0,21.5,17.4,38.9,38.9,38.9
							c13.6,0,25.6-7,32.6-17.7l-32.6-21.2C514.3,313.9,538.3,302.2,549.1,296.6z"/>
					</g>
				</g>
				<g>
					<circle class="st6" cx="624" cy="162.5" r="17.2"/>
				</g>
				<g>
					<circle class="st7" cx="624" cy="239.7" r="17.2"/>
				</g>
				<g>
					<circle class="st8" cx="624" cy="391.7" r="17.2"/>
				</g>
				<g>
					<circle class="st9" cx="624" cy="302" r="17.2"/>
				</g>
				<g>
					<circle class="st2" cx="340" cy="693.1" r="17.2"/>
				</g>
				<g>
					<circle class="st8" cx="410.6" cy="693.1" r="17.2"/>
				</g>
				<g>
					<circle class="st6" cx="475.5" cy="693.1" r="17.2"/>
				</g>
				<g>
					<circle class="st9" cx="374.5" cy="572.3" r="17.2"/>
				</g>
				<g>
					<circle class="st6" cx="617.7" cy="534.6" r="17.2"/>
				</g>
				<g>
					<circle class="st6" cx="312.1" cy="357.2" r="17.2"/>
				</g>
			</g>
			<path class="st8" d="M901.6,307.7c-1.4-8.8-4.1-17.7-9.8-24.6c-5.6-6.9-14.7-11.6-23.5-10.1c-3.1,0.5-6.2,1.9-8.4,4.2
				c-7.6,8.1-0.7,22-5,32.2c-3.9,9.2-16.3,12.4-25.6,8.9c-9.4-3.5-16.1-11.7-21.4-20.2c-5.3-8.5-9.6-17.7-16.5-25
				c-9.8-10.5-24.6-16.1-38.9-14.8c4.3,2.7,30.5,38.2,38,55.1c-14.7-11.2-28.3-23.9-43.6-34.4c-2.5-1.7-4.7,2.3-2.3,4
				c17.7,12.6,33.1,28.3,50.8,41c9.1,17.6,23.2,33,41.6,39.8c10.6,3.9,22.6,4.2,33.4,1.1c-1,0.8-2,1.5-3.1,2.2
				c-12.9,8.2-29,9.9-43.5,5.5c-3.5-1.1-4.8,4.2-1.5,5.4c16.2,5.8,34,4.7,48.9-4.2c8.3-4.9,16.9-13.2,21.5-22.7
				c1.8-2.1,3.3-4.3,4.6-6.8C903.3,333.2,903.6,320,901.6,307.7z"/>
			<path class="st6" d="M818,148.9c-2-7.4-7.3-13.6-13.6-18.1c-10-7.2-31.8-18.9-41-5c-2.5,3.8-4.5,8.4-3.8,12.9
				c0.8,4.9,4.5,8.8,8.7,11.5c4.1,2.7,8.8,4.6,12.9,7.4c2.9,2,5.6,4.6,8.3,7.1c-5.2-1.5-10.2-3.5-15.3-6.6
				c-8.4-5.1-16.5-10.4-26.6-10.6c-3.5-0.1-3.4,5.2,0,5.4c12,0.6,20.5,9.8,30.5,15.3c7.4,4.1,16.1,6.9,24.6,6.8
				c1.5,0.7,3.1,1.2,4.8,1.4c2.1,0.3,4.5,0.2,6.2-1.1c1.6-1.2,2.3-3.3,2.9-5.2C818.7,163.2,819.9,155.8,818,148.9z"/>
			<path class="st7" d="M871.7,199.4c-1.5-3.3-4.3-5.8-6.4-8.7c-4.1-5.4-3.6-13.5-7.6-18.1c-6.7,5.7-12.3,14-16.1,22
				c-1.2,2.6-2.3,5.3-3,8.1c-1.6-9-0.1-18.7,2.5-27.1c0.2-0.6-0.7-0.9-1-0.4c-6.2,10.5-9.8,28.4-3.1,39.9c0.1,4.1,0.9,8.2,2.6,12
				c1.7,3.8,4.3,7.4,8,9.1c6.1,2.8,13.6,0,18-5s6.1-11.9,7.1-18.5C873.3,208.1,873.6,203.5,871.7,199.4z"/>
			<path class="st9" d="M768.6,435c9.6,8,20.9,13.6,30.4,21.7c12.1,10.4,20.8,24.7,24.3,40.3c0.8,3.7,1.4,7.9-0.4,11.2
				c-2.1,4-6.9,5.8-11.2,7.2c-9.5,3.1-20.9,5.5-28.7-0.8c-6.1-5-7.5-13.9-7.1-21.8c0.5-8.3,2.5-16.7,0.2-24.7
				c-3.1-10.8-13.2-18-19.5-27.3c-3.9-5.8-11.9-22.2-4.3-27.4C757.8,420.4,761.1,428.7,768.6,435z"/>
			<path class="st7" d="M821.7,678.7c14.3-5,27.4-12.8,41.1-19.2c9-4.2,18.5-7.8,28.4-7.3c13.3,0.7,24.9,8.8,37.6,13
				s29.8,2.5,34.9-9.8c3.8-9-1.2-19.9-9.2-25.5c-8-5.6-18.3-6.9-28.1-7c-20.3-0.2-40.6,4.4-58.8,13.3
				c-31.2,15.1-52.4,33.4-88.7,32.2c-11.5-0.4-21.9,1.8-6.2,10.2C787.7,686.5,806.2,684.2,821.7,678.7z"/>
			<path class="st9" d="M942.3,502.6c-11.1,13.3-15.6,31.5-13.9,48.7c0.9,8.7,3.3,17.5,8.6,24.5c5.3,7,13.8,11.9,22.6,11.3
				c19-1.1,31.5-25.6,50.4-24c7,0.6,13,4.8,19.2,8.2c9.5,5.3,19.9,9,30.7,10.9c14.4,2.5,30.9,1,41-9.6c5.1-5.4,7.7-14.7,2.5-20
				c-2.1-2.2-5.2-3.3-8.1-4.1c-20.2-6.1-41.7-7.7-62.6-4.7c-17.6,2.5-34.8,8.3-52.6,8.4c-5.8,0.1-12.3-0.8-16.2-5.1
				c-5.8-6.4-2.9-16.9,2.9-23.2c7.6-8.2,39.8-22.4,21.6-35.7C973.6,477.5,951.8,491.1,942.3,502.6z"/>
			<path class="st8" d="M911.6,770.4c-3.9-0.8-8-1.4-11.7-0.1c-8,2.8-10.3,12.9-10.8,21.4c-0.2,2.9-0.2,6,1.1,8.7
				c2.8,5.4,10,6.5,16.1,6.1c13.8-0.8,27.4-5.5,41.2-4.7c12.6,0.8,24.4,6.1,36.8,8.3c9.9,1.8,20.5,1.5,29.5-3.1
				c8.9-4.6,15.7-14.2,15-24.2c-0.8-10-10.6-19.1-20.5-17.2c-12.8,2.4-18.4,19.2-31,22.6c-10.9,2.9-20.3-6-30.2-9
				C935.5,775.6,923.4,772.7,911.6,770.4z"/>
			<path class="st6" d="M1105.8,653.6c-19.9,2.8-40.8,11.5-49.9,29.4c-2.5,4.8-4,10.3-3.3,15.7c1.6,12.4,13.9,20.4,25.6,24.9
				c4.1,1.6,8.9,2.8,12.6,0.4c2.1-1.4,3.4-3.8,4.1-6.3c3.2-11.3-3.2-23.7,0.3-35c3.7-11.8,16.9-17.7,29.1-20
				c9.6-1.8,29.1-1.7,35.1-10.4C1154,645.1,1115.2,652.3,1105.8,653.6z"/>
			<path class="st7" d="M946.1,375.5c-2,5.7-3.3,12-7.7,16.1c-8,7.5-22.8,4.6-29.4,13.4c-2,2.8-2.8,6.8-0.7,9.6
				c2.1,2.8,6.1,3.2,9.6,2.9c12.6-1,24.4-7.4,33-16.6s14-21.1,16.5-33.4c1-5.1,3.4-10.9,3.8-15.9c0.6-6.5-1.3-5.3-6.8-1.1
				C956.2,356.8,949.7,365.6,946.1,375.5z"/>
			<path class="st7" d="M1116.2,438.6c-8.2-1-16.7-2.3-24.7-4.8c-4.8-2.1-7.9-6.1-10.8-11.1c-2.7-4.5-5.1-10.3-9.9-13
				c-9.2-5.1-17.1,5.1-13.5,13.7c3.7,9.1,16.5,15,25.1,18.3c0.7,0.3,1.5,0.6,2.3,0.8c3,1.7,6.4,2.7,10,2.7c0.3,0,0.6,0,0.9-0.1
				c7.1,1,14.4,0.5,21.3-1.9C1119.5,442.4,1118.8,439,1116.2,438.6z"/>
			<path class="st7" d="M1117.3,429.8c-6.4-3.3-13.1-5.6-19.9-8.1c-3.4-1.3-4.7,4-1.5,5.4c6.4,2.6,12.7,5.4,19.5,7.3
				C1118,435,1119.9,431.1,1117.3,429.8z"/>
			<path class="st9" d="M975.3,586.9c-16,4.2-31.7,3.1-47-3c-1.9-0.8-3,2.2-1.4,3.2c15.1,8.9,33.3,11,50.1,6.2
				C981.1,592.1,979.4,585.8,975.3,586.9z"/>
			<path class="st9" d="M1004.7,579.7c-3.2,1.2-6.3,2.4-9.4,4c-2.8,1.4-0.3,5.7,2.5,4.2c2.9-1.5,5.6-3,8.3-4.8
				C1007.8,582,1006.8,579,1004.7,579.7z"/>
			<path class="st7" d="M796.8,650.1c-13.6,1.9-26.3,0.4-38-7.1c-2.5-1.6-4.7,2.3-2.3,4c11.9,8.6,27.4,12.6,41.7,8.4
				C801.7,654.3,800.1,649.6,796.8,650.1z"/>
			<path class="st7" d="M816,637.5c-6.1,1.2-12.2,2.3-18.2,3.5c-3.6,0.7-2.1,6.1,1.5,5.5c6.1-1.1,12.2-2.2,18.3-3.2
				C821.3,642.6,819.7,636.8,816,637.5z"/>
			<path class="st6" d="M1158.1,662.6c-12.4,1.3-27.6,1.2-38.5,8c-11.1,6.9-14.6,20.2-15.7,32.5c-0.3,2.9,4.5,3.5,5.1,0.7
				c2.5-12.3,5.1-25,18.6-29.5c10.2-3.4,21.3-2,31.4-5.8C1161.8,667.3,1161.7,662.2,1158.1,662.6z"/>
			<path class="st6" d="M1172,671.1c-7.2,0.2-14.5,1.7-21.4,3.7c-4.5,1.3-2.6,8.2,1.9,7c6.4-1.7,12.8-2.5,19.5-3
				C1177,678.6,1177.1,671,1172,671.1z"/>
			<path class="st8" d="M903.5,813.3c-7.3-1.2-14.1-2.2-19.5-7.8c-6.8-7-7.2-17.6-2.5-25.8c1.3-2.3-2.2-4.4-3.6-2.1
				c-5.4,9.2-5.9,20.9,0.2,29.9c5.3,7.8,16,13.4,25.4,10.3C905.5,817.2,906,813.8,903.5,813.3z"/>
			<path class="st8" d="M921.2,820.5c-8.9,0.8-17.8,2.1-26.7,3.3c-3.5,0.5-2.7,6.5,0.8,6.1c8.9-1,17.8-1.9,26.7-3.3
				C925.5,826.1,924.8,820.2,921.2,820.5z"/>
			<path class="st7" d="M836.4,219.7c-5.9-7.5-9.8-15.8-11.2-25.2c-0.3-2-3.8-1.6-3.6,0.5c1.2,10.3,5,19.8,12,27.5
				C835.4,224.4,837.9,221.7,836.4,219.7z"/>
			<path class="st6" d="M826.6,148.5c-1.9-5.8-4.5-11.3-7.2-16.7c-1.9-3.7-7.4-0.4-5.6,3.3c2.5,5,4.5,10,6.5,15.2
				C821.8,154.1,828,152.5,826.6,148.5z"/>
			<path class="st6" d="M1005.6,191.9c-4.6-4.6-17.3-11.4-22.2-3.6c-3.9,6,1.9,12.5,5.7,18.4c0,0.4,0,0.8-0.1,1.2
				c-0.3,3.7-2.4,9.6-6,12.3c-7.6-1.5-16.3-1.9-19.8,6.5c-3.4,8,1.4,16.6,8.5,20.5c8.1,4.4,19.8,4.8,27.2-0.9
				c7.9-6,12.6-18,14.2-27.4C1014.7,209.2,1012.7,199,1005.6,191.9z"/>
			<path class="st6" d="M978.7,183.9c-0.3-1.8-3.4-1.4-3.2,0.4c0.4,4.6,0.8,9.1,1.8,13.6c0.4,1.7,3.2,1.4,3.1-0.4
				C980.3,192.9,979.5,188.5,978.7,183.9z"/>
			<path class="st6" d="M1023.7,217.6c-1.1,4.4-2.9,8.6-4.7,12.7c-1,2.2,2.1,4.1,3.3,1.9c2.5-4.3,4-8.8,5.2-13.6
				C1028.1,216.2,1024.4,215.2,1023.7,217.6z"/>
			<path class="st7" d="M934.9,413c-8.1,4.4-14.5,9-24.2,8.8c-8.7-0.2-17.1-2.6-25.8-3c-2.2-0.1-2.2,3.2,0,3.4
				c10.5,1.1,20.8,5.3,31.4,4.5c8.7-0.6,14.6-5.1,20.7-11C938.5,414.3,936.7,412.1,934.9,413z"/>
			<path class="st9" d="M746.3,447.2c-1.8-1.4-4.4,1.1-2.6,2.6c9.5,7.9,13.7,18.5,16.5,30.3c0.4,1.8,3.1,1.3,3.1-0.4
				C763.9,466.7,756.3,455,746.3,447.2z"/>
		</g>
	</g>
</g>
</svg>
