<svg xmlns="http://www.w3.org/2000/svg" xmlns:xlink="http://www.w3.org/1999/xlink" viewBox="0 0 1400 980"><defs><style>.cls-1{fill:url(#linear-gradient);}.cls-116,.cls-117,.cls-118,.cls-119,.cls-120,.cls-121,.cls-2,.cls-3,.cls-56,.cls-57,.cls-58,.cls-59,.cls-60,.cls-61{opacity:0.71;}.cls-2{fill:url(#radial-gradient);}.cls-3{fill:url(#radial-gradient-2);}.cls-4{fill:url(#radial-gradient-3);}.cls-5{fill:url(#radial-gradient-4);}.cls-6{fill:url(#radial-gradient-5);}.cls-7{fill:url(#radial-gradient-6);}.cls-8{fill:url(#radial-gradient-7);}.cls-9{fill:url(#radial-gradient-8);}.cls-10{fill:url(#radial-gradient-9);}.cls-11{fill:url(#radial-gradient-10);}.cls-12{fill:url(#radial-gradient-11);}.cls-13{fill:url(#radial-gradient-12);}.cls-14{fill:url(#radial-gradient-13);}.cls-15{fill:url(#radial-gradient-14);}.cls-16{fill:url(#radial-gradient-15);}.cls-17{fill:url(#radial-gradient-16);}.cls-18{fill:url(#radial-gradient-17);}.cls-19{fill:url(#radial-gradient-18);}.cls-20{fill:url(#radial-gradient-19);}.cls-21{fill:url(#radial-gradient-20);}.cls-22{fill:url(#radial-gradient-21);}.cls-23{fill:url(#radial-gradient-22);}.cls-24{fill:url(#radial-gradient-23);}.cls-25{fill:url(#radial-gradient-24);}.cls-26{fill:url(#radial-gradient-25);}.cls-27{fill:url(#radial-gradient-26);}.cls-28{fill:url(#radial-gradient-27);}.cls-29{fill:url(#radial-gradient-28);}.cls-30{fill:url(#radial-gradient-29);}.cls-31{fill:url(#radial-gradient-30);}.cls-32{fill:url(#radial-gradient-31);}.cls-33{fill:url(#radial-gradient-32);}.cls-34{fill:url(#radial-gradient-33);}.cls-35{fill:url(#radial-gradient-34);}.cls-36{fill:url(#radial-gradient-35);}.cls-37{fill:url(#radial-gradient-36);}.cls-38{fill:url(#radial-gradient-37);}.cls-39{fill:url(#radial-gradient-38);}.cls-40{fill:url(#radial-gradient-39);}.cls-41{fill:url(#radial-gradient-40);}.cls-42{fill:url(#radial-gradient-41);}.cls-43{fill:url(#radial-gradient-42);}.cls-44{fill:url(#radial-gradient-43);}.cls-45{fill:url(#radial-gradient-44);}.cls-46{fill:url(#radial-gradient-45);}.cls-47{fill:url(#radial-gradient-46);}.cls-48{fill:url(#radial-gradient-47);}.cls-49{fill:url(#radial-gradient-48);}.cls-50{fill:url(#radial-gradient-49);}.cls-51{fill:url(#radial-gradient-50);}.cls-52{fill:url(#radial-gradient-51);}.cls-53{fill:url(#radial-gradient-52);}.cls-54{fill:url(#radial-gradient-53);}.cls-124,.cls-55{fill:#27aae1;}.cls-56{fill:url(#radial-gradient-54);}.cls-57{fill:url(#radial-gradient-55);}.cls-58{fill:url(#radial-gradient-56);}.cls-59{fill:url(#radial-gradient-57);}.cls-60{fill:url(#radial-gradient-58);}.cls-61{fill:url(#radial-gradient-59);}.cls-122,.cls-123,.cls-62{fill:#fff;}.cls-62{fill-rule:evenodd;}.cls-63{fill:url(#radial-gradient-60);}.cls-64{fill:url(#radial-gradient-61);}.cls-65{fill:url(#radial-gradient-62);}.cls-66{fill:url(#radial-gradient-63);}.cls-67{fill:url(#radial-gradient-64);}.cls-68{fill:url(#radial-gradient-65);}.cls-69{fill:url(#radial-gradient-66);}.cls-70{fill:url(#radial-gradient-67);}.cls-71{fill:url(#radial-gradient-68);}.cls-72{fill:url(#radial-gradient-69);}.cls-73{fill:url(#radial-gradient-70);}.cls-74{fill:url(#radial-gradient-71);}.cls-75{fill:url(#radial-gradient-72);}.cls-76{fill:url(#radial-gradient-73);}.cls-77{fill:url(#radial-gradient-74);}.cls-78{fill:url(#radial-gradient-75);}.cls-79{fill:url(#radial-gradient-76);}.cls-80{fill:url(#radial-gradient-77);}.cls-81{fill:url(#radial-gradient-78);}.cls-82{fill:url(#radial-gradient-79);}.cls-83{fill:url(#radial-gradient-80);}.cls-84{fill:url(#radial-gradient-81);}.cls-85{fill:url(#radial-gradient-82);}.cls-86{fill:url(#radial-gradient-83);}.cls-87{fill:url(#radial-gradient-84);}.cls-88{fill:url(#radial-gradient-85);}.cls-89{fill:url(#radial-gradient-86);}.cls-90{fill:url(#radial-gradient-87);}.cls-91{fill:url(#radial-gradient-88);}.cls-92{fill:url(#radial-gradient-89);}.cls-93{fill:url(#radial-gradient-90);}.cls-94{fill:url(#radial-gradient-91);}.cls-95{fill:url(#radial-gradient-92);}.cls-96{fill:url(#radial-gradient-93);}.cls-97{fill:url(#radial-gradient-94);}.cls-98{fill:url(#radial-gradient-95);}.cls-99{fill:url(#radial-gradient-96);}.cls-100{fill:url(#radial-gradient-97);}.cls-101{fill:url(#radial-gradient-98);}.cls-102{fill:url(#radial-gradient-99);}.cls-103{fill:url(#radial-gradient-100);}.cls-104{fill:url(#radial-gradient-101);}.cls-105{fill:url(#radial-gradient-102);}.cls-106{fill:url(#radial-gradient-103);}.cls-107{fill:url(#radial-gradient-104);}.cls-108{fill:url(#radial-gradient-105);}.cls-109{fill:url(#radial-gradient-106);}.cls-110{fill:url(#radial-gradient-107);}.cls-111{fill:url(#radial-gradient-108);}.cls-112{fill:url(#radial-gradient-109);}.cls-113{fill:url(#radial-gradient-110);}.cls-114{fill:#3955b7;}.cls-115{fill:#2d409e;}.cls-116{fill:url(#radial-gradient-111);}.cls-117{fill:url(#radial-gradient-112);}.cls-118{fill:url(#radial-gradient-113);}.cls-119{fill:url(#radial-gradient-114);}.cls-120{fill:url(#radial-gradient-115);}.cls-121{fill:url(#radial-gradient-116);}.cls-123{font-size:24.22844px;}.cls-123,.cls-125{font-family:OpenSans-Light, Open Sans;}.cls-124{font-size:35.70578px;font-family:OpenSans-Bold, Open Sans;font-weight:700;}.cls-125{font-size:16px;fill:#343642;letter-spacing:-0.02502em;}</style><linearGradient id="linear-gradient" x1="700" y1="1651.01776" x2="700" y2="183.86956" gradientUnits="userSpaceOnUse"><stop offset="0.05725" stop-color="#3f5f6f"/><stop offset="0.47984" stop-color="#012b37"/><stop offset="1" stop-color="#000315"/></linearGradient><radialGradient id="radial-gradient" cx="711.009" cy="458.02216" r="755.26127" gradientUnits="userSpaceOnUse"><stop offset="0.09438" stop-color="#2e3192"/><stop offset="1" stop-color="#000106"/></radialGradient><radialGradient id="radial-gradient-2" cx="702.81944" cy="468.67764" r="588.25261" gradientUnits="userSpaceOnUse"><stop offset="0.19182" stop-color="#0071bc"/><stop offset="0.29662" stop-color="#0067ab" stop-opacity="0.90897"/><stop offset="0.50469" stop-color="#004c80" stop-opacity="0.67157"/><stop offset="0.79336" stop-color="#00223b" stop-opacity="0.29281"/><stop offset="1" stop-color="#000106" stop-opacity="0"/></radialGradient><radialGradient id="radial-gradient-3" cx="729.84883" cy="144.24106" r="33.6834" gradientUnits="userSpaceOnUse"><stop offset="0" stop-color="#0071bc"/><stop offset="0.11109" stop-color="#0767b5" stop-opacity="0.8396"/><stop offset="0.33733" stop-color="#1554a9" stop-opacity="0.54285"/><stop offset="0.54733" stop-color="#20459f" stop-opacity="0.30829"/><stop offset="0.73435" stop-color="#283a98" stop-opacity="0.13973"/><stop offset="0.89161" stop-color="#2c3394" stop-opacity="0.03692"/><stop offset="1" stop-color="#2e3192" stop-opacity="0"/></radialGradient><radialGradient id="radial-gradient-4" cx="835.71112" cy="164.48426" r="33.6834" xlink:href="#radial-gradient-3"/><radialGradient id="radial-gradient-5" cx="780.95472" cy="228.53257" r="33.6834" xlink:href="#radial-gradient-3"/><radialGradient id="radial-gradient-6" cx="796.03826" cy="164.48426" r="21.90248" xlink:href="#radial-gradient-3"/><radialGradient id="radial-gradient-7" cx="868.23319" cy="206.63001" r="21.90248" xlink:href="#radial-gradient-3"/><radialGradient id="radial-gradient-8" cx="765.87131" cy="143.61421" r="21.90248" xlink:href="#radial-gradient-3"/><radialGradient id="radial-gradient-9" cx="752.24954" cy="183.07003" r="21.90248" xlink:href="#radial-gradient-3"/><radialGradient id="radial-gradient-10" cx="707.94664" cy="204.64069" r="15.32282" xlink:href="#radial-gradient-3"/><radialGradient id="radial-gradient-11" cx="752.24954" cy="241.9746" r="15.32282" xlink:href="#radial-gradient-3"/><radialGradient id="radial-gradient-12" cx="838.66709" cy="246.28878" r="15.32282" xlink:href="#radial-gradient-3"/><radialGradient id="radial-gradient-13" cx="900.89027" cy="233.79322" r="15.32282" xlink:href="#radial-gradient-3"/><radialGradient id="radial-gradient-14" cx="897.73767" cy="267.97453" r="15.32282" xlink:href="#radial-gradient-3"/><radialGradient id="radial-gradient-15" cx="840.65823" cy="311.94542" r="15.32282" xlink:href="#radial-gradient-3"/><radialGradient id="radial-gradient-16" cx="802.67584" cy="349.05279" r="15.32282" xlink:href="#radial-gradient-3"/><radialGradient id="radial-gradient-17" cx="752.24954" cy="349.05279" r="15.32282" xlink:href="#radial-gradient-3"/><radialGradient id="radial-gradient-18" cx="748.59916" cy="296.89713" r="15.32282" xlink:href="#radial-gradient-3"/><radialGradient id="radial-gradient-19" cx="707.94664" cy="315.48096" r="15.32282" xlink:href="#radial-gradient-3"/><radialGradient id="radial-gradient-20" cx="707.94664" cy="381.52066" r="15.32282" xlink:href="#radial-gradient-3"/><radialGradient id="radial-gradient-21" cx="764.7451" cy="417.49829" r="15.32282" xlink:href="#radial-gradient-3"/><radialGradient id="radial-gradient-22" cx="862.74552" cy="423.74638" r="15.32282" xlink:href="#radial-gradient-3"/><radialGradient id="radial-gradient-23" cx="920.69596" cy="457.9131" r="15.32282" xlink:href="#radial-gradient-3"/><radialGradient id="radial-gradient-24" cx="974.58123" cy="418.42192" r="15.32282" xlink:href="#radial-gradient-3"/><radialGradient id="radial-gradient-25" cx="970.10116" cy="457.9131" r="15.32282" xlink:href="#radial-gradient-3"/><radialGradient id="radial-gradient-26" cx="993.31649" cy="509.137" r="15.32282" xlink:href="#radial-gradient-3"/><radialGradient id="radial-gradient-27" cx="877.9219" cy="510.66839" r="15.32282" xlink:href="#radial-gradient-3"/><radialGradient id="radial-gradient-28" cx="890.41745" cy="574.84468" r="15.32282" xlink:href="#radial-gradient-3"/><radialGradient id="radial-gradient-29" cx="999.5642" cy="621.16108" r="15.32282" xlink:href="#radial-gradient-3"/><radialGradient id="radial-gradient-30" cx="834.052" cy="557.44455" r="15.32282" xlink:href="#radial-gradient-3"/><radialGradient id="radial-gradient-31" cx="707.94664" cy="560.2198" r="15.32282" xlink:href="#radial-gradient-3"/><radialGradient id="radial-gradient-32" cx="707.94664" cy="637.98662" r="15.32282" xlink:href="#radial-gradient-3"/><radialGradient id="radial-gradient-33" cx="781.61888" cy="657.15136" r="15.32282" xlink:href="#radial-gradient-3"/><radialGradient id="radial-gradient-34" cx="707.94664" cy="731.0725" r="15.32282" xlink:href="#radial-gradient-3"/><radialGradient id="radial-gradient-35" cx="707.94664" cy="785.58001" r="15.32282" xlink:href="#radial-gradient-3"/><radialGradient id="radial-gradient-36" cx="839.14555" cy="809.47371" r="15.32282" xlink:href="#radial-gradient-3"/><radialGradient id="radial-gradient-37" cx="890.41745" cy="698.21866" r="15.32282" xlink:href="#radial-gradient-3"/><radialGradient id="radial-gradient-38" cx="707.94664" cy="449.71726" r="15.32282" xlink:href="#radial-gradient-3"/><radialGradient id="radial-gradient-39" cx="787.59243" cy="298.72226" r="33.6834" xlink:href="#radial-gradient-3"/><radialGradient id="radial-gradient-40" cx="887.67331" cy="352.31538" r="33.6834" xlink:href="#radial-gradient-3"/><radialGradient id="radial-gradient-41" cx="945.85685" cy="298.72226" r="33.6834" xlink:href="#radial-gradient-3"/><radialGradient id="radial-gradient-42" cx="950.41324" cy="367.49784" r="33.6834" xlink:href="#radial-gradient-3"/><radialGradient id="radial-gradient-43" cx="834.052" cy="482.07162" r="33.6834" xlink:href="#radial-gradient-3"/><radialGradient id="radial-gradient-44" cx="767.34875" cy="497.67821" r="33.6834" xlink:href="#radial-gradient-3"/><radialGradient id="radial-gradient-45" cx="761.7071" cy="615.47811" r="33.6834" xlink:href="#radial-gradient-3"/><radialGradient id="radial-gradient-46" cx="800.41721" cy="712.13405" r="33.6834" xlink:href="#radial-gradient-3"/><radialGradient id="radial-gradient-47" cx="797.4305" cy="762.04871" r="33.6834" xlink:href="#radial-gradient-3"/><radialGradient id="radial-gradient-48" cx="868.89698" cy="631.73878" r="33.6834" xlink:href="#radial-gradient-3"/><radialGradient id="radial-gradient-49" cx="963.85344" cy="572.08765" r="33.6834" xlink:href="#radial-gradient-3"/><radialGradient id="radial-gradient-50" cx="955.72627" cy="646.82256" r="33.6834" xlink:href="#radial-gradient-3"/><radialGradient id="radial-gradient-51" cx="975.63769" cy="685.91767" r="33.6834" xlink:href="#radial-gradient-3"/><radialGradient id="radial-gradient-52" cx="928.95888" cy="753.21301" r="33.6834" xlink:href="#radial-gradient-3"/><radialGradient id="radial-gradient-53" cx="761.45821" cy="837.47147" r="33.6834" xlink:href="#radial-gradient-3"/><radialGradient id="radial-gradient-54" cx="993.31649" cy="509.137" r="27.06538" xlink:href="#radial-gradient"/><radialGradient id="radial-gradient-55" cx="767.57237" cy="495.34557" r="27.06538" xlink:href="#radial-gradient"/><radialGradient id="radial-gradient-56" cx="868.89698" cy="631.73878" r="27.06538" xlink:href="#radial-gradient"/><radialGradient id="radial-gradient-57" cx="798.98505" cy="762.04871" r="27.06538" xlink:href="#radial-gradient"/><radialGradient id="radial-gradient-58" cx="889.10547" cy="352.31538" r="27.06538" xlink:href="#radial-gradient"/><radialGradient id="radial-gradient-59" cx="787.35302" cy="298.72226" r="27.06538" xlink:href="#radial-gradient"/><radialGradient id="radial-gradient-60" cx="2963.31944" cy="144.24106" r="33.6834" gradientTransform="matrix(-1, 0, 0, 1, 3632.44363, 0)" xlink:href="#radial-gradient-3"/><radialGradient id="radial-gradient-61" cx="3069.18173" cy="164.48426" r="33.6834" gradientTransform="matrix(-1, 0, 0, 1, 3632.44363, 0)" xlink:href="#radial-gradient-3"/><radialGradient id="radial-gradient-62" cx="3014.42533" cy="228.53257" r="33.6834" gradientTransform="matrix(-1, 0, 0, 1, 3632.44363, 0)" xlink:href="#radial-gradient-3"/><radialGradient id="radial-gradient-63" cx="3029.50887" cy="164.48426" r="21.90248" gradientTransform="matrix(-1, 0, 0, 1, 3632.44363, 0)" xlink:href="#radial-gradient-3"/><radialGradient id="radial-gradient-64" cx="3101.7038" cy="206.63001" r="21.90248" gradientTransform="matrix(-1, 0, 0, 1, 3632.44363, 0)" xlink:href="#radial-gradient-3"/><radialGradient id="radial-gradient-65" cx="2999.34192" cy="143.61421" r="21.90248" gradientTransform="matrix(-1, 0, 0, 1, 3632.44363, 0)" xlink:href="#radial-gradient-3"/><radialGradient id="radial-gradient-66" cx="2985.72015" cy="183.07003" r="21.90248" gradientTransform="matrix(-1, 0, 0, 1, 3632.44363, 0)" xlink:href="#radial-gradient-3"/><radialGradient id="radial-gradient-67" cx="2941.41725" cy="204.64069" r="15.32282" gradientTransform="matrix(-1, 0, 0, 1, 3632.44363, 0)" xlink:href="#radial-gradient-3"/><radialGradient id="radial-gradient-68" cx="2985.72015" cy="241.9746" r="15.32282" gradientTransform="matrix(-1, 0, 0, 1, 3632.44363, 0)" xlink:href="#radial-gradient-3"/><radialGradient id="radial-gradient-69" cx="3072.1377" cy="246.28878" r="15.32282" gradientTransform="matrix(-1, 0, 0, 1, 3632.44363, 0)" xlink:href="#radial-gradient-3"/><radialGradient id="radial-gradient-70" cx="3134.36088" cy="233.79322" r="15.32282" gradientTransform="matrix(-1, 0, 0, 1, 3632.44363, 0)" xlink:href="#radial-gradient-3"/><radialGradient id="radial-gradient-71" cx="3131.20828" cy="267.97453" r="15.32282" gradientTransform="matrix(-1, 0, 0, 1, 3632.44363, 0)" xlink:href="#radial-gradient-3"/><radialGradient id="radial-gradient-72" cx="3074.12884" cy="311.94542" r="15.32282" gradientTransform="matrix(-1, 0, 0, 1, 3632.44363, 0)" xlink:href="#radial-gradient-3"/><radialGradient id="radial-gradient-73" cx="3036.14645" cy="349.05279" r="15.32282" gradientTransform="matrix(-1, 0, 0, 1, 3632.44363, 0)" xlink:href="#radial-gradient-3"/><radialGradient id="radial-gradient-74" cx="2985.72015" cy="349.05279" r="15.32282" gradientTransform="matrix(-1, 0, 0, 1, 3632.44363, 0)" xlink:href="#radial-gradient-3"/><radialGradient id="radial-gradient-75" cx="2982.06977" cy="296.89713" r="15.32282" gradientTransform="matrix(-1, 0, 0, 1, 3632.44363, 0)" xlink:href="#radial-gradient-3"/><radialGradient id="radial-gradient-76" cx="2941.41725" cy="315.48096" r="15.32282" gradientTransform="matrix(-1, 0, 0, 1, 3632.44363, 0)" xlink:href="#radial-gradient-3"/><radialGradient id="radial-gradient-77" cx="2941.41725" cy="381.52066" r="15.32282" gradientTransform="matrix(-1, 0, 0, 1, 3632.44363, 0)" xlink:href="#radial-gradient-3"/><radialGradient id="radial-gradient-78" cx="2998.21571" cy="417.49829" r="15.32282" gradientTransform="matrix(-1, 0, 0, 1, 3632.44363, 0)" xlink:href="#radial-gradient-3"/><radialGradient id="radial-gradient-79" cx="3096.21613" cy="423.74638" r="15.32282" gradientTransform="matrix(-1, 0, 0, 1, 3632.44363, 0)" xlink:href="#radial-gradient-3"/><radialGradient id="radial-gradient-80" cx="3154.16657" cy="457.9131" r="15.32282" gradientTransform="matrix(-1, 0, 0, 1, 3632.44363, 0)" xlink:href="#radial-gradient-3"/><radialGradient id="radial-gradient-81" cx="3208.05184" cy="418.42192" r="15.32282" gradientTransform="matrix(-1, 0, 0, 1, 3632.44363, 0)" xlink:href="#radial-gradient-3"/><radialGradient id="radial-gradient-82" cx="3203.57177" cy="457.9131" r="15.32282" gradientTransform="matrix(-1, 0, 0, 1, 3632.44363, 0)" xlink:href="#radial-gradient-3"/><radialGradient id="radial-gradient-83" cx="3226.7871" cy="509.137" r="15.32282" gradientTransform="matrix(-1, 0, 0, 1, 3632.44363, 0)" xlink:href="#radial-gradient-3"/><radialGradient id="radial-gradient-84" cx="3111.39251" cy="510.66839" r="15.32282" gradientTransform="matrix(-1, 0, 0, 1, 3632.44363, 0)" xlink:href="#radial-gradient-3"/><radialGradient id="radial-gradient-85" cx="3123.88806" cy="574.84468" r="15.32282" gradientTransform="matrix(-1, 0, 0, 1, 3632.44363, 0)" xlink:href="#radial-gradient-3"/><radialGradient id="radial-gradient-86" cx="3233.03481" cy="621.16108" r="15.32282" gradientTransform="matrix(-1, 0, 0, 1, 3632.44363, 0)" xlink:href="#radial-gradient-3"/><radialGradient id="radial-gradient-87" cx="3067.52261" cy="557.44455" r="15.32282" gradientTransform="matrix(-1, 0, 0, 1, 3632.44363, 0)" xlink:href="#radial-gradient-3"/><radialGradient id="radial-gradient-88" cx="2941.41725" cy="560.2198" r="15.32282" gradientTransform="matrix(-1, 0, 0, 1, 3632.44363, 0)" xlink:href="#radial-gradient-3"/><radialGradient id="radial-gradient-89" cx="2941.41725" cy="637.98662" r="15.32282" gradientTransform="matrix(-1, 0, 0, 1, 3632.44363, 0)" xlink:href="#radial-gradient-3"/><radialGradient id="radial-gradient-90" cx="3015.08949" cy="657.15136" r="15.32282" gradientTransform="matrix(-1, 0, 0, 1, 3632.44363, 0)" xlink:href="#radial-gradient-3"/><radialGradient id="radial-gradient-91" cx="2941.41725" cy="731.0725" r="15.32282" gradientTransform="matrix(-1, 0, 0, 1, 3632.44363, 0)" xlink:href="#radial-gradient-3"/><radialGradient id="radial-gradient-92" cx="2941.41725" cy="785.58001" r="15.32282" gradientTransform="matrix(-1, 0, 0, 1, 3632.44363, 0)" xlink:href="#radial-gradient-3"/><radialGradient id="radial-gradient-93" cx="3072.61616" cy="809.47371" r="15.32282" gradientTransform="matrix(-1, 0, 0, 1, 3632.44363, 0)" xlink:href="#radial-gradient-3"/><radialGradient id="radial-gradient-94" cx="3123.88806" cy="698.21866" r="15.32282" gradientTransform="matrix(-1, 0, 0, 1, 3632.44363, 0)" xlink:href="#radial-gradient-3"/><radialGradient id="radial-gradient-95" cx="2941.41725" cy="449.71726" r="15.32282" gradientTransform="matrix(-1, 0, 0, 1, 3632.44363, 0)" xlink:href="#radial-gradient-3"/><radialGradient id="radial-gradient-96" cx="3021.06304" cy="298.72226" r="33.6834" gradientTransform="matrix(-1, 0, 0, 1, 3632.44363, 0)" xlink:href="#radial-gradient-3"/><radialGradient id="radial-gradient-97" cx="3121.14392" cy="352.31538" r="33.6834" gradientTransform="matrix(-1, 0, 0, 1, 3632.44363, 0)" xlink:href="#radial-gradient-3"/><radialGradient id="radial-gradient-98" cx="3179.32746" cy="298.72226" r="33.6834" gradientTransform="matrix(-1, 0, 0, 1, 3632.44363, 0)" xlink:href="#radial-gradient-3"/><radialGradient id="radial-gradient-99" cx="3183.88385" cy="367.49784" r="33.6834" gradientTransform="matrix(-1, 0, 0, 1, 3632.44363, 0)" xlink:href="#radial-gradient-3"/><radialGradient id="radial-gradient-100" cx="3067.52261" cy="482.07162" r="33.6834" gradientTransform="matrix(-1, 0, 0, 1, 3632.44363, 0)" xlink:href="#radial-gradient-3"/><radialGradient id="radial-gradient-101" cx="3000.81936" cy="497.67821" r="33.6834" gradientTransform="matrix(-1, 0, 0, 1, 3632.44363, 0)" xlink:href="#radial-gradient-3"/><radialGradient id="radial-gradient-102" cx="2995.17771" cy="615.47811" r="33.6834" gradientTransform="matrix(-1, 0, 0, 1, 3632.44363, 0)" xlink:href="#radial-gradient-3"/><radialGradient id="radial-gradient-103" cx="3033.88782" cy="712.13405" r="33.6834" gradientTransform="matrix(-1, 0, 0, 1, 3632.44363, 0)" xlink:href="#radial-gradient-3"/><radialGradient id="radial-gradient-104" cx="3030.90111" cy="762.04871" r="33.6834" gradientTransform="matrix(-1, 0, 0, 1, 3632.44363, 0)" xlink:href="#radial-gradient-3"/><radialGradient id="radial-gradient-105" cx="3102.36759" cy="631.73878" r="33.6834" gradientTransform="matrix(-1, 0, 0, 1, 3632.44363, 0)" xlink:href="#radial-gradient-3"/><radialGradient id="radial-gradient-106" cx="3197.32405" cy="572.08765" r="33.6834" gradientTransform="matrix(-1, 0, 0, 1, 3632.44363, 0)" xlink:href="#radial-gradient-3"/><radialGradient id="radial-gradient-107" cx="3189.19688" cy="646.82256" r="33.6834" gradientTransform="matrix(-1, 0, 0, 1, 3632.44363, 0)" xlink:href="#radial-gradient-3"/><radialGradient id="radial-gradient-108" cx="3209.1083" cy="685.91767" r="33.6834" gradientTransform="matrix(-1, 0, 0, 1, 3632.44363, 0)" xlink:href="#radial-gradient-3"/><radialGradient id="radial-gradient-109" cx="3162.42949" cy="753.21301" r="33.6834" gradientTransform="matrix(-1, 0, 0, 1, 3632.44363, 0)" xlink:href="#radial-gradient-3"/><radialGradient id="radial-gradient-110" cx="2994.92882" cy="837.47147" r="33.6834" gradientTransform="matrix(-1, 0, 0, 1, 3632.44363, 0)" xlink:href="#radial-gradient-3"/><radialGradient id="radial-gradient-111" cx="3111.53895" cy="514.32286" r="27.06538" gradientTransform="matrix(-1, 0, 0, 1, 3632.44363, 0)" xlink:href="#radial-gradient"/><radialGradient id="radial-gradient-112" cx="2998.21571" cy="417.49829" r="27.06538" gradientTransform="matrix(-1, 0, 0, 1, 3632.44363, 0)" xlink:href="#radial-gradient"/><radialGradient id="radial-gradient-113" cx="2995.17771" cy="615.47811" r="27.06538" gradientTransform="matrix(-1, 0, 0, 1, 3632.44363, 0)" xlink:href="#radial-gradient"/><radialGradient id="radial-gradient-114" cx="3123.88806" cy="704.72543" r="27.06538" gradientTransform="matrix(-1, 0, 0, 1, 3632.44363, 0)" xlink:href="#radial-gradient"/><radialGradient id="radial-gradient-115" cx="3122.57608" cy="352.31538" r="27.06538" gradientTransform="matrix(-1, 0, 0, 1, 3632.44363, 0)" xlink:href="#radial-gradient"/><radialGradient id="radial-gradient-116" cx="3014.42533" cy="228.53249" r="27.06538" gradientTransform="matrix(-1, 0, 0, 1, 3632.44363, 0)" xlink:href="#radial-gradient"/></defs><title>EEZY</title><g id="BACKGROUND"><rect class="cls-1" width="1400" height="980"/><rect class="cls-2" width="1400" height="980"/><path class="cls-3" d="M1239.56152,729.15356l-79.75,46.69434,14.99658-137.9082-5.645.21191-152.06152-109.5625,211.35937-5.55664-.04687-1.84717-210.5332,5.53662,118.49072-69.96,88.855,60.15039,1.03516-1.52979-88.12988-59.65967,50.61426-29.88379h-92.21094L1196.71,352.73169,989.58984,362.595l161.543-103.64941-112.28955-28.28271,102.18066-98.37256-1.28027-1.33105-101.59863,97.812L1052.2168,72.65259l-101.92871,78.52L1059.19531,9.863l-115.502,23.19531L968.33862,0h-2.3042l-24.8728,33.36353L837.87109,1.58472,844.186,0H832.39941l.6958,1.10181L811.53076,11.19946l-29.4292,13.78027V0h-1.84717V24.447L751.24365,0h-2.86621l31.60205,26.6311L700,159.33276,620.02,26.6311,651.62231,0H648.7561l-29.0105,24.447V0h-1.84717V24.97974l-29.4292-13.78027L566.9043,1.10181,567.6001,0H555.814l6.31494,1.58472L458.83838,33.36353,433.96558,0H431.6615l24.64514,33.05835L340.80432,9.863,449.71191,151.17261l-101.92859-78.52,14.07153,156.11865-101.59839-97.812-1.28076,1.33105,102.18066,98.37256L248.86707,258.94556,410.41028,362.595l-207.12036-9.86328,100.1748,73.10742H211.25378l50.61438,29.88379-88.13025,59.65967,1.0354,1.52979,88.855-60.15039,118.49072,69.96L171.58594,521.1853l-.04687,1.84717,211.35925,5.55664L230.837,638.15161l-5.645-.21191,14.99646,137.9082-79.75012-46.69434-.93433,1.59424,80.58154,47.1709L202.95264,850.825l57.94153,8.36328,29.073,115.5791-1.32935,1.89746,2.44141-.78027L352.33752,980h27.56592l-84.03638-5.64575,97.91553-31.291L410.80457,980h2.03528l-17.2832-37.50317,23.22156-7.4209L460.38159,980h2.51831l-42.17908-45.54663,20.30933-6.48975L516.83667,980h3.26367l-76.84253-52.74829L528.603,899.97827,533.39014,980h1.85107L530.499,900.74536l79.95117,63.502L564.94238,980h5.64746l41.57422-14.39185L630.28394,980h2.97l-19.021-15.10767L700,935.20288l85.7666,29.68945L766.74585,980h2.97l18.12012-14.39185L829.40991,980h5.64771L789.5498,964.24731l79.95117-63.502L864.75854,980h1.85107l4.78735-80.02173,85.34521,27.27344L879.89941,980h3.26392l75.8064-52.03638,20.30908,6.48975L937.1001,980h2.51807l41.60352-44.92407,23.22168,7.4209L987.15991,980h2.0354l17.022-36.93677,97.91553,31.291L1020.09619,980h27.56616l61.25806-4.11548,2.4419.78027-1.32959-1.89746,29.07324-115.5791,57.94141-8.36328-37.1333-72.90625,80.582-47.1709Zm-81.66895,47.32959L1000.126,749.07837,1172.6499,640.70044ZM702.38965,760.741l95.894-40.14941,37.2334,75.13916L703.6709,761.43286l.22852-.05957Zm-6.061.69189-131.8457,34.29785,37.2334-75.13916,95.894,40.14941-1.50977.63232Zm2.1416-597.84814-78.59033,59.55322,6.54248-93.41113,71.35791,32.62012-.58838.269Zm3.749-1.23779,71.3584-32.62012,6.54248,93.41113-78.59033-59.55322,1.27832-.96875ZM933.93115,609.39575l3.32813-135.73584,75.67383,54.20508Zm79.84961-79.75049L1036.31787,642.678,934.66064,611.29614ZM799.74316,717.407l4.78613-101.92236,125.71924-2.76611Zm130.271-102.1333L869.21,729.16431l-68.26465-10.35645Zm-460.2627-2.55518,125.71924,2.76611L600.25684,717.407ZM599.0542,718.80786,530.79,729.16431l-60.8042-113.89062Zm99.4292-306.16064L591.792,494.60083l4.71826-140.95605,101.61963,57.64209-.81543.4624ZM594.64111,354.24l-4.72168,141.16943-124.312-24.07275ZM465.25586,469.1604,492.625,359.58081,593.06152,353.178Zm129.937-119.78125-68.3623-123.35693h90.88916Zm-1.06982,1.87891L493.0957,357.70142,525.5918,227.59692ZM491.16016,357.824l-75.31238,4.80176L523.34766,228.95532ZM415.44836,360.176l25.88477-131.02246,81.94226-3.05713Zm1.76953,4.59082-.5354-.34277,74.00842-4.71875-27.3291,109.41455L415.28955,364.676Zm47.995,108.37354,123.63525,23.94238-120.9248,112.5791L464.5752,473.1272l.72705.208ZM589.98047,498.554l5.40381,115.082-126.042-2.77344Zm7.33936,116.97119,101.21777,2.22754.17334.17773-96.61426,99.30713Zm101.30273.38135-101.38965-2.23L591.84863,499.0271,698.74756,615.77026ZM592.16895,496.64087,700,413.81177l107.83105,82.8291L700,614.4021Zm109.70117-85.354,101.61963-57.64209L808.208,494.60083,701.5166,412.64722l1.16895-.89795ZM806.938,353.178l100.437,6.40283L934.74414,469.1604ZM934.39258,471.33667l-124.312,24.07275L805.35889,354.24Zm-25.084-111.63135,74.00879,4.71875-.53516.34277,1.92822-.09082L936.63818,469.11987Zm74.84326,2.92041-75.312-4.80176-32.1875-128.86865ZM876.72461,226.09644l81.94189,3.05713L984.55176,360.176Zm30.17969,131.605-101.02783-6.44336,68.53125-123.66113Zm-102.09717-8.32227L782.27979,226.02222h90.88916Zm3.34424,149.64795-5.38428,114.64941-101.38965,2.23-.125-.13623ZM701.4624,617.75269l101.21777-2.22754-4.77686,101.7124-96.61426-99.30713Zm103.15332-4.1167,5.40381-115.082,120.6377,112.30859Zm6.53613-116.55322,123.63477-23.94238-.08887.19482.72656-.208-3.34766,136.53467ZM986.40137,365.42358l1.41895,1.76221-.33008-1.66846,103.88721,60.95117-153.31738,43.981Zm.06934-5.06543L960.56445,229.22388l75.11475,2.80322ZM960.19629,227.36255l-13.58643-68.77441,87.6748,71.53809Zm-1.89551-.07031-81.39062-3.03613,66.53516-65.48193,1.14355-.88037Zm-83.92822-3.13037-1.62354-.06055.05957.07373h-89.854l64.187-91.40674,95.832,23.87891ZM781.918,222.43823,775.3916,129.303l69.6377,3.25977Zm-1.38428,4.27881,22.54053,123.46143-101.34814-64.1958.93066-.58936-1.09521-.80225Zm22.03369,125.32764L700,410.22583,597.43213,352.04468,700,287.07593Zm-104.29346-66.062-101.34863,64.1958L619.46582,226.717l78.97266,57.874-1.09521.80225ZM618.082,222.43823,554.9707,132.56274l69.6377-3.25977Zm-1.03662,1.73682h-89.854l.05957-.07373-1.62354.06055-68.60107-67.51465,95.83154-23.87891Zm-93.95557.08105-81.3905,3.03613,13.71179-69.39844,1.14355.88037Zm-83.28625,3.10645-74.0885,2.76367,87.675-71.53809Zm-.368,1.86133L413.52905,360.35815,364.32068,232.0271Zm-25.837,136.19971,48.34143,105.02588-153.31763-43.981,103.88757-60.95117-.33008,1.66846Zm49.14221,108.23633,3.32813,135.73584L387.067,527.865Zm2.59863,137.63623L363.68225,642.678l22.53687-113.03271Zm-.01172,1.93848L402.49182,747.20776l-38.806-102.59668Zm1.77588.56152L528.853,729.45825l-124.882,18.94629Zm62.6709,117.39014,34.46143,64.54785L406.68225,749.8606Zm1.9375-.29395,67.94824-10.30713-35.3584,71.3501Zm71.16992-11.81494L700,619.25562l97.11816,99.82178L700,759.74048Zm197.458,1.50781,67.94824,10.30713-32.58984,61.043Zm69.88525,10.60107L993.31787,749.8606,835.76416,795.73413Zm.92188-1.728,61.74951-115.66211,63.13232,134.6084Zm63.52539-116.22363,101.6416,31.37646L997.50781,747.20776Zm221.82422,164.88184-118.49951,93.25586L998.94971,750.74878Zm13.86523-138.16113L999.43311,747.33423l38.65039-102.17676.65137.20117-.09131-.458Zm-4.19971-1.69092-127.88477,4.80078-22.57129-113.20605ZM1014.16065,526.47388l-75.69141-54.2207,152.74121-43.81494Zm167.82471-98.78809-45.5459,26.8916-39.72461-26.8916Zm-47.30615,27.93066-116.57373,68.82764,75.792-96.43408Zm55.96631-100.74512L1093.647,425.65845,989.33057,364.45581ZM1146.54394,259.696,988.05664,361.38452l49.51465-129.13721ZM1049.998,76.69263l-13.7583,152.645-89.54785-73.06445Zm4.72022-64.04785L946.84082,152.61841l-.856-1.16357L942.46,35.19019Zm-114.729,22.292-.65771.88135,1.29-.25879,3.43652,113.2793L836.83838,3.20142ZM813.01953,12.54419,834.1416,2.65356,944.15674,152.08521l.06592,2.17285-.41943-.3418.21533,1.08887-96.68262-24.09277-64.82275-104.084Zm-31.11035,16.812,63.12744,101.35742-69.64648-3.2583Zm-1.90576.81494-6.47363,97.54736-72.21533,33.0127Zm-.37158,194.915L700,283.44653l-79.63184-58.36035L700,164.7439Zm-80.94629-64.355-72.21533-33.0127-6.47363-97.54736ZM618.09082,29.3562l6.519,98.09912-69.64648,3.2583Zm-31.11035-16.812,30.50635,14.28418-64.82324,104.084-96.68213,24.09277.21533-1.08887-.41943.3418.06592-2.17285L565.8584,2.65356ZM459.37793,35.55933l1.29053.25879-.65771-.88135L563.16162,3.20142,455.94189,148.83862ZM345.28137,12.64478,457.54,35.19019l-3.5249,116.26465-.856,1.16357Zm4.7207,64.04785,103.30554,79.58057-89.54749,73.06445ZM253.45605,259.696l108.97253-27.44873,49.51489,129.13721Zm-44.10168,95.17529,201.3147,9.58447L306.35315,425.65845Zm54.2063,99.70605-45.54614-26.8916h85.27075Zm1.76,1.03906L306.10242,428.01l75.792,96.43408Zm43.46851-27.17822,152.74158,43.81494-75.69128,54.2207Zm75.50488,101.4209L361.72229,643.06519,233.83765,638.2644ZM361.3562,644.90063l-.09119.458.65125-.20117,38.65051,102.17676L229.63794,639.95532Zm39.694,105.84814L362.00281,871.37231,243.50354,778.11646ZM227.34973,640.70044,399.87415,749.07837,242.1073,776.48315ZM205.77014,849.36353,241.015,780.16284l19.39111,77.08838ZM242.85767,779.949l116.28064,91.51953-.52844-.082.07434.05127-96.306-13.90283Zm20.00793,79.52441,97.99048,14.14453-69.48633,99.14893Zm30.42969,113.76416,69.01147-98.47314,30.69653,66.60889Zm101.48218-32.43164L365.7467,877.81177,417.391,933.57886Zm24.55627-7.84766-50.55261-54.58984,70.32153,48.272Zm21.9967-7.0293-74.993-51.47949L525.43652,899.05Zm84.817-28.63867L363.68665,872.17114l39.08447-120.73682L527.01123,897.29321l-1.1582-.23633Zm2.957-.38672L405.10388,751.325l158.04163,46.0166Zm168.30078,37.24268-84.88672,29.38525-79.46484-63.11621,164.40967,33.67236ZM530.6665,898.04272l34.05957-99.61426L698.19922,932.35229Zm35.457-100.8291L700,762.38745l133.87646,34.82617L700,931.54224ZM787.48145,963.53149l-84.88672-29.38525-.05811-.05859L866.9458,900.41528Zm-85.68066-31.1792L835.27393,798.42847l34.05957,99.61426Zm169.09473-35.44873-34.041-99.562L994.896,751.325Zm2.09326.38965L997.229,751.43433l39.084,120.73682L873.85254,897.29028l.29443-.2334ZM958.66943,925.929,874.56348,899.05l159.09912-24.60059Zm21.99658,7.0293-19.769-6.31787,70.32178-48.272Zm24.55664,7.84766-22.61377-7.22705,51.64453-55.76709Zm1.77393.56738,30.69629-66.60889,69.01172,98.47314Zm101.63379,31.39355L1039.144,873.61792l97.99023-14.14453Zm28.99121-115.23193-96.30615,13.90283.07471-.05127-.52881.082L1157.14209,779.949Zm56.60791-8.17139-54.63574,7.8877,19.39111-77.08838Z"/></g><g id="OBJECT"><circle class="cls-4" cx="729.84883" cy="144.24106" r="33.6834"/><circle class="cls-5" cx="835.71112" cy="164.48426" r="33.6834"/><circle class="cls-6" cx="780.95472" cy="228.53257" r="33.6834"/><circle class="cls-7" cx="796.03826" cy="164.48426" r="21.90248"/><circle class="cls-8" cx="868.23319" cy="206.63001" r="21.90248"/><circle class="cls-9" cx="765.87131" cy="143.61421" r="21.90248"/><circle class="cls-10" cx="752.24954" cy="183.07003" r="21.90248"/><circle class="cls-11" cx="707.94664" cy="204.64069" r="15.32282"/><circle class="cls-12" cx="752.24954" cy="241.9746" r="15.32282"/><circle class="cls-13" cx="838.66709" cy="246.28878" r="15.32282"/><circle class="cls-14" cx="900.89027" cy="233.79322" r="15.32282"/><circle class="cls-15" cx="897.73767" cy="267.97453" r="15.32282"/><circle class="cls-16" cx="840.65823" cy="311.94542" r="15.32282"/><circle class="cls-17" cx="802.67584" cy="349.05279" r="15.32282"/><circle class="cls-18" cx="752.24954" cy="349.05279" r="15.32282"/><circle class="cls-19" cx="748.59916" cy="296.89713" r="15.32282"/><circle class="cls-20" cx="707.94664" cy="315.48096" r="15.32282"/><circle class="cls-21" cx="707.94664" cy="381.52066" r="15.32282"/><circle class="cls-22" cx="764.7451" cy="417.49829" r="15.32282"/><circle class="cls-23" cx="862.74552" cy="423.74638" r="15.32282"/><circle class="cls-24" cx="920.69596" cy="457.9131" r="15.32282"/><circle class="cls-25" cx="974.58123" cy="418.42192" r="15.32282"/><circle class="cls-26" cx="970.10116" cy="457.9131" r="15.32282"/><circle class="cls-27" cx="993.31649" cy="509.137" r="15.32282"/><circle class="cls-28" cx="877.9219" cy="510.66839" r="15.32282"/><circle class="cls-29" cx="890.41745" cy="574.84468" r="15.32282"/><circle class="cls-30" cx="999.5642" cy="621.16108" r="15.32282"/><circle class="cls-31" cx="834.052" cy="557.44455" r="15.32282"/><circle class="cls-32" cx="707.94664" cy="560.2198" r="15.32282"/><circle class="cls-33" cx="707.94664" cy="637.98662" r="15.32282"/><circle class="cls-34" cx="781.61888" cy="657.15136" r="15.32282"/><circle class="cls-35" cx="707.94664" cy="731.0725" r="15.32282"/><circle class="cls-36" cx="707.94664" cy="785.58001" r="15.32282"/><circle class="cls-37" cx="839.14555" cy="809.47371" r="15.32282"/><circle class="cls-38" cx="890.41745" cy="698.21866" r="15.32282"/><circle class="cls-39" cx="707.94664" cy="449.71726" r="15.32282"/><circle class="cls-40" cx="787.59243" cy="298.72226" r="33.6834"/><circle class="cls-41" cx="887.67331" cy="352.31538" r="33.6834"/><circle class="cls-42" cx="945.85685" cy="298.72226" r="33.6834"/><circle class="cls-43" cx="950.41324" cy="367.49784" r="33.6834"/><circle class="cls-44" cx="834.052" cy="482.07162" r="33.6834"/><circle class="cls-45" cx="767.34875" cy="497.67821" r="33.6834"/><circle class="cls-46" cx="761.7071" cy="615.47811" r="33.6834"/><circle class="cls-47" cx="800.41721" cy="712.13405" r="33.6834"/><circle class="cls-48" cx="797.4305" cy="762.04871" r="33.6834"/><circle class="cls-49" cx="868.89698" cy="631.73878" r="33.6834"/><circle class="cls-50" cx="963.85344" cy="572.08765" r="33.6834"/><circle class="cls-51" cx="955.72627" cy="646.82256" r="33.6834"/><circle class="cls-52" cx="975.63769" cy="685.91767" r="33.6834"/><circle class="cls-53" cx="928.95888" cy="753.21301" r="33.6834"/><circle class="cls-54" cx="761.45821" cy="837.47147" r="33.6834"/><path class="cls-55" d="M999.56422,614.91316a6.24169,6.24169,0,0,0-1.87527.28735l-25.98339-35.70684a10.77421,10.77421,0,0,0-1.551-16.17046l22.456-47.98113a6.24643,6.24643,0,1,0,.70587-12.45271c-.21065,0-.41824.01112-.62361.03112l-18.34169-40.60344a6.2334,6.2334,0,0,0-1.60154-10.22284l3.13972-27.56381a6.24406,6.24406,0,0,0-2.04646-12.30875l-17.08225-35.99419a10.7898,10.7898,0,0,0-5.0614-19.45023l-3.46486-52.32971a6.24623,6.24623,0,1,0-6.29722-10.638l-38.14124-24.33183a6.21271,6.21271,0,0,0-3.53183-7.21429l2.06563-22.396a6.24386,6.24386,0,1,0-4.714-11.38779L876.119,210.6001a8.82252,8.82252,0,0,0-11.56454-11.99584l-22.0083-28.522a8.83315,8.83315,0,1,0-15.43708-7.58945H801.95635a6.23331,6.23331,0,0,0-9.64925-3.01133l-20.43594-14.13789a6.246,6.246,0,0,0-11.95582-3.61715l-21.5028.37405a8.83087,8.83087,0,1,0-13.36839,9.54921L708.0914,198.40028c-.04863-.00111-.09588-.00723-.14451-.00723a6.24527,6.24527,0,0,0-1.99171,12.16536V311.275a4.64329,4.64329,0,0,0,0,8.412v55.91574a6.2422,6.2422,0,0,0,0,11.83577v56.36093a6.2422,6.2422,0,0,0,0,11.83577v98.66623a6.24259,6.24259,0,0,0,0,11.83632v65.9307a6.24259,6.24259,0,0,0,0,11.83632v81.24967a6.24259,6.24259,0,0,0,0,11.83632v44.802a4.27409,4.27409,0,0,0,3.32341,7.85346l43.17235,41.864a10.82534,10.82534,0,1,0,19.66116,4.23853l62.14181-22.39542a6.23693,6.23693,0,0,0,10.95149-5.3757l74.61786-46.69779A12.19045,12.19045,0,1,0,937.451,744.46411l34.91955-50.34217a8.83118,8.83118,0,0,0,8.11746-15.58575l18.8936-51.13641c.06114.00167.12089.00889.18258.00889a6.24775,6.24775,0,1,0,0-12.4955ZM966.802,685.91777c0,.25845.017.513.03863.76589l-21.40971,3.09081,8.62269-34.27954a8.74818,8.74818,0,0,0,5.23147-.58859l11.90941,23.38308A8.82339,8.82339,0,0,0,966.802,685.91777ZM839.14551,803.22555a6.21111,6.21111,0,0,0-3.73526,1.24833l-20.8075-23.656,19.18067-20.7119,28.44586-1.91084-20.93144,45.41945A6.21348,6.21348,0,0,0,839.14551,803.22555Zm-100.656-657.14386,21.50114-.37405a6.26052,6.26052,0,0,0,3.37788,3.62938l-9.55977,27.68942a6.13356,6.13356,0,0,0-4.238.40573l-14.88489-25.80192A8.83675,8.83675,0,0,0,738.48951,146.08168ZM968.38938,419.21531a6.20058,6.20058,0,0,0,.87288,2.4722L925.42879,453.676a6.23617,6.23617,0,0,0-9.84906.49133l-47.21607-27.70164a6.21142,6.21142,0,0,0,.61944-2.51778Zm18.69629,89.58779-102.95173,2.7073a6.19283,6.19283,0,0,0-.6011-2.07369l60.16122-35.52064,45.33219,30.6874A6.21951,6.21951,0,0,0,987.08567,508.8031ZM917.51,749.03223l-43.54751-13.91668L888.266,704.078a6.18388,6.18388,0,0,0,5.31512-.47854L921.56264,743.527A12.20438,12.20438,0,0,0,917.51,749.03223Zm-205.92041,34.2901,44.2481-35.14437,33.0993,11.45782a8.75893,8.75893,0,0,0-.16563,4.17573l-76.83078,20.2039A4.245,4.245,0,0,0,711.58961,783.32234Zm2.29156-147.281,39.8884-16.70069a8.82538,8.82538,0,0,0,11.40919,4.263l13.81692,27.88284a6.25929,6.25929,0,0,0-3.27394,3.61659l-61.6277-16.0315a6.09529,6.09529,0,0,0-.21287-3.03022Zm-.27679-188.96211,45.96913-26.07537a6.23808,6.23808,0,0,0,4.88215,2.72787l2.04451,61.07857a10.54894,10.54894,0,0,0-7.22346,3.70719l-46.09085-35.40337a6.21112,6.21112,0,0,0,.41852-6.03488Zm-.34543-68.83532,34.26565-25.11106a6.22793,6.22793,0,0,0,4.72514,2.16762c.212,0,.4213-.01112.62805-.03168l10.26007,56.19808a6.24054,6.24054,0,0,0-3.38149,2.28156l-46.28372-29.3168a6.21836,6.21836,0,0,0-.21371-6.18773Zm80.86756-207.81264L782.49,219.83917a8.696,8.696,0,0,0-5.82312.97043l-20.67549-32.74442A6.2214,6.2214,0,0,0,758.174,181.096l32.32813-13.7216A6.25961,6.25961,0,0,0,794.12652,170.43129Zm68.43681,42.9717-20.576,27.59993a6.23247,6.23247,0,0,0-9.12291,2.97965l-43.33964-13.33421a8.59626,8.59626,0,0,0,.10421-3.77889l70.167-17.60831A8.84146,8.84146,0,0,0,862.56332,213.403Zm34.135,25.01324-52.63485,68.29508a6.20992,6.20992,0,0,0-3.09581-.99822l-1.61377-53.21622a6.21441,6.21441,0,0,0,5.51354-6.94528l50.0187-10.04554A6.23729,6.23729,0,0,0,896.69836,238.41624Zm-.015,35.71073-6.2522,69.36777c-.09893-.00333-.19564-.015-.29541-.015a8.80057,8.80057,0,0,0-6.51259,2.8796L845.7965,315.49518a6.23,6.23,0,0,0,.09615-6.95417l47.2208-36.37546A6.22911,6.22911,0,0,0,896.68335,274.127ZM953.09486,572.9897a10.731,10.731,0,0,0,1.35949,4.41472l-76.87914,48.29571a10.61022,10.61022,0,0,0-4.475-3.66661l15.58131-41.19036a6.22971,6.22971,0,0,0,7.97045-5.73419ZM797.43047,753.213a8.835,8.835,0,0,0-8.17193,5.48019l-32.49681-11.24884,37.06521-29.43963a8.80527,8.80527,0,0,0,5.56745,2.90128L797.461,753.21463ZM755.15213,188.60041l20.67577,32.74553a8.80605,8.80605,0,0,0-3.06969,10.47461l-4.149,1.94308-10.93454,5.12a6.2414,6.2414,0,0,0-4.92773-3.13193V189.29294A6.2133,6.2133,0,0,0,755.15213,188.60041Zm83.20609,63.92037,1.614,53.21622a6.185,6.185,0,0,0-1.33865.30236l-52.04876-70.6978a8.84813,8.84813,0,0,0,2.647-3.74054l43.33881,13.33365a6.22885,6.22885,0,0,0,5.78755,7.58612Zm42.98365,98.968-32.60408-1.21609L842.35331,317.954a6.23315,6.23315,0,0,0,2.81235-1.68963l37.82722,30.86526A8.77411,8.77411,0,0,0,881.34187,351.48881Zm-8.10718,164.80425-35.20606,36.33267a6.22016,6.22016,0,0,0-3.32591-1.39506l1.48565-60.59446a8.83556,8.83556,0,0,0,5.36125-3.90561l31.0245,22.22256a6.21451,6.21451,0,0,0,.66057,7.3399Zm14.51584,64.1955-15.58131,41.19425a10.54188,10.54188,0,0,0-7.30766.27957L837.14546,562.868a6.2624,6.2624,0,0,0,2.7073-3.11137l44.46986,13.72771a6.22011,6.22011,0,0,0,3.4279,7.0042ZM784.37556,651.551l15.86921-29.72365,58.1306,8.81888a10.35623,10.35623,0,0,0,.2465,3.566l-71.16773,20.7219A6.25981,6.25981,0,0,0,784.37556,651.551ZM768.89374,610.3506l60.61642-48.62475a6.24918,6.24918,0,0,0,1.1719.97432L799.6973,620.7374l-29.19647-4.42973c.02557-.27345.042-.54969.042-.82981A8.78588,8.78588,0,0,0,768.89374,610.3506Zm8.9117-116.52243,47.7766-9.25241a8.758,8.758,0,0,0,9.6059,6.25053L833.707,551.214a6.21341,6.21341,0,0,0-3.8692,1.62738l-54.42008-50.664a10.37884,10.37884,0,0,0,2.38772-8.34923ZM758.4722,348.55474a6.233,6.233,0,0,0-2.2371-4.31245l26.69954-38.02175a8.822,8.822,0,0,0,13.0991-4.88215l38.4675,9.58533a6.13568,6.13568,0,0,0,1.24916,4.87993l-28.98888,28.52979a6.237,6.237,0,0,0-10.30815,4.2213Zm98.09654,74.29883-35.51147-2.26377-16.38944-65.61946a6.19945,6.19945,0,0,0,1.52289-.75311l52.26774,64.99251A6.22421,6.22421,0,0,0,856.56874,422.85358Zm-53.8929-67.55308a6.2266,6.2266,0,0,0,1.02462-.09115L820.014,420.52366l-49.02631-3.12693a6.23758,6.23758,0,0,0-2.78956-5.10336L800.0947,354.738A6.21848,6.21848,0,0,0,802.67584,355.30049Zm-31.754,63.09056,49.34618,3.14583,12.92319,51.74223a8.77509,8.77509,0,0,0-4.37721,1.68852l-59.1266-53.657A6.20951,6.20951,0,0,0,770.92185,418.39106Zm87.60358,211.27138-57.78406-8.76664L831.55911,563.172a6.19961,6.19961,0,0,0,4.68456.11727l27.71721,59.09714A10.58843,10.58843,0,0,0,858.52544,629.66244ZM834.20861,473.24355l-12.89846-51.64,35.19272,2.24432a6.24009,6.24009,0,0,0,3.18751,5.34513l-20.90754,45.425A8.78465,8.78465,0,0,0,834.20861,473.24355Zm25.02213-54.66185-52.26746-64.99251a6.22474,6.22474,0,0,0,1.91445-3.80779l39.0358,1.45675L861.051,417.73744A6.21529,6.21529,0,0,0,859.23075,418.5817Zm-11.51452-68.34677-38.806-1.4473a6.21583,6.21583,0,0,0-1.44786-3.74665l28.96553-28.507a6.1684,6.1684,0,0,0,4.94857,1.6146ZM780.9546,237.36855a8.78806,8.78806,0,0,0,4.82629-1.44008l51.91536,70.5155a6.2627,6.2627,0,0,0-2.95714,3.51321l-38.47028-9.58644a8.833,8.833,0,0,0-12.91763-9.3997L755.9611,246.99168a6.21187,6.21187,0,0,0,2.13455-7.20484l11.31554-5.29844,3.76527-1.763A8.83286,8.83286,0,0,0,780.9546,237.36855Zm-25.83749,10.1528,27.39206,43.981a8.8237,8.8237,0,0,0-3.7058,6.31l-23.96694-1.12161a6.23958,6.23958,0,0,0-5.3279-5.96818l2.82458-42.50483A6.21451,6.21451,0,0,0,755.11711,247.52136Zm-.32514,50.16376,23.96917,1.12161a8.81176,8.81176,0,0,0,3.35759,6.843l-26.7012,38.02452a6.2022,6.2022,0,0,0-3.10665-.86594l-2.78456-39.73972A6.24225,6.24225,0,0,0,754.792,297.68512Zm3.68023,51.86506H796.4531a6.24,6.24,0,0,0,2.76955,4.70763l-31.89627,57.55535a6.21944,6.21944,0,0,0-2.58114-.56247c-.21232,0-.42185.01112-.62861.03168l-10.26285-56.19753A6.24263,6.24263,0,0,0,758.4722,349.55018ZM769.018,422.04767l59.02183,53.56192a8.72839,8.72839,0,0,0-2.68146,7.9963l-47.73991,9.24463a10.57087,10.57087,0,0,0-10.12474-8.07578l-2.04257-61.07134A6.21487,6.21487,0,0,0,769.018,422.04767Zm-1.66879,83.87583a10.53784,10.53784,0,0,0,7.38992-3.01688l54.41869,50.6612a6.20953,6.20953,0,0,0-1.33531,3.51655l-62.9405,1.3845Zm60.48692,52.15575a6.2106,6.2106,0,0,0,1.04685,2.874l-60.61336,48.62308a8.80747,8.80747,0,0,0-5.65193-2.88738l2.21764-47.22358ZM770.35438,617.2931l28.846,4.37582-15.7536,29.508a6.18518,6.18518,0,0,0-3.51182-.03724L766.06777,623.1568A8.84171,8.84171,0,0,0,770.35438,617.2931Zm17.51216,39.85867a6.28381,6.28381,0,0,0-.12783-1.26333l71.16-20.71968a10.569,10.569,0,0,0,2.77539,4.283L805.7533,705.10344a8.7484,8.7484,0,0,0-7.71673-1.4712L784.104,662.88262A6.24755,6.24755,0,0,0,787.86654,657.15177Zm10.58827,96.12511,1.9328-32.30867.02946.00167a8.83093,8.83093,0,0,0,8.24446-5.67806l38.21461,12.2126-42.46092,29.14673A8.81432,8.81432,0,0,0,798.45481,753.27688Zm10.50852-38.93381a8.83041,8.83041,0,0,0,.28957-2.20875c0-.289-.01612-.57359-.04307-.85538l75.13392-11.61734a6.20421,6.20421,0,0,0,.66112,1.66907l-37.08995,25.4601Zm75.20618-16.12432c0,.15507.01223.3068.02334.45909l-75.13448,11.61678a8.81462,8.81462,0,0,0-2.5464-4.54756L862.431,640.09759a10.46575,10.46575,0,0,0,9.24352,1.838l16.35109,50.51169A6.248,6.248,0,0,0,884.16951,698.21874Zm.44714-125.68591-44.46986-13.72827a6.1988,6.1988,0,0,0-1.40756-5.48186l35.20634-36.33211A6.22334,6.22334,0,0,0,877.922,518.419a6.30935,6.30935,0,0,0,.72893-.04558l10.06165,50.465A6.25558,6.25558,0,0,0,884.61665,572.53283ZM877.922,505.9235a6.23165,6.23165,0,0,0-4.77127,2.21875L842.03011,485.8491a8.59488,8.59488,0,0,0,.72838-5.22786l72.0937-20.68022a6.24713,6.24713,0,0,0,1.60821,2.38939l-35.08267,44.63744A6.217,6.217,0,0,0,877.922,505.9235Zm4.2352,1.66407,35.08267-44.63744a6.238,6.238,0,0,0,8.33145-1.30168L942.782,473.29857l-59.75409,35.28A6.26369,6.26369,0,0,0,882.15723,507.58756Zm32.41483-48.602L842.54284,479.648a8.83708,8.83708,0,0,0-2.93435-4.44251l20.98841-45.59842a6.21617,6.21617,0,0,0,7.26487-2.28156l47.21607,27.70164a6.21064,6.21064,0,0,0-.62944,2.71953A6.27719,6.27719,0,0,0,914.57206,458.9856Zm-51.82671-41.48716a6.24526,6.24526,0,0,0-.71782.04446l-13.09132-66.267,32.37231,1.20831a8.8292,8.8292,0,0,0,5.20618,7.88514L864.51,417.75522A6.24855,6.24855,0,0,0,862.74535,417.49844ZM751.34017,248.14886l-2.821,42.50428a6.2301,6.2301,0,0,0-5.78588,8.37813l-30.78884,14.07509a4.66479,4.66479,0,0,0-1.18524-1.32836l38.70427-64.21717A6.19111,6.19111,0,0,0,751.34017,248.14886Zm-38.98495,65.86345,30.78856-14.074a6.2429,6.2429,0,0,0,5.39376,3.20363l2.78317,39.73972a6.22289,6.22289,0,0,0-3.72859,2.017l-35.65959-27.02135a4.45639,4.45639,0,0,0,.42269-3.865ZM760.582,503.47353a10.52711,10.52711,0,0,0,5.77449,2.39995l-2.47109,52.61762-49.723,1.09382a6.21666,6.21666,0,0,0-1.64767-3.6177Zm-46.40572,57.10682,49.66243-1.0927-2.21486,47.1591a8.78977,8.78977,0,0,0-5.7064,2.16707L712.6423,564.332A6.21424,6.21424,0,0,0,714.17631,560.58035Zm63.40126,101.33129a6.18719,6.18719,0,0,0,5.58274,1.28779l13.93308,40.75128a8.74133,8.74133,0,0,0-5.40849,9.46472l-77.74035,15.92034a6.21568,6.21568,0,0,0-1.25222-2.31991Zm-63.434,68.40012,77.73979-15.92146a8.78322,8.78322,0,0,0,1.32169,2.8368L755.64679,747.058,713.989,732.63779a5.9489,5.9489,0,0,0,.15451-2.326Zm90.83445,27.1603,43.0987-29.58414,10.94649,3.49765-25.7016,27.75389-27.12917,1.82191A8.76329,8.76329,0,0,0,804.978,757.47206Zm44.13777-30.29779,36.45078-25.02158c.082.10116.17063.1962.25873.2918L859.771,730.57966Zm37.43871-24.05115a6.21282,6.21282,0,0,0,.80535.54079L873.00626,734.8093l-12.18842-3.895Zm3.86309-11.15213a6.23305,6.23305,0,0,0-1.44258.174L872.6222,641.62882a10.58322,10.58322,0,0,0,6.59513-7.59112l67.7365,11.76629a8.928,8.928,0,0,0-.06336,1.01878,8.78751,8.78751,0,0,0,1.59987,5.06112l-53.49189,42.09632A6.22432,6.22432,0,0,0,890.41754,691.971Zm65.30876-53.98433a8.83272,8.83272,0,0,0-8.5999,6.83634l-67.74206-11.76685a10.34771,10.34771,0,0,0-1.27973-6.51342l76.87914-48.29516a10.79007,10.79007,0,0,0,7.2104,4.50365l-6.006,55.25878C956.03421,638.00222,955.8822,637.98666,955.7263,637.98666Zm-2.67257-65.99184-56.43486,2.11871a6.2132,6.2132,0,0,0-6.93027-5.47074l-10.06221-50.465a6.24405,6.24405,0,0,0,3.05468-1.9642l71.3442,51.40486A10.746,10.746,0,0,0,953.05373,571.99482ZM926.12965,460.82363a6.20751,6.20751,0,0,0,.789-2.57891H963.8785a6.20211,6.20211,0,0,0,.61194,2.2371l-20.76,12.25706Zm37.74885-3.57491H926.91861a6.20293,6.20293,0,0,0-.90345-2.76733l43.83264-31.98909a6.27044,6.27044,0,0,0,2.08536,1.58236l-3.14027,27.56381A6.24638,6.24638,0,0,0,963.8785,457.24873Zm-98.43974-39.13335,22.0033-57.38583a8.83537,8.83537,0,0,0,11.12823-5.77643l41.25456,10.39124a10.76937,10.76937,0,0,0,1.243,7.55833l-73.35453,47.06573A6.25966,6.25966,0,0,0,865.43876,418.11538Zm74.63176-53.73644L898.80873,353.986a8.77435,8.77435,0,0,0-1.97754-7.42549l44.88894-43.21626a6.22754,6.22754,0,0,0,2.54056,1.36115l3.46569,52.33916A10.81119,10.81119,0,0,0,940.07052,364.37894Zm.95487-61.74775-44.88671,43.214a8.79429,8.79429,0,0,0-4.71624-2.26155l6.2522-69.36444c.02112,0,.04169.00333.06308.00333a6.21809,6.21809,0,0,0,3.91923-1.38617l38.1418,24.33183a6.192,6.192,0,0,0,1.22665,5.463ZM891.49,267.97481a6.213,6.213,0,0,0,1.01295,3.40428l-47.22024,36.376q-.20551-.22677-.43241-.433l52.63485-68.29452a6.194,6.194,0,0,0,.87928.47688l-2.06591,22.39542A6.24578,6.24578,0,0,0,891.49,267.97481Zm3.19974-33.44417-50.0187,10.045a6.23721,6.23721,0,0,0-1.88583-2.97687l20.57628-27.60049a8.80452,8.80452,0,0,0,10.2095-.339l21.49725,17.8801a6.22321,6.22321,0,0,0-.42574,2.25377A6.33026,6.33026,0,0,0,894.6897,234.53064Zm-35.13047-26.23711-70.167,17.60887a8.82815,8.82815,0,0,0-2.331-3.74609L830.363,171.50566a8.77962,8.77962,0,0,0,9.0262,1.00489L861.39837,201.032a8.78959,8.78959,0,0,0-1.83914,7.26153Zm-29.95458-37.43315L786.30279,221.511a8.78885,8.78885,0,0,0-2.84153-1.44786l11.636-49.40954a6.18532,6.18532,0,0,0,6.85941-4.17851H827.1091A8.81452,8.81452,0,0,0,829.60464,170.86037Zm-39.491-4.40194L757.78551,180.18a6.268,6.268,0,0,0-3.03356-2.83291l9.55921-27.68942a6.16814,6.16814,0,0,0,5.29205-1.041L790.03861,162.754a6.17454,6.17454,0,0,0,.075,3.70441Zm-38.36217,22.8345v46.45935a6.22237,6.22237,0,0,0-3.94229,1.82969l-34.78337-29.3118a6.20761,6.20761,0,0,0,.73421-5.90649l33.11347-16.1221A6.23889,6.23889,0,0,0,751.75147,189.29294ZM712.38718,209.0333l34.78337,29.31235a6.22837,6.22837,0,0,0,1.44008,8.7005l-38.67314,64.16659V210.559A6.2434,6.2434,0,0,0,712.38718,209.0333Zm-1.05185,109.64107,35.65376,27.0169a6.21294,6.21294,0,0,0-.05252,6.63737l-34.26509,25.11162a6.25281,6.25281,0,0,0-2.734-1.838V319.687A4.669,4.669,0,0,0,711.33533,318.67436Zm1.60043,66.596,46.28344,29.3168a6.21108,6.21108,0,0,0-.132,5.54855l-45.96913,26.07593a6.25843,6.25843,0,0,0-3.18057-2.41273V387.43909A6.25568,6.25568,0,0,0,712.93576,385.27036Zm-.359,68.63134,46.09336,35.40559A10.56242,10.56242,0,0,0,759.847,502.801l-48.06617,52.49312a6.227,6.227,0,0,0-1.84331-.99266V455.63579A6.25,6.25,0,0,0,712.57671,453.9017ZM711.932,565.03064,755.206,609.50912a8.76818,8.76818,0,0,0-1.82136,8.91337l-39.889,16.70124a6.25988,6.25988,0,0,0-3.55823-3.05523v-65.9307A6.22349,6.22349,0,0,0,711.932,565.03064Zm1.91168,75.00526,61.6277,16.03151a6.16518,6.16518,0,0,0,1.40145,5.1406l-64.885,65.10423a6.22889,6.22889,0,0,0-2.05035-1.15773V643.90482A6.25538,6.25538,0,0,0,713.84366,640.0359Zm-.17647,93.544,41.0553,14.21181-43.74315,34.74364a4.303,4.303,0,0,0-1.04185-.74311v-44.8014A6.26121,6.26121,0,0,0,713.66719,733.57987Zm-1.48288,51.40042,76.84329-20.20668a8.85573,8.85573,0,0,0,4.15683,5.02332l-27.52851,57.71653a10.79142,10.79142,0,0,0-10.429,1.14161l-43.1754-41.86788a3.52975,3.52975,0,0,0,.13284-1.80691ZM768.423,829.2181a10.83671,10.83671,0,0,0-1.86943-1.27278l27.5299-57.72153a8.80307,8.80307,0,0,0,8.79471-1.22776l10.38318,11.80409Zm35.20578-60.87681a8.80464,8.80464,0,0,0,2.63755-6.29277c0-.03168-.00445-.06225-.005-.09337l26.07454-1.75188-18.39449,19.86319Zm31.1401-9.2991,25.30142-27.32092,12.51607,3.99954-9.88241,21.44444Zm38.77374-23.01569,43.6634,13.95337a12.17893,12.17893,0,0,0-.44714,3.23309c0,.10783.01362.21232.0164.31959l-52.93943,3.55657Zm55.41635,4.98664a12.131,12.131,0,0,0-6.58318,1.93919L894.399,703.03309a6.23407,6.23407,0,0,0,2.26628-4.81434c0-.13339-.01167-.264-.02-.39573l47.45979-6.8508-12.65446,50.29771A12.227,12.227,0,0,0,928.959,741.01315ZM896.50689,696.837a6.22013,6.22013,0,0,0-.88817-2.07814l53.488-42.098a8.83151,8.83151,0,0,0,3.984,2.59726L944.368,689.92787Zm60.66727-58.72142,6.009-55.25767c.22288.01334.44408.0339.6703.0339a10.74088,10.74088,0,0,0,4.632-1.05491l25.987,35.71184a6.20714,6.20714,0,0,0-.52912,6.32612l-30.8547,18.06573A8.83022,8.83022,0,0,0,957.17416,638.11561Zm9.37246-76.47979a10.73032,10.73032,0,0,0-12.06253,5.08668l-71.22359-51.3176a6.20284,6.20284,0,0,0,.89234-2.89961l102.95173-2.70675a6.22625,6.22625,0,0,0,1.90056,3.85336Zm21.77959-58.70863-43.68341-29.57136,20.3523-12.0164a6.22838,6.22838,0,0,0,5.72919,2.62393Zm-18.08046-88.99809a6.22036,6.22036,0,0,0-1.90195,4.29078l-99.40628,4.73375a6.2002,6.2002,0,0,0-.68169-2.15039l73.34953-47.06239a10.72419,10.72419,0,0,0,11.55731,4.19407ZM728.788,153.007a8.90732,8.90732,0,0,0,1.06074.07,8.78351,8.78351,0,0,0,3.974-.95209l14.88433,25.80136a6.22831,6.22831,0,0,0-2.271,7.42049l-33.11347,16.1221a6.26855,6.26855,0,0,0-1.487-1.713Zm41.97571,678.9946a10.83038,10.83038,0,0,0-1.6096-2.10759l44.76861-48.34185,20.73886,23.57649a6.22494,6.22494,0,0,0-1.76383,4.34525c0,.045.00584.08837.00667.13284ZM843.107,804.64284a6.25506,6.25506,0,0,0-.90318-.61416l21.1571-45.90911,53.47133-3.59214a12.11894,12.11894,0,0,0,.86872,3.38871Zm89.30767-63.125,12.75312-50.699,21.80961-3.14805a8.79871,8.79871,0,0,0,2.124,4.1774l-34.92483,50.35A12.05607,12.05607,0,0,0,932.41464,741.51781Zm44.33675-64.35834a8.61823,8.61823,0,0,0-4.67178.67419L960.1702,654.45058a8.8084,8.8084,0,0,0,3.41595-11.65124l30.858-18.06407a6.27514,6.27514,0,0,0,1.20081,1.28779Z"/><circle class="cls-55" cx="993.31649" cy="509.137" r="32.25124"/><circle class="cls-56" cx="993.31649" cy="509.137" r="27.06538"/><circle class="cls-55" cx="767.57237" cy="495.34557" r="32.25124"/><circle class="cls-57" cx="767.57237" cy="495.34557" r="27.06538"/><circle class="cls-55" cx="868.89698" cy="631.73878" r="32.25124"/><circle class="cls-58" cx="868.89698" cy="631.73878" r="27.06538"/><circle class="cls-55" cx="798.98505" cy="762.04871" r="32.25124"/><circle class="cls-59" cx="798.98505" cy="762.04871" r="27.06538"/><circle class="cls-55" cx="889.10547" cy="352.31538" r="32.25124"/><circle class="cls-60" cx="889.10547" cy="352.31538" r="27.06538"/><circle class="cls-55" cx="787.35302" cy="298.72226" r="32.25124"/><circle class="cls-61" cx="787.35302" cy="298.72226" r="27.06538"/><path class="cls-62" d="M904.34931,339.57521c0-.32434-.32782-.32434-.65565,0l-5.573,2.91908v14.5954l6.55649-16.8658c0-.32434,0-.32434-.32782-.64868Z"/><path class="cls-62" d="M888.893,345.64616l7.58853,11.44353V337.79917c0-.327,0-.65392-.30354-.65392a.40071.40071,0,0,0-.60708,0l-7.285,7.52c.30354.327.30354.65392.60708.98087Z"/><path class="cls-62" d="M877.59259,347.35942h0l-3.74656,3.89211c-.31221,0-.31221.32434-.31221.64869.31221.32434.31221.32434.62443.32434h5.93206l-2.49771-4.86514Z"/><path class="cls-62" d="M885.82723,345.73771h-6.7055c-.33527,0-.33527,0-.67055.32434v.64868l7.376,13.62238v-14.5954Z"/><path class="cls-62" d="M902.21845,366.65053l-14.89463-20.58605c-.33851-.32676-.33851-.32676-.677-.32676v16.33814l14.55612,5.555h1.01554v-.98029Z"/><path class="cls-62" d="M775.40373,495.0337h-.63744v-.65492a.6951.6951,0,0,0-.63744-.65492H757.55551a.6951.6951,0,0,0-.63744.65492v13.09844a3.05323,3.05323,0,0,0,3.18718,3.27461h11.47385a3.05323,3.05323,0,0,0,3.18718-3.27461v-3.27461h.63744a4.58613,4.58613,0,0,0,0-9.16891Zm0,7.85906h-.63744v-6.54922h.63744a3.27581,3.27581,0,0,1,0,6.54922Z"/><path class="cls-62" d="M770.66148,492.913h2.52173c.31522,0,.31522,0,.63043-.32434l1.8913-4.21645c1.26086,0,2.20651-1.29737,2.52172-2.91908a5.66527,5.66527,0,0,0-3.78259-5.51382c-.31521,0-.63043,0-.63043.32434-.31521.32434-.31521.64868,0,.64868.63043,1.29737.31522,1.62171-.63043,2.59474,0,.32434-.31522.64868-.63043,1.29737a2.12061,2.12061,0,0,0,0,1.94606c.31522.32434.31522.64868.63043.973l-2.52173,3.56776h-.31522l-.31522.64868v.64869c.31522.32434.31522.32434.63043.32434Zm3.15216-7.78421c0-.32434.31522-.32434.63043-.64868a6.302,6.302,0,0,0,.94565-2.59474c1.26086.64868,1.57608,2.2704,1.57608,3.56776-.31521.64869-.63043,1.94606-1.57608,1.94606h0l-1.26086-.64868-.31522-.32434a1.00816,1.00816,0,0,1,0-1.29737Z"/><path class="cls-62" d="M756.3034,484.80444h-.683a.92846.92846,0,0,0-.34148.62373l.683,3.43055,3.41484-2.49494-3.07335-1.55934Z"/><path class="cls-62" d="M758.885,492.913h3.93389a.65569.65569,0,0,1,1.3113,0h5.24519a.70137.70137,0,0,0,.65565-.64868v-.64868h-1.63912a.64872.64872,0,1,1,0-1.29737H770.031v-1.29737H766.7528a.64872.64872,0,1,1,0-1.29737H770.031v-1.29737h-1.63912a.64872.64872,0,1,1,0-1.29737H770.031v-1.29737H766.7528a.64872.64872,0,1,1,0-1.29737H770.031V480.588a.70137.70137,0,0,0-.65565-.64868h-5.24519a.70137.70137,0,0,0-.65565.64868v11.67632c0-.32434,0-.32434-.32782-.32434l-2.62259-4.21645-3.60607,2.91908,1.3113,1.94605c.32782.32434.32782.32434.65565.32434Z"/><path class="cls-62" d="M879.27809,630.7805a10.41435,10.41435,0,0,0-20.76221,0,5.88256,5.88256,0,0,0-5.19055,5.74971,5.771,5.771,0,0,0,5.83937,5.7497.69244.69244,0,0,0,.64882-.63886v-10.2217a9.08455,9.08455,0,0,1,18.16693,0v10.2217a.69244.69244,0,0,0,.64882.63886,5.771,5.771,0,0,0,5.83937-5.7497,5.88256,5.88256,0,0,0-5.19055-5.74971Z"/><path class="cls-62" d="M875.62421,636.19849h-1.94646c-.32441,0-.32441,0-.64882.32941l-.97323,2.30587-1.622-7.247a.70318.70318,0,0,0-.64882-.65882c-.32441,0-.64882,0-.64882.32941l-1.94646,5.27056-1.29764-2.63528c-.32441-.32941-.32441-.32941-.64882-.32941s-.32441,0-.64882.32941l-1.622,2.30587h-1.622a.6589.6589,0,0,0,0,1.31764h1.94646c.32441,0,.32441,0,.64882-.32941l1.29764-1.64705,1.29764,2.96469c.32441.32941.32441.32941.64882.32941a1.1277,1.1277,0,0,0,.64882-.32941l1.622-4.61174,1.622,6.91761a.70318.70318,0,0,0,.64882.65882h0c.32441,0,.32441,0,.64882-.32941l1.622-3.62351h1.622a.6589.6589,0,0,0,0-1.31764Z"/><path class="cls-62" d="M809.76305,752.323a15.24271,15.24271,0,0,0-21.556,0,15.26922,15.26922,0,0,0,0,21.68356,3.05192,3.05192,0,0,0,4.438,0,3.09506,3.09506,0,0,0,0-4.46426.6.6,0,0,1,0-.95663.59228.59228,0,0,1,.951,0l5.389,5.42089a7.62136,7.62136,0,0,0,10.778,0,15.26922,15.26922,0,0,0,0-21.68356Zm-11.729,4.46426a1.47922,1.47922,0,0,1-2.536,0,1.49711,1.49711,0,0,1,0-2.551,1.47922,1.47922,0,0,1,2.536,0,1.49712,1.49712,0,0,1,0,2.551Zm5.072-1.2755a1.91988,1.91988,0,0,1,2.536,0,1.49712,1.49712,0,0,1,0,2.551,1.47922,1.47922,0,0,1-2.536,0,1.49712,1.49712,0,0,1,0-2.551Zm3.17,15.62492a2.36913,2.36913,0,0,1-3.804,0,2.51286,2.51286,0,0,1,0-3.50763,2.87982,2.87982,0,0,1,3.804,0,2.51286,2.51286,0,0,1,0,3.50763Zm2.536-7.01527a2.01039,2.01039,0,0,1-1.902,0,2.04346,2.04346,0,0,1,0-1.91326,2.01038,2.01038,0,0,1,1.902,0,2.04346,2.04346,0,0,1,0,1.91326Z"/><path class="cls-62" d="M1007.37437,498.64763a.31656.31656,0,0,0-.32107-.32779h-.64213l-4.17385,4.2613h-2.24745V499.9588l3.85278-4.26131c0-.32779.32106-.32779.32106-.65558-.32106,0-.32106-.32779-.64213-.32779a7.50332,7.50332,0,0,0-3.85278-.98338,8.86943,8.86943,0,0,0-6.4213,2.62234,8.61418,8.61418,0,0,0-1.92639,10.16157l-12.20047,12.45613a3.57907,3.57907,0,0,0-.9632,2.29455,2.57446,2.57446,0,0,0,.9632,2.29455,2.47874,2.47874,0,0,0,2.24746.98338,3.43248,3.43248,0,0,0,2.24746-.98338L995.816,511.10375a7.20313,7.20313,0,0,0,3.53172.98338h0a8.01344,8.01344,0,0,0,6.4213-2.95013,8.56431,8.56431,0,0,0,1.60533-10.48937Z"/><path class="cls-62" d="M799.60324,295.83359c-.32029-.64193-.96087-1.60482-.96087-1.60482,0-6.74024-6.08548-10.91277-12.171-10.91277a12.86276,12.86276,0,0,0-12.81153,12.83855c0,4.81446,1.60144,8.02409,5.12461,10.27084v7.0612a.6896.6896,0,0,0,.64058.64193h12.81153a.6896.6896,0,0,0,.64058-.64193V309.635c2.242,0,3.52317-.321,4.484-1.28385,1.28115-.96289,1.28115-4.17253,1.28115-5.77735h1.28115a1.6629,1.6629,0,0,0,1.28115-.64193,1.1807,1.1807,0,0,0,.32029-.96289v-.321c0-1.28386-.96087-3.20964-1.92173-4.81446Zm-12.81153,6.74024h-.64058c-.64058-.64193-6.72605-4.81446-6.72605-8.666a3.979,3.979,0,0,1,3.84346-4.17253,3.62634,3.62634,0,0,0,6.40576,0,3.979,3.979,0,0,1,3.84346,4.17253c0,3.85156-6.08548,8.02409-6.72605,8.666Z"/><circle class="cls-63" cx="669.12419" cy="144.24106" r="33.6834"/><circle class="cls-64" cx="563.2619" cy="164.48426" r="33.6834"/><circle class="cls-65" cx="618.0183" cy="228.53257" r="33.6834"/><circle class="cls-66" cx="602.93477" cy="164.48426" r="21.90248"/><circle class="cls-67" cx="530.73984" cy="206.63001" r="21.90248"/><circle class="cls-68" cx="633.10171" cy="143.61421" r="21.90248"/><circle class="cls-69" cx="646.72348" cy="183.07003" r="21.90248"/><circle class="cls-70" cx="691.02639" cy="204.64069" r="15.32282"/><circle class="cls-71" cx="646.72348" cy="241.9746" r="15.32282"/><circle class="cls-72" cx="560.30593" cy="246.28878" r="15.32282"/><circle class="cls-73" cx="498.08275" cy="233.79322" r="15.32282"/><circle class="cls-74" cx="501.23535" cy="267.97453" r="15.32282"/><circle class="cls-75" cx="558.31479" cy="311.94542" r="15.32282"/><circle class="cls-76" cx="596.29718" cy="349.05279" r="15.32282"/><circle class="cls-77" cx="646.72348" cy="349.05279" r="15.32282"/><circle class="cls-78" cx="650.37387" cy="296.89713" r="15.32282"/><circle class="cls-79" cx="691.02639" cy="315.48096" r="15.32282"/><circle class="cls-80" cx="691.02639" cy="381.52066" r="15.32282"/><circle class="cls-81" cx="634.22792" cy="417.49829" r="15.32282"/><circle class="cls-82" cx="536.22751" cy="423.74638" r="15.32282"/><circle class="cls-83" cx="478.27707" cy="457.9131" r="15.32282"/><circle class="cls-84" cx="424.39179" cy="418.42192" r="15.32282"/><circle class="cls-85" cx="428.87186" cy="457.9131" r="15.32282"/><circle class="cls-86" cx="405.65654" cy="509.137" r="15.32282"/><circle class="cls-87" cx="521.05113" cy="510.66839" r="15.32282"/><circle class="cls-88" cx="508.55557" cy="574.84468" r="15.32282"/><circle class="cls-89" cx="399.40882" cy="621.16108" r="15.32282"/><circle class="cls-90" cx="564.92102" cy="557.44455" r="15.32282"/><circle class="cls-91" cx="691.02639" cy="560.2198" r="15.32282"/><circle class="cls-92" cx="691.02639" cy="637.98662" r="15.32282"/><circle class="cls-93" cx="617.35414" cy="657.15136" r="15.32282"/><circle class="cls-94" cx="691.02639" cy="731.0725" r="15.32282"/><circle class="cls-95" cx="691.02639" cy="785.58001" r="15.32282"/><circle class="cls-96" cx="559.82747" cy="809.47371" r="15.32282"/><circle class="cls-97" cx="508.55557" cy="698.21866" r="15.32282"/><circle class="cls-98" cx="691.02639" cy="449.71726" r="15.32282"/><circle class="cls-99" cx="611.38059" cy="298.72226" r="33.6834"/><circle class="cls-100" cx="511.29971" cy="352.31538" r="33.6834"/><circle class="cls-101" cx="453.11618" cy="298.72226" r="33.6834"/><circle class="cls-102" cx="448.55979" cy="367.49784" r="33.6834"/><circle class="cls-103" cx="564.92102" cy="482.07162" r="33.6834"/><circle class="cls-104" cx="631.62427" cy="497.67821" r="33.6834"/><circle class="cls-105" cx="637.26592" cy="615.47811" r="33.6834"/><circle class="cls-106" cx="598.55581" cy="712.13405" r="33.6834"/><circle class="cls-107" cx="601.54253" cy="762.04871" r="33.6834"/><circle class="cls-108" cx="530.07604" cy="631.73878" r="33.6834"/><circle class="cls-109" cx="435.11958" cy="572.08765" r="33.6834"/><circle class="cls-110" cx="443.24675" cy="646.82256" r="33.6834"/><circle class="cls-111" cx="423.33534" cy="685.91767" r="33.6834"/><circle class="cls-112" cx="470.01414" cy="753.21301" r="33.6834"/><circle class="cls-113" cx="637.51482" cy="837.47147" r="33.6834"/><path class="cls-114" d="M393.16105,621.16092a6.24756,6.24756,0,0,0,6.24775,6.24775c.06169,0,.12144-.00723.18258-.00889l18.8936,51.13641a8.83035,8.83035,0,0,0,8.11746,15.58575L461.522,744.46411a12.19064,12.19064,0,1,0,17.62776,16.81574l74.61786,46.69779a6.241,6.241,0,0,0,10.95149,5.3757l62.14181,22.39542a10.79829,10.79829,0,1,0,19.66116-4.23853l43.17235-41.864a4.277,4.277,0,0,0,3.32341-7.85346v-44.802a6.24259,6.24259,0,0,0,0-11.83632V643.90482a6.24259,6.24259,0,0,0,0-11.83632v-65.9307a6.24259,6.24259,0,0,0,0-11.83632V455.63524a6.2422,6.2422,0,0,0,0-11.83577V387.43854a6.2422,6.2422,0,0,0,0-11.83577V319.687a4.64329,4.64329,0,0,0,0-8.412V210.55841a6.24527,6.24527,0,0,0-1.99171-12.16536c-.04863,0-.09588.00611-.14451.00723l-16.95274-46.75059a8.83118,8.83118,0,1,0-13.36839-9.54921l-21.5028-.37405a6.24589,6.24589,0,0,0-11.95582,3.61715l-20.43594,14.13789a6.23331,6.23331,0,0,0-9.64925,3.01133H571.86393a8.83255,8.83255,0,1,0-15.43708,7.58945l-22.0083,28.522A8.8229,8.8229,0,0,0,522.854,210.6001l-21.49669,17.87954a6.24281,6.24281,0,1,0-4.714,11.38779l2.06563,22.396a6.21271,6.21271,0,0,0-3.53183,7.21429l-38.14124,24.33183a6.246,6.246,0,1,0-6.29722,10.638l-3.46486,52.32971a10.7898,10.7898,0,0,0-5.0614,19.45023l-17.08225,35.99419a6.24543,6.24543,0,0,0-2.04646,12.30875l3.13972,27.56381a6.2334,6.2334,0,0,0-1.60154,10.22284l-18.34169,40.60344c-.20537-.02-.413-.03112-.62361-.03112a6.2478,6.2478,0,1,0,.70587,12.45271l22.456,47.98113a10.77421,10.77421,0,0,0-1.551,16.17046l-25.98339,35.70684a6.24975,6.24975,0,0,0-8.123,5.9604Zm34.61747,57.12849,11.90941-23.38308a8.74818,8.74818,0,0,0,5.23147.58859l8.62269,34.27954-21.40971-3.09081c.02168-.25289.03863-.50745.03863-.76589A8.82339,8.82339,0,0,0,427.77852,678.28941Zm129.89665,125.3252-20.93144-45.41945L565.1896,760.106l19.18067,20.7119-20.8075,23.656a6.18988,6.18988,0,0,0-5.88759-.85927Zm106.612-651.98437-14.88489,25.80192a6.13356,6.13356,0,0,0-4.238-.40573L635.6045,149.337a6.26052,6.26052,0,0,0,3.37788-3.62938l21.50114.37405A8.83675,8.83675,0,0,0,664.28713,151.63024ZM529.98993,423.94795a6.21142,6.21142,0,0,0,.61944,2.51778l-47.21607,27.70164a6.23617,6.23617,0,0,0-9.84906-.49133l-43.83347-31.98853a6.20059,6.20059,0,0,0,.87288-2.4722ZM409.94678,504.60347l45.33219-30.6874,60.16122,35.52064a6.19283,6.19283,0,0,0-.6011,2.07369l-102.95173-2.7073A6.21951,6.21951,0,0,0,409.94678,504.60347ZM477.41038,743.527l27.98149-39.92758a6.18388,6.18388,0,0,0,5.31512.47854l14.30352,31.03756L481.463,749.03223A12.20438,12.20438,0,0,0,477.41038,743.527Zm209.622,40.48839-76.83078-20.2039a8.75893,8.75893,0,0,0-.16563-4.17573l33.0993-11.45782,44.2481,35.14437A4.245,4.245,0,0,0,687.03243,784.01542Zm-2.25377-146.02876a6.2582,6.2582,0,0,0,.10032,1.08492l-61.6277,16.0315a6.25929,6.25929,0,0,0-3.27394-3.61659l13.81692-27.88284a8.82538,8.82538,0,0,0,11.40919-4.263l39.8884,16.70069A6.2283,6.2283,0,0,0,684.77865,637.98666Zm0-188.26958a6.21381,6.21381,0,0,0,1.0085,3.39705L639.6963,488.5175a10.54894,10.54894,0,0,0-7.22346-3.70719l2.04451-61.07857a6.23808,6.23808,0,0,0,4.88215-2.72787l45.96913,26.07537A6.21683,6.21683,0,0,0,684.77865,449.71708Zm0-68.1967a6.2168,6.2168,0,0,0,.72171,2.91128l-46.28372,29.3168a6.24054,6.24054,0,0,0-3.38149-2.28156l10.26007-56.19808c.20676.02056.416.03168.62805.03168a6.22793,6.22793,0,0,0,4.72514-2.16762l34.26565,25.11106A6.20768,6.20768,0,0,0,684.77865,381.52037Zm-76.30777-214.146L640.799,181.096a6.2214,6.2214,0,0,0,2.18263,6.96918l-20.67549,32.74442a8.696,8.696,0,0,0-5.82312-.97043l-11.63651-49.40787A6.25961,6.25961,0,0,0,608.47088,167.37439ZM539.177,209.26117l70.167,17.60831a8.59626,8.59626,0,0,0,.10421,3.77889l-43.33964,13.33421a6.23247,6.23247,0,0,0-9.12291-2.97965L536.4097,213.403A8.84146,8.84146,0,0,0,539.177,209.26117Zm-35.09018,26.24489,50.0187,10.04554a6.21441,6.21441,0,0,0,5.51354,6.94528l-1.61377,53.21622a6.20992,6.20992,0,0,0-3.09581.99822l-52.63485-68.29508A6.23729,6.23729,0,0,0,504.08685,235.50607Zm1.77273,36.65948,47.2208,36.37546a6.23,6.23,0,0,0,.09615,6.95417l-37.82666,30.86415a8.80057,8.80057,0,0,0-6.51259-2.8796c-.09977,0-.19648.01167-.29541.015l-6.2522-69.36777A6.22911,6.22911,0,0,0,505.85958,272.16554ZM502.32107,575.109a6.22971,6.22971,0,0,0,7.97045,5.73419l15.58131,41.19036a10.61022,10.61022,0,0,0-4.475,3.66661l-76.87914-48.29571a10.731,10.731,0,0,0,1.35949-4.41472ZM601.512,753.21463,599.57863,720.906a8.80527,8.80527,0,0,0,5.56745-2.90128l37.06521,29.43963-32.49681,11.24884a8.835,8.835,0,0,0-8.17193-5.48019Zm44.71414-563.9217v46.45879a6.2414,6.2414,0,0,0-4.92773,3.13193l-10.93454-5.12-4.149-1.94308a8.80605,8.80605,0,0,0-3.06969-10.47461l20.67577-32.74553A6.2133,6.2133,0,0,0,646.22612,189.29294Zm-79.67259,56.99566a6.26434,6.26434,0,0,0-.15118-1.35393L609.74116,231.601a8.84813,8.84813,0,0,0,2.647,3.74054l-52.04876,70.6978a6.185,6.185,0,0,0-1.33865-.30236l1.614-53.21622A6.242,6.242,0,0,0,566.55353,246.28859ZM515.98015,347.12967l37.82722-30.86526a6.23315,6.23315,0,0,0,2.81235,1.68963l-6.38448,32.31868-32.60408,1.21609A8.77411,8.77411,0,0,0,515.98015,347.12967ZM527.299,512.1718a6.2108,6.2108,0,0,0-.90012-3.21864l31.0245-22.22256a8.83556,8.83556,0,0,0,5.36125,3.90561l1.48565,60.59446a6.22016,6.22016,0,0,0-3.32591,1.39506l-35.20606-36.33267A6.21737,6.21737,0,0,0,527.299,512.1718ZM514.80352,574.845a6.253,6.253,0,0,0-.15312-1.3606l44.46986-13.72771a6.2624,6.2624,0,0,0,2.7073,3.11137l-27.7161,59.09436a10.54188,10.54188,0,0,0-7.30766-.27957L511.2225,580.48856A6.24315,6.24315,0,0,0,514.80352,574.845Zm96.71537,80.08916-71.16773-20.7219a10.35623,10.35623,0,0,0,.2465-3.566l58.1306-8.81888L614.59747,651.551A6.25981,6.25981,0,0,0,611.51889,654.93412Zm16.91134-39.45627c0,.28012.0164.55636.042.82981l-29.19647,4.42973L568.291,562.70017a6.24918,6.24918,0,0,0,1.17191-.97432l60.61642,48.62475A8.78588,8.78588,0,0,0,628.43023,615.47786ZM621.04642,495.3455a10.53141,10.53141,0,0,0,2.50888,6.8319l-54.42008,50.664a6.21341,6.21341,0,0,0-3.8692-1.62738l-1.48093-60.38771a8.758,8.758,0,0,0,9.6059-6.25053l47.7766,9.25241A10.58385,10.58385,0,0,0,621.04642,495.3455ZM602.51965,348.55474a6.237,6.237,0,0,0-10.30815-4.2213l-28.98888-28.52979a6.13568,6.13568,0,0,0,1.24916-4.87993l38.4675-9.58533a8.822,8.822,0,0,0,13.0991,4.88215l26.69954,38.02175a6.233,6.233,0,0,0-2.2371,4.31245Zm-62.00509,70.655,52.26774-64.99251a6.19945,6.19945,0,0,0,1.52289.75311L577.91576,420.5898l-35.51147,2.26377A6.2242,6.2242,0,0,0,540.51456,419.20975ZM598.87832,354.738l31.89655,57.55535a6.23758,6.23758,0,0,0-2.78956,5.10336L578.959,420.52366l16.31357-65.31432a6.08789,6.08789,0,0,0,3.60575-.47132Zm30.40728,66.57265-59.1266,53.657a8.77509,8.77509,0,0,0-4.37721-1.68852L578.705,421.53689l49.34618-3.14583A6.20951,6.20951,0,0,0,629.2856,421.31068ZM535.01214,622.38646l27.71721-59.09714a6.19961,6.19961,0,0,0,4.68456-.11727l30.81774,57.72376-57.78406,8.76664A10.58843,10.58843,0,0,0,535.01214,622.38646Zm25.178-147.76841-20.90754-45.425a6.24009,6.24009,0,0,0,3.18751-5.34513l35.19272-2.24432-12.89846,51.64A8.78465,8.78465,0,0,0,560.19017,474.618ZM537.922,417.73744l13.13745-66.49929,39.0358-1.45675a6.22474,6.22474,0,0,0,1.91445,3.80779L539.74228,418.5817A6.21529,6.21529,0,0,0,537.922,417.73744Zm19.6745-99.58886a6.1684,6.1684,0,0,0,4.94857-1.6146l28.96553,28.507a6.21583,6.21583,0,0,0-1.44786,3.74665l-38.806,1.4473Zm68.2-85.42318,3.76527,1.763,11.31554,5.29844a6.21187,6.21187,0,0,0,2.13455,7.20484L615.62181,290.971a8.82361,8.82361,0,0,0-12.91763,9.3997l-38.47028,9.58644a6.2627,6.2627,0,0,0-2.95714-3.51321l51.91536-70.5155a8.82683,8.82683,0,0,0,12.60444-3.20308Zm20.84335,15.49238,2.82458,42.50483a6.23958,6.23958,0,0,0-5.3279,5.96818l-23.96694,1.12161a8.8237,8.8237,0,0,0-3.7058-6.31l27.39206-43.981A6.21451,6.21451,0,0,0,646.63991,248.21778Zm2.80679,54.85082-2.78456,39.73972a6.2022,6.2022,0,0,0-3.10665.86594l-26.7012-38.02452a8.81176,8.81176,0,0,0,3.35759-6.843l23.96917-1.12161A6.24225,6.24225,0,0,0,649.44671,303.0686Zm-4.32746,52.01624-10.26285,56.19753c-.20676-.02056-.41629-.03168-.62861-.03168a6.21944,6.21944,0,0,0-2.58114.56247l-31.89627-57.55535a6.24,6.24,0,0,0,2.76955-4.70763h37.98089A6.24263,6.24263,0,0,0,645.11924,355.08484ZM633.52191,423.7034l-2.04257,61.07134a10.57087,10.57087,0,0,0-10.12474,8.07578l-47.73991-9.24463a8.72839,8.72839,0,0,0-2.68146-7.9963l59.02183-53.56192A6.21487,6.21487,0,0,0,633.52191,423.7034Zm.56914,134.76546-62.9405-1.3845a6.20953,6.20953,0,0,0-1.33531-3.51655l54.41869-50.6612a10.53784,10.53784,0,0,0,7.38992,3.01688Zm.04669.99655,2.21764,47.22358a8.80747,8.80747,0,0,0-5.65193,2.88738l-60.61336-48.62308a6.2106,6.2106,0,0,0,1.04685-2.874Zm-1.23249,63.69138L619.038,651.13967a6.18518,6.18518,0,0,0-3.51182.03724l-15.7536-29.508,28.846-4.37582A8.84171,8.84171,0,0,0,632.90525,623.1568ZM614.869,662.88262l-13.93252,40.74961a8.7484,8.7484,0,0,0-7.71673,1.4712L537.299,639.45175a10.569,10.569,0,0,0,2.77539-4.283l71.16,20.71968a6.25385,6.25385,0,0,0,3.63466,6.99419Zm-20.31117,93.76852-42.46092-29.14673,38.21461-12.2126a8.83093,8.83093,0,0,0,8.24446,5.67806l.02946-.00167,1.9328,32.30867A8.81432,8.81432,0,0,0,594.55781,756.65114ZM551.0581,726.79077l-37.08995-25.4601a6.20421,6.20421,0,0,0,.66112-1.66907l75.13392,11.61734c-.027.28179-.04307.56636-.04307.85538a8.83041,8.83041,0,0,0,.28957,2.20875Zm-40.11072-34.34346,16.35109-50.51169a10.46575,10.46575,0,0,0,9.24352-1.838l55.91907,65.64947a8.81462,8.81462,0,0,0-2.5464,4.54756l-75.13448-11.61678c.01112-.15229.02334-.304.02334-.45909A6.248,6.248,0,0,0,510.94737,692.44731Zm-.687-123.60888,10.06165-50.465a6.30935,6.30935,0,0,0,.72893.04558,6.22334,6.22334,0,0,0,3.97647-1.42841l35.20634,36.33211a6.1988,6.1988,0,0,0-1.40756,5.48186l-44.46986,13.72827A6.25558,6.25558,0,0,0,510.2604,568.83843Zm7.3349-61.87058-35.08267-44.63744a6.24713,6.24713,0,0,0,1.60821-2.38939l72.0937,20.68022a8.59488,8.59488,0,0,0,.72838,5.22786l-31.12065,22.29315a6.23951,6.23951,0,0,0-8.227-1.17441Zm-1.65017,1.61071-59.75409-35.28,17.21064-11.65013a6.238,6.238,0,0,0,8.33145,1.30168l35.08267,44.63744A6.26369,6.26369,0,0,0,515.94513,508.57855Zm-31.4205-50.83183a6.21064,6.21064,0,0,0-.62944-2.71953l47.21607-27.70164a6.21617,6.21617,0,0,0,7.26487,2.28156l20.98841,45.59842a8.83708,8.83708,0,0,0-2.93435,4.44251L484.401,458.9856A6.27718,6.27718,0,0,0,484.52463,457.74672Zm49.93838-39.9915-22.00469-57.38583a8.8292,8.8292,0,0,0,5.20618-7.88514l32.37231-1.20831-13.09132,66.267a6.07989,6.07989,0,0,0-2.48248.21232Zm115.0465-170.1944L688.21378,311.778a4.66479,4.66479,0,0,0-1.18524,1.32836L656.2397,299.03127a6.2301,6.2301,0,0,0-5.78588-8.37813l-2.821-42.50428A6.1911,6.1911,0,0,0,649.50951,247.56082Zm36.84956,67.92047a4.62174,4.62174,0,0,0,.68141,2.39606l-35.65959,27.02135a6.22289,6.22289,0,0,0-3.72859-2.017l2.78317-39.73972a6.2429,6.2429,0,0,0,5.39376-3.20363l30.78856,14.074A4.6242,4.6242,0,0,0,686.35907,315.48129Zm.09921,240.48591a6.21666,6.21666,0,0,0-1.64767,3.6177l-49.723-1.09382-2.47109-52.61762a10.52711,10.52711,0,0,0,5.77449-2.39995Zm-.12756,8.3648-43.27517,44.48181a8.78977,8.78977,0,0,0-5.7064-2.16707l-2.21486-47.1591,49.66243,1.0927A6.21424,6.21424,0,0,0,686.33073,564.332Zm-.05,162.68387a6.21568,6.21568,0,0,0-1.25222,2.31991l-77.74035-15.92034a8.74133,8.74133,0,0,0-5.40849-9.46472l13.93308-40.75128a6.18719,6.18719,0,0,0,5.58274-1.28779Zm-1.50205,4.05679a6.2539,6.2539,0,0,0,.20537,1.56513L643.32623,747.058,605.768,717.22711a8.78322,8.78322,0,0,0,1.32169-2.8368l77.73979,15.92146A6.25472,6.25472,0,0,0,684.77865,731.07266Zm-91.998,29.88872-27.12917-1.82191-25.7016-27.75389,10.94649-3.49765,43.0987,29.58414A8.76329,8.76329,0,0,0,592.78064,760.96138ZM539.202,730.57966l-26.05425-28.13517c.08809-.0956.17674-.19064.25873-.2918l36.45078,25.02158Zm-1.04685.33459-12.18842,3.895-14.35354-31.14538a6.21282,6.21282,0,0,0,.80535-.54079Zm-34.18061-36.934-53.49189-42.09632a8.78751,8.78751,0,0,0,1.59987-5.06112,8.928,8.928,0,0,0-.06336-1.01878l67.7365-11.76629a10.58322,10.58322,0,0,0,6.59513,7.59112L509.99807,692.145a6.19254,6.19254,0,0,0-6.02349,1.83525ZM442.78485,638.01l-6.006-55.25878a10.79007,10.79007,0,0,0,7.2104-4.50365l76.87914,48.29516a10.34771,10.34771,0,0,0-1.27973,6.51342L451.84662,644.823a8.83272,8.83272,0,0,0-8.5999-6.83634C443.09082,637.98666,442.93881,638.00222,442.78485,638.01Zm2.1629-70.39156,71.3442-51.40486a6.24405,6.24405,0,0,0,3.05468,1.9642l-10.06221,50.465a6.2132,6.2132,0,0,0-6.93027,5.47074l-56.43485-2.11871A10.746,10.746,0,0,0,444.94775,567.61845Zm10.29481-94.87956-20.76-12.25706a6.20211,6.20211,0,0,0,.61194-2.2371h36.95989a6.20751,6.20751,0,0,0,.789,2.57891Zm-25.06243-21.1004-3.14027-27.56381a6.27044,6.27044,0,0,0,2.08536-1.58236l43.83264,31.98909a6.20293,6.20293,0,0,0-.90345,2.76733H435.09452A6.24638,6.24638,0,0,0,430.18014,451.63848Zm101.07952-31.67006-73.35453-47.06573a10.76937,10.76937,0,0,0,1.243-7.55833l41.25456-10.39124a8.83537,8.83537,0,0,0,11.12823,5.77643l22.0033,57.38583A6.25965,6.25965,0,0,0,531.25965,419.96842Zm-80.013-62.92382,3.46569-52.33916a6.22754,6.22754,0,0,0,2.54056-1.36115l44.88894,43.21626a8.77435,8.77435,0,0,0-1.97754,7.42549l-41.26178,10.39291A10.81119,10.81119,0,0,0,451.24664,357.04459Zm8.11746-58.37349a6.2334,6.2334,0,0,0-.18981-1.50288l38.1418-24.33183a6.21809,6.21809,0,0,0,3.91923,1.38617c.0214,0,.042-.00333.06308-.00333l6.2522,69.36444a8.79429,8.79429,0,0,0-4.71624,2.26155l-44.88671-43.214A6.2191,6.2191,0,0,0,459.3641,298.67111Zm43.31046-36.77119-2.06591-22.39542a6.194,6.194,0,0,0,.87928-.47688l52.63485,68.29452q-.22677.20592-.43241.433l-47.22024-36.376a6.23765,6.23765,0,0,0-3.79556-9.47917Zm1.656-28.10682a6.22321,6.22321,0,0,0-.42574-2.25377l21.49725-17.8801a8.80452,8.80452,0,0,0,10.2095.339l20.57628,27.60049a6.23721,6.23721,0,0,0-1.88583,2.97687l-50.0187-10.045A6.33026,6.33026,0,0,0,504.33057,233.79309Zm35.245-27.16307a8.79961,8.79961,0,0,0-2.00088-5.598l22.00914-28.52145a8.77962,8.77962,0,0,0,9.0262-1.00489l43.30185,50.65064a8.82815,8.82815,0,0,0-2.331,3.74609l-70.167-17.60887A8.86642,8.86642,0,0,0,539.57554,206.63Zm32.28839-40.15491h25.15247a6.18532,6.18532,0,0,0,6.85941,4.17851l11.636,49.40954a8.78885,8.78885,0,0,0-2.84153,1.44786l-43.30185-50.65064A8.81452,8.81452,0,0,0,571.86393,166.47511Zm37.31866-1.99088a6.23742,6.23742,0,0,0-.24816-1.73021l20.43539-14.13734a6.16814,6.16814,0,0,0,5.29205,1.041l9.55921,27.68942a6.268,6.268,0,0,0-3.03356,2.83291l-32.32813-13.7216A6.23879,6.23879,0,0,0,609.18258,164.48423Zm42.917,21.75736,33.11347,16.1221a6.20761,6.20761,0,0,0,.73421,5.90649L651.16385,237.582a6.22237,6.22237,0,0,0-3.94229-1.82969V189.29294A6.23889,6.23889,0,0,0,652.09954,186.24159Zm36.936,24.31738V311.21274l-38.67314-64.16659a6.22837,6.22837,0,0,0,1.44008-8.7005l34.78337-29.31235A6.2434,6.2434,0,0,0,689.03553,210.559Zm0,109.12806v55.91518a6.25281,6.25281,0,0,0-2.734,1.838l-34.26509-25.11162a6.21294,6.21294,0,0,0-.05252-6.63737l35.65376-27.0169A4.669,4.669,0,0,0,689.03553,319.687Zm0,67.75206v56.35982a6.25843,6.25843,0,0,0-3.18057,2.41273l-45.96913-26.07593a6.21108,6.21108,0,0,0-.132-5.54855l46.28344-29.3168A6.25568,6.25568,0,0,0,689.03553,387.43909Zm0,68.1967v98.66568a6.227,6.227,0,0,0-1.84331.99266L639.126,502.801a10.56242,10.56242,0,0,0,1.17691-13.49372l46.09336-35.40559A6.25,6.25,0,0,0,689.03553,455.63579Zm0,110.502v65.9307a6.25988,6.25988,0,0,0-3.55823,3.05523l-39.889-16.70124a8.76818,8.76818,0,0,0-1.82136-8.91337L687.041,565.03064A6.22349,6.22349,0,0,0,689.03553,566.13779Zm0,77.767v81.24967a6.22889,6.22889,0,0,0-2.05035,1.15773l-64.885-65.10423a6.16518,6.16518,0,0,0,1.40145-5.1406l61.6277-16.03151A6.25538,6.25538,0,0,0,689.03553,643.90482Zm0,93.086v44.8014a4.303,4.303,0,0,0-1.04185.74311l-43.74315-34.74364,41.0553-14.21181A6.26121,6.26121,0,0,0,689.03553,736.99082ZM686.72812,785.58a4.24946,4.24946,0,0,0,.19342,1.2072l-43.1754,41.86788a10.79142,10.79142,0,0,0-10.429-1.14161l-27.52851-57.71653a8.85573,8.85573,0,0,0,4.15683-5.02332l76.84329,20.20668A4.27319,4.27319,0,0,0,686.72812,785.58Zm-101.01643-4.77988L596.09487,768.996a8.80307,8.80307,0,0,0,8.79471,1.22776l27.5299,57.72153A10.83671,10.83671,0,0,0,630.55,829.2181Zm-.68-.73366-18.39449-19.86319,26.07454,1.75188c-.00056.03112-.005.06169-.005.09337a8.80464,8.80464,0,0,0,2.63755,6.29277Zm-48.76259-22.9012-9.88241-21.44444,12.51607-3.99954,25.30142,27.32092Zm-1.13189-.07614-52.93943-3.55657c.00278-.10727.0164-.21176.0164-.31959a12.17893,12.17893,0,0,0-.44714-3.23309l43.6634-13.95337Zm-67.61478-15.81919L454.868,690.97222l47.45979,6.8508c-.00834.13172-.02.26234-.02.39573a6.23407,6.23407,0,0,0,2.26628,4.81434l-27.97677,39.91925a12.16292,12.16292,0,0,0-9.07483-1.68241Zm-12.91736-51.34206-8.72273-34.66971a8.83151,8.83151,0,0,0,3.984-2.59726l53.488,42.098a6.22013,6.22013,0,0,0-.88817,2.07814Zm-18.72075-47.98725-30.8547-18.06573a6.20714,6.20714,0,0,0-.52912-6.32612l25.987-35.71184a10.74089,10.74089,0,0,0,4.632,1.05491c.22621,0,.44742-.02056.6703-.0339l6.009,55.25767A8.83022,8.83022,0,0,0,435.88431,641.94062ZM409.9679,513.6519a6.22625,6.22625,0,0,0,1.90056-3.85336l102.95173,2.70675a6.20284,6.20284,0,0,0,.89234,2.89961l-71.22359,51.3176a10.73032,10.73032,0,0,0-12.06253-5.08668Zm18.28083-49.68855a6.22838,6.22838,0,0,0,5.72919-2.62393l20.3523,12.0164-43.68341,29.57136Zm17.56162-86.02844a10.72419,10.72419,0,0,0,11.55731-4.19407l73.34953,47.06239a6.2002,6.2002,0,0,0-.68169,2.15039l-99.40628-4.73375a6.22036,6.22036,0,0,0-1.90195-4.29078Zm241.32712-178.179a6.26855,6.26855,0,0,0-1.487,1.713L652.537,185.34675a6.22831,6.22831,0,0,0-2.271-7.42049l14.88433-25.80136a8.78352,8.78352,0,0,0,3.974.95209,8.90731,8.90731,0,0,0,1.06074-.07ZM566.06859,809.60669c.00083-.04446.00667-.08782.00667-.13284a6.22494,6.22494,0,0,0-1.76383-4.34525l20.73886-23.57649L629.81889,829.894a10.83038,10.83038,0,0,0-1.6096,2.10759Zm-84.79651-51.69054a12.11894,12.11894,0,0,0,.86872-3.38871l53.47133,3.59214,21.1571,45.90911a6.25506,6.25506,0,0,0-.90318.61416Zm-16.47559-15.718-34.92483-50.35a8.79871,8.79871,0,0,0,2.124-4.1774l21.80961,3.14805,12.75312,50.699A12.05607,12.05607,0,0,0,464.79649,742.19811ZM403.328,626.02306a6.27514,6.27514,0,0,0,1.20081-1.28779l30.858,18.06407a8.8084,8.8084,0,0,0,3.41595,11.65124l-11.90941,23.38308a8.61823,8.61823,0,0,0-4.67178-.67419Z"/><circle class="cls-115" cx="520.90469" cy="514.32286" r="32.25124"/><circle class="cls-116" cx="520.90469" cy="514.32286" r="27.06538"/><circle class="cls-115" cx="634.22792" cy="417.49829" r="32.25124"/><circle class="cls-117" cx="634.22792" cy="417.49829" r="27.06538"/><circle class="cls-115" cx="637.26592" cy="615.47811" r="32.25124"/><circle class="cls-118" cx="637.26592" cy="615.47811" r="27.06538"/><circle class="cls-115" cx="508.55557" cy="704.72543" r="32.25124"/><circle class="cls-119" cx="508.55557" cy="704.72543" r="27.06538"/><circle class="cls-115" cx="509.86755" cy="352.31538" r="32.25124"/><circle class="cls-120" cx="509.86755" cy="352.31538" r="27.06538"/><circle class="cls-115" cx="618.0183" cy="228.53249" r="32.25124"/><circle class="cls-121" cx="618.0183" cy="228.53249" r="27.06538"/><path class="cls-62" d="M632.94114,215.5588H603.09546a.68544.68544,0,0,0-.64882.62524v20.00762a.68544.68544,0,0,0,.64882.62524h8.43465v4.064c0,.31262,0,.62524.32441.62524h.64882l5.19055-4.68929h15.24725a.68544.68544,0,0,0,.64882-.62524V216.184a.68544.68544,0,0,0-.64882-.62524Zm-3.89291,17.50667H606.98838a.68544.68544,0,0,1-.64882-.62524V219.93546a.64926.64926,0,0,1,1.29764,0V231.815h2.59528v-6.87762a.68544.68544,0,0,1,.64882-.62524h3.89291a.68544.68544,0,0,1,.64882.62524V231.815h1.29764v-4.37667a.68544.68544,0,0,1,.64882-.62524h3.89291a.68544.68544,0,0,1,.64882.62524V231.815h1.29764V219.93546a.68544.68544,0,0,1,.64882-.62524h3.89291a.68544.68544,0,0,1,.64882.62524V231.815h.64882a.62567.62567,0,1,1,0,1.25047Z"/><polygon class="cls-62" points="644.493 420.742 638.185 426.983 642.53 431.283 648.839 424.903 644.493 420.742 644.493 420.742 644.493 420.742"/><path class="cls-62" d="M637.85676,428.03942l-1.3113,3.89211c0,.32434,0,.64868.32782.64868,0,.32434,0,.32434.32782.32434h.32782l3.93389-1.29737-3.60607-3.56776Z"/><path class="cls-62" d="M651.78929,421.06606l-3.27824-3.24342c0-.32434-.65565-.32434-.65565,0l-2.29477,1.94605,4.26172,4.21645,1.96695-2.2704c.32782,0,.32782-.64868,0-.64868Z"/><path class="cls-62" d="M644.411,410.11613l-7.92242-7.70313c0-.321,0-.321-.3301-.321H621.634a.70037.70037,0,0,0-.6602.64193v29.52866a.70038.70038,0,0,0,.6602.64193h13.86424V431.6207l1.3204-4.49349c.3301-.321.3301-.64193.6602-.64193l7.26222-7.0612v-8.987c0-.321,0-.321-.3301-.321Zm-19.476,8.02409a.70037.70037,0,0,1,.6602-.64193h6.602a.70037.70037,0,0,1,.6602.64193v3.85156a.70037.70037,0,0,1-.6602.64193h-6.602a.70037.70037,0,0,1-.6602-.64193v-3.85156Zm14.52444,1.92578h-2.64081v5.77735a.70038.70038,0,0,1-.6602.64193h-3.301v1.92578a.70037.70037,0,0,1-.6602.64193h-6.602a.70037.70037,0,0,1-.6602-.64193V424.5595a.70037.70037,0,0,1,.6602-.64193h6.602a.70037.70037,0,0,1,.6602.64193v.64193h2.64081v-11.5547h-2.64081v1.92578a.70037.70037,0,0,1-.6602.64193h-6.602a.70037.70037,0,0,1-.6602-.64193v-3.85157a.70037.70037,0,0,1,.6602-.64193h6.602a.70037.70037,0,0,1,.6602.64193v.64193h3.301a.70038.70038,0,0,1,.6602.64193v5.77735h2.64081a.64218.64218,0,1,1,0,1.28386Zm1.3204-8.987h-4.62141a.70037.70037,0,0,1-.6602-.64193v-7.38217l8.25252,8.0241Z"/><path class="cls-62" d="M523.31052,349.42671c-.32029-.64193-.96087-1.60482-.96087-1.60482,0-6.74024-6.08548-10.91277-12.171-10.91277a12.86276,12.86276,0,0,0-12.81153,12.83855c0,4.81446,1.60144,8.02409,5.12461,10.27084v7.0612a.6896.6896,0,0,0,.64058.64193h12.81153a.6896.6896,0,0,0,.64058-.64193v-3.85157c2.242,0,3.52317-.321,4.484-1.28385,1.28115-.96289,1.28115-4.17253,1.28115-5.77735h1.28115a1.6629,1.6629,0,0,0,1.28115-.64193,1.1807,1.1807,0,0,0,.32029-.96289v-.321c0-1.28386-.96087-3.20964-1.92173-4.81446Zm-7.36663-2.56771-7.36663,11.23373a1.11756,1.11756,0,0,1-.64058.321h-.32029c0-.321-.32029-.64193-.32029-.96289l1.28115-6.41927H506.015c-.32029,0-.32029,0-.64058-.321v-.64193l3.84346-8.987a.31389.31389,0,0,1,.32029-.321h4.80432a.31389.31389,0,0,1,.32029.321c.32029,0,.32029.321,0,.64193l-1.60144,4.17253h2.242c.32029,0,.64058,0,.64058.321v.64193Z"/><path class="cls-122" d="M530.96049,499.21787a13.91745,13.91745,0,0,0-9.90117-4.10625H521.051a14.01091,14.01091,0,0,0-8.07828,25.45788,3.61881,3.61881,0,0,1,1.53873,2.94463v3.43651a.311.311,0,0,0,.27985.30291c-.01612.03835-.04669.06892-.04669.11283a.31954.31954,0,0,0,.31917.31959h11.97458a.31957.31957,0,0,0,.31931-.31959.29444.29444,0,0,0-.05072-.12228.30792.30792,0,0,0,.25692-.29346v-3.41817a3.57565,3.57565,0,0,1,1.51734-2.92907,14.01116,14.01116,0,0,0,1.8793-21.38553Zm-4.03525,27.41374H525.0647l.01195-.07392h1.84859Zm-2.37563,0H521.3703v-.07392h3.19127Zm-3.17932-.71254V510.096a5.71324,5.71324,0,0,0,5.38015.19731.29113.29113,0,0,1,.2986.03668.27948.27948,0,0,1,.10588.27123l-2.48957,15.31786Zm-.63848,0h-3.30937L514.933,510.60122a.2792.2792,0,0,1,.10588-.27123.29117.29117,0,0,1,.2986-.03668,5.71352,5.71352,0,0,0,5.39432-.20565Zm0,.63861v.07392h-3.19349l-.01195-.07392Zm-3.70872.07392h-1.87333v-.07392h1.86138Zm11.69168-6.55122a4.21468,4.21468,0,0,0-1.78954,3.45208v2.38661h-1.7448l2.47623-15.23615a.78241.78241,0,0,0-.29513-.75367.80411.80411,0,0,0-.81314-.10282,5.23989,5.23989,0,0,1-4.76112-.08281.318.318,0,0,0-.19856-.56747h-1.0752a.31814.31814,0,0,0-.20426.563,5.24252,5.24252,0,0,1-4.76988.08726.80419.80419,0,0,0-.81314.10282.783.783,0,0,0-.29513.75367l2.47637,15.23615h-1.75772v-2.40495a4.25759,4.25759,0,0,0-1.80844-3.466,13.36674,13.36674,0,0,1,7.70965-24.29792h.00792a13.3722,13.3722,0,0,1,7.65587,24.33016Z"/><path class="cls-122" d="M526.65248,528.17507H515.42268a.31931.31931,0,0,0,0,.63861h11.22981a.31931.31931,0,0,0,0-.63861Z"/><path class="cls-122" d="M525.42486,529.30334h-8.77442a.31907.31907,0,0,0-.31319.38183,4.7945,4.7945,0,0,0,9.40067,0,.31907.31907,0,0,0-.31305-.38183Z"/><path class="cls-62" d="M522.62082,718.87854l-3.79978-3.75942a6.2649,6.2649,0,0,0,.94995-3.44614,5.3083,5.3083,0,0,0-5.383-5.32585,5.51966,5.51966,0,0,0-5.383,5.32585,5.30955,5.30955,0,0,0,5.383,5.32585,4.79226,4.79226,0,0,0,3.48313-1.25314l4.11643,4.07271c0,.31328,0,.31328.31665.31328s.31665,0,.31665-.31328a.58368.58368,0,0,0,0-.93986ZM510.27153,711.673a4.16946,4.16946,0,0,1,4.11643-4.07271,4.07294,4.07294,0,1,1,0,8.14541,4.16946,4.16946,0,0,1-4.11643-4.07271Z"/><path class="cls-62" d="M497.36235,691.75173a.83053.83053,0,0,0,0,1.62171h20.82649a.83053.83053,0,0,0,0-1.62171Z"/><path class="cls-62" d="M517.52837,717.564a9.87873,9.87873,0,0,1-3.27824.64193,6.74175,6.74175,0,1,1,0-13.48048,7.7916,7.7916,0,0,1,6.22866,3.5306V695.09651a.69783.69783,0,0,0-.65565-.64193H497.53108a1.92621,1.92621,0,1,1,0-3.85157h22.29206a.64207.64207,0,1,0,0-1.28386H497.53108a3.06526,3.06526,0,0,0-3.27824,3.20964V716.922a3.06526,3.06526,0,0,0,3.27824,3.20964H520.151l-2.62259-2.56771Z"/><path class="cls-62" d="M624.56273,605.34242a5.32745,5.32745,0,1,1,5.32715,5.27056,5.29908,5.29908,0,0,1-5.32715-5.27056Z"/><path class="cls-62" d="M631.18751,611.42384l.64882,8.75724-1.94646,1.94605-1.94646-1.94605.64882-8.75724H622.104v.64868c0,4.54079,1.622,8.10856,4.54173,10.05461v8.75724H633.134v-8.75724c2.91969-1.94605,4.54173-5.51382,4.54173-10.05461v-.64868Z"/><path class="cls-62" d="M634.87789,601.69357a4.822,4.822,0,0,1,1.3,3.72994,5.958,5.958,0,0,1-2.6,4.97325h5.2v1.865a13.25206,13.25206,0,0,1-2.275,8.08153H652.4278V601.69357Zm14.94992,15.5414a.68432.68432,0,0,1-.65.62166h-7.8a.62227.62227,0,1,1,0-1.24331h1.95v-4.35159a.65064.65064,0,0,1,1.3,0v4.35159h1.3V609.7751a.65064.65064,0,0,1,1.3,0v6.83822h1.3V606.04516a.65064.65064,0,0,1,1.3,0V617.235Z"/></g><g id="TEXT"><text class="cls-123" transform="translate(83.5083 135.40552)">ABSTRACT BRAIN</text><text class="cls-124" transform="translate(79.80664 171.86108)">ILLUSTRATION</text><text class="cls-125" transform="translate(83.50757 211.64941)">Lorem ipsum dolor sit amet, consec<tspan x="243.0332" y="0">-</tspan><tspan x="0" y="20.79785">tetuer adipiscing elit, sed diam </tspan><tspan x="0" y="41.5957">nonummy nibh euismod tincidunt </tspan><tspan x="0" y="62.39453">ut laoreet dolore magna aliquam </tspan><tspan x="0" y="83.19238">erat volutpat. Ut wisi enim ad </tspan></text></g></svg>